<svg xmlns="http://www.w3.org/2000/svg" xmlns:xlink="http://www.w3.org/1999/xlink" viewBox="0 0 457.51 705.25">
  <defs>
    <style>
      .cls-1 {
        fill: #fff;
      }

      .cls-2 {
        fill: #2d525e;
      }

      .cls-3, .cls-5, .cls-6, .cls-7, .cls-8 {
        opacity: 0.5;
      }

      .cls-3 {
        fill: url(#Degradado_sin_nombre_8);
      }

      .cls-4 {
        fill: #4b8a98;
      }

      .cls-5 {
        fill: url(#Degradado_sin_nombre_8-2);
      }

      .cls-6 {
        fill: url(#Degradado_sin_nombre_8-3);
      }

      .cls-7 {
        fill: url(#Degradado_sin_nombre_8-4);
      }

      .cls-8 {
        fill: url(#Degradado_sin_nombre_8-5);
      }

      .cls-9 {
        fill: #233261;
      }

      .cls-10 {
        fill: #1f2c52;
      }

      .cls-11 {
        fill: #1a408a;
      }

      .cls-12 {
        fill: #203c7b;
      }

      .cls-13 {
        fill: #1d284b;
      }

      .cls-14 {
        fill: #224d9b;
      }

      .cls-15 {
        fill: #19213b;
      }

      .cls-16 {
        fill: #a3a3a3;
      }

      .cls-17 {
        fill: #1e1e1e;
      }

      .cls-18 {
        fill: #171b1a;
      }
    </style>
    <linearGradient id="Degradado_sin_nombre_8" data-name="Degradado sin nombre 8" x1="-5315.7" y1="977.15" x2="-5315.7" y2="792.9" gradientTransform="matrix(-0.89, 0.45, 0.45, 0.89, -4939.53, 1744.01)" gradientUnits="userSpaceOnUse">
      <stop offset="0" stop-color="#6ccef5" stop-opacity="0.5"/>
      <stop offset="1" stop-color="#6ccef5" stop-opacity="0"/>
    </linearGradient>
    <linearGradient id="Degradado_sin_nombre_8-2" x1="-1963.88" y1="810.9" x2="-1963.88" y2="626.65" gradientTransform="translate(1935.59 -1086.22) rotate(-17.76)" xlink:href="#Degradado_sin_nombre_8"/>
    <linearGradient id="Degradado_sin_nombre_8-3" x1="-5460.95" y1="82.51" x2="-5460.95" y2="-101.75" gradientTransform="matrix(-0.99, -0.12, -0.12, 0.99, -5055.87, -424.17)" xlink:href="#Degradado_sin_nombre_8"/>
    <linearGradient id="Degradado_sin_nombre_8-4" x1="-1891.86" y1="492.19" x2="-1891.86" y2="307.94" gradientTransform="translate(1935 -424.17) rotate(-6.94)" xlink:href="#Degradado_sin_nombre_8"/>
    <linearGradient id="Degradado_sin_nombre_8-5" x1="-5286.24" y1="112.43" x2="-5286.24" y2="-71.82" gradientTransform="matrix(-0.99, -0.12, -0.12, 0.99, -5046.05, -424.17)" xlink:href="#Degradado_sin_nombre_8"/>
  </defs>
  <g id="Capa_7" data-name="Capa 7">
    <g>
      <g>
        <g id="cuerpo">
          <g>
            <path class="cls-1" d="M174.32,106.36l-22.44,11.42a12.7,12.7,0,0,1,4.81-14.88,12.81,12.81,0,0,1,1.35-.78A12.68,12.68,0,0,1,174.32,106.36Z"/>
            <path class="cls-1" d="M163.27,19.06l-1.16-2.27-.46-.9L136.39,28.76l.46.89L138,31.92h0A42.51,42.51,0,0,0,119.41,89.1l10.7,21,3.72,7.29,46.71,91.72a28.28,28.28,0,0,0,38.07,12.38l18.07-9.2,8.9-4.53L258,201.43l6.28-3.2,4.89-2.49a28.32,28.32,0,0,0,12.38-38.08l-61.13-120A42.52,42.52,0,0,0,163.27,19.06ZM151.84,121.17a1.5,1.5,0,0,1-2-.65,15.67,15.67,0,1,1,27.92-14.22,1.46,1.46,0,0,1,.1,1.14,1.48,1.48,0,0,1-.59.78l-.16.09Z"/>
            <path class="cls-2" d="M163.71,17.72l-.7-1.39-.91-1.78h0l-27,13.77.91,1.79.71,1.39a43.56,43.56,0,0,0-18.16,58.06l10.25,20.12,4.64,9.09,46.24,90.81a29.28,29.28,0,0,0,16.19,14.27,29.68,29.68,0,0,0,8.85,1.71,29,29,0,0,0,14.39-3.17l17-8.66,9.54-4.86,12.78-6.51,6.27-3.2,5-2.53a29.85,29.85,0,0,0,3.11-1.83,29.32,29.32,0,0,0,9.71-37.59l-61.13-120A43.55,43.55,0,0,0,163.71,17.72Zm55.84,20.37,61.13,120a27.31,27.31,0,0,1-11.94,36.73l-4.8,2.45-6.27,3.19-12.42,6.32-8,4.06-19.13,9.74a26.87,26.87,0,0,1-11.08,2.94,27.39,27.39,0,0,1-25.66-14.89L135,117.45l-4.33-8.5L120.3,88.65a41.57,41.57,0,0,1,18.14-55.83l.92-.44-1.62-3.18,23.48-12,1.61,3.16.89-.45A41.56,41.56,0,0,1,219.55,38.09Z"/>
          </g>
          <path class="cls-3" d="M214.13,40.86l61.13,120A21.24,21.24,0,0,1,266,189.42l-50.59,25.77a21.25,21.25,0,0,1-28.54-9.28l-61.13-120a35.41,35.41,0,0,1-.21-31.7l63.11-32.14A35.36,35.36,0,0,1,214.13,40.86Z"/>
          <path class="cls-2" d="M164,15.81l-.29.17L135.27,30.46a2.76,2.76,0,0,1-2.11.16,2.69,2.69,0,0,1-1.61-1.38,2.76,2.76,0,0,1,1.21-3.72l28.41-14.47A2.77,2.77,0,0,1,164,15.81Zm-30.4,11.54a.75.75,0,0,0-.3.4.76.76,0,0,0,.05.59h0a.76.76,0,0,0,1,.33L162.78,14.2a.74.74,0,0,0,.38-.45.73.73,0,0,0,0-.58.78.78,0,0,0-1-.34L133.66,27.3Z"/>
          <g>
            <path class="cls-1" d="M130,5.77h28.35a0,0,0,0,1,0,0v11.6a2.57,2.57,0,0,1-2.57,2.57H132.6A2.57,2.57,0,0,1,130,17.37V5.77a0,0,0,0,1,0,0Z" transform="translate(278.53 -41.12) rotate(153.01)"/>
            <path class="cls-2" d="M161.39,13.18,134.35,27l-5.72-11.23a3.59,3.59,0,0,1,1.56-4.8L150.87.39A3.57,3.57,0,0,1,155.67,2ZM135.23,24.26l23.47-12-4.81-9.44a1.57,1.57,0,0,0-2.11-.69L131.1,12.7a1.58,1.58,0,0,0-.69,2.12Z"/>
          </g>
        </g>
        <g>
          <g>
            <path class="cls-4" d="M174.32,106.36l-22.44,11.42a12.7,12.7,0,0,1,4.81-14.88,12.81,12.81,0,0,1,1.35-.78A12.68,12.68,0,0,1,174.32,106.36Z"/>
            <path class="cls-2" d="M156.67,99.44a15.65,15.65,0,0,0-6.85,21.08,1.5,1.5,0,0,0,2,.65l25.25-12.86.16-.09a1.48,1.48,0,0,0,.59-.78,1.46,1.46,0,0,0-.1-1.14A15.67,15.67,0,0,0,156.67,99.44Zm-4.79,18.34a12.7,12.7,0,0,1,4.81-14.88,12.81,12.81,0,0,1,1.35-.78,12.68,12.68,0,0,1,16.28,4.24Z"/>
          </g>
          <path class="cls-2" d="M179.12,89.74,173.61,88a2.78,2.78,0,0,1,1.66-5.31l5.51,1.73,1.73-5.52a2.78,2.78,0,0,1,5.31,1.66l-1.73,5.52,5.52,1.72A2.78,2.78,0,0,1,190,93.12l-5.52-1.72-1.72,5.51a2.78,2.78,0,0,1-5.31-1.66Z"/>
          <path class="cls-2" d="M128.61,115.47l-5.52-1.73a2.78,2.78,0,0,1,1.66-5.31l5.52,1.72,1.72-5.51a2.78,2.78,0,0,1,5.31,1.66l-1.72,5.51,5.51,1.73a2.78,2.78,0,0,1-1.66,5.31l-5.51-1.72-1.73,5.51a2.78,2.78,0,0,1-5.31-1.66Z"/>
        </g>
      </g>
      <g>
        <g id="cuerpo-2" data-name="cuerpo">
          <g>
            <path class="cls-1" d="M292.25,170.23l24-7.69a12.68,12.68,0,0,0-13.88-7.18,13.56,13.56,0,0,0-1.52.39A12.69,12.69,0,0,0,292.25,170.23Z"/>
            <path class="cls-1" d="M211.11,153.91l41.08,128.27a28.31,28.31,0,0,0,35.6,18.32l5.23-1.67,6.71-2.15,13.3-4.26,9.51-3.05,19.31-6.19a28.31,28.31,0,0,0,18.33-35.6l-31.4-98-2.5-7.79-7.19-22.46A42.5,42.5,0,0,0,265.64,91.8h0l-.77-2.43-.31-1-27,8.64.31,1,.78,2.43A42.52,42.52,0,0,0,211.11,153.91Zm80.55,19.66-.19,0a1.4,1.4,0,0,1-1-.14,1.5,1.5,0,0,1-.74-.88A15.67,15.67,0,1,1,319.62,163a1.51,1.51,0,0,1-1,1.89Z"/>
            <path class="cls-2" d="M210.15,154.21l41.09,128.27a29.3,29.3,0,0,0,36.86,19l5.32-1.71,6.71-2.15,13.66-4.37L324,290l18.17-5.83a29,29,0,0,0,12.44-7.87,29.35,29.35,0,0,0,6.54-29l-31.09-97-3.11-9.72L320.05,119a43.54,43.54,0,0,0-53.77-28.45l-.47-1.49-.61-1.91-28.91,9.26h0l.61,1.9.48,1.49A43.56,43.56,0,0,0,210.15,154.21Zm28.79-52.81.95-.3-1.08-3.38,25.1-8,1.08,3.4,1-.34a41.56,41.56,0,0,1,52.18,26.88l6.95,21.7L328,150.4l31.23,97.49a27.34,27.34,0,0,1-7.75,28.63,26.77,26.77,0,0,1-9.93,5.71l-20.45,6.55-8.5,2.72-13.27,4.26-6.71,2.15-5.13,1.64a27.31,27.31,0,0,1-34.34-17.68L212.06,153.59A41.57,41.57,0,0,1,238.94,101.4Z"/>
          </g>
          <path class="cls-5" d="M217.86,151.74,259,280a21.24,21.24,0,0,0,26.68,13.74l54.07-17.32a21.24,21.24,0,0,0,13.73-26.68L312.34,121.48a35.36,35.36,0,0,0-22.16-22.66l-67.45,21.6A35.4,35.4,0,0,0,217.86,151.74Z"/>
          <path class="cls-2" d="M232.69,96.77a2.78,2.78,0,0,1,1.79-3.49l30.37-9.72a2.75,2.75,0,0,1,3.48,1.79,2.76,2.76,0,0,1-1.79,3.48l-30.37,9.73-.33.08A2.77,2.77,0,0,1,232.69,96.77Zm32.77-11.31-30.37,9.73a.77.77,0,0,0-.5,1,.84.84,0,0,0,.38.45.81.81,0,0,0,.59,0l30.37-9.73a.77.77,0,0,0,.45-.38.76.76,0,0,0,.05-.59h0a.74.74,0,0,0-.38-.45.76.76,0,0,0-.49-.07Z"/>
          <g>
            <path class="cls-1" d="M236.21,75.54h23.2A2.57,2.57,0,0,1,262,78.11v11.6a0,0,0,0,1,0,0H233.64a0,0,0,0,1,0,0V78.11A2.57,2.57,0,0,1,236.21,75.54Z" transform="translate(-13.39 79.53) rotate(-17.76)"/>
            <path class="cls-2" d="M232,83a3.58,3.58,0,0,1,2.32-4.49l22.09-7.08a3.58,3.58,0,0,1,4.49,2.32l3.85,12L235.83,95Zm27-8.64a1.57,1.57,0,0,0-2-1l-22.09,7.08a1.56,1.56,0,0,0-1,2l3.23,10.1,25.09-8Z"/>
          </g>
        </g>
        <g>
          <g>
            <path class="cls-4" d="M292.25,170.23l24-7.69a12.68,12.68,0,0,0-13.88-7.18,13.56,13.56,0,0,0-1.52.39A12.69,12.69,0,0,0,292.25,170.23Z"/>
            <path class="cls-2" d="M289.77,172.59a1.5,1.5,0,0,0,.74.88,1.4,1.4,0,0,0,1,.14l.19,0,27-8.65a1.51,1.51,0,0,0,1-1.89,15.67,15.67,0,0,0-29.85,9.56Zm2.48-2.36a12.69,12.69,0,0,1,8.57-14.48,13.56,13.56,0,0,1,1.52-.39,12.68,12.68,0,0,1,13.88,7.18Z"/>
          </g>
          <path class="cls-2" d="M277.13,161.81l2.7-5.11a2.78,2.78,0,1,0-4.91-2.6l-2.7,5.1-5.11-2.7a2.78,2.78,0,1,0-2.6,4.92l5.1,2.7-2.7,5.1a2.78,2.78,0,0,0,4.92,2.61l2.7-5.11,5.1,2.7a2.78,2.78,0,1,0,2.61-4.91Z"/>
          <path class="cls-2" d="M331.12,144.51l2.7-5.1a2.78,2.78,0,1,0-4.91-2.6l-2.7,5.1-5.11-2.7a2.78,2.78,0,1,0-2.6,4.92l5.1,2.7-2.7,5.1a2.78,2.78,0,1,0,4.92,2.6l2.7-5.1,5.1,2.7a2.78,2.78,0,0,0,2.61-4.92Z"/>
        </g>
      </g>
      <g>
        <g id="cuerpo-3" data-name="cuerpo">
          <g>
            <path class="cls-1" d="M353.56,201.08l-25-3.05a12.7,12.7,0,0,1,12.29-9.66,13.61,13.61,0,0,1,1.56.1A12.69,12.69,0,0,1,353.56,201.08Z"/>
            <path class="cls-1" d="M393.12,122.48l.31-2.53.12-1-28.14-3.42-.12,1-.31,2.53h0a42.5,42.5,0,0,0-47.33,37.06l-2.85,23.41-1,8.12L301.36,289.81A28.29,28.29,0,0,0,326,321.34l20.13,2.45,9.91,1.21L370,326.69l7,.85,5.45.66a28.32,28.32,0,0,0,31.53-24.68l16.27-133.7A42.51,42.51,0,0,0,393.12,122.48Zm-66.48,78.34a1.5,1.5,0,0,1-1.31-1.67,15.67,15.67,0,1,1,31.11,3.79,1.5,1.5,0,0,1-.56,1,1.47,1.47,0,0,1-.92.32h-.19Z"/>
            <path class="cls-2" d="M394.24,121.62l.19-1.55.24-2h0l-30.13-3.67-.24,2-.19,1.55a43.55,43.55,0,0,0-47.47,38l-2.73,22.42-1.23,10.13L300.36,289.69a29.34,29.34,0,0,0,25.56,32.64l18.94,2.31,10.63,1.29,14.24,1.73,7,.85,5.55.68a29.3,29.3,0,0,0,32.64-25.55l16.28-133.7A43.56,43.56,0,0,0,394.24,121.62Zm35,48.07L412.92,303.4a27.31,27.31,0,0,1-30.41,23.81l-5.35-.65-7-.85L356.34,324l-8.87-1.08-21.31-2.59a26.94,26.94,0,0,1-10.83-3.75,27.37,27.37,0,0,1-13-26.67l12.37-101.61,1.16-9.47,2.75-22.62A41.55,41.55,0,0,1,364.84,120l1,.15.43-3.55,26.16,3.19-.43,3.52,1,.12A41.56,41.56,0,0,1,429.2,169.69Z"/>
          </g>
          <path class="cls-6" d="M423.16,169,406.88,302.67a21.25,21.25,0,0,1-23.63,18.5L326.9,314.3a21.23,21.23,0,0,1-18.5-23.62L324.68,157a35.37,35.37,0,0,1,17.51-26.42l70.31,8.56A35.42,35.42,0,0,1,423.16,169Z"/>
          <path class="cls-2" d="M395.53,120.18a2,2,0,0,1-.34,0l-31.65-3.85a2.77,2.77,0,1,1,.67-5.5l31.65,3.85a2.77,2.77,0,0,1-.33,5.52Zm-31.66-7.39a.78.78,0,0,0-.47.16.76.76,0,0,0-.29.52h0a.79.79,0,0,0,.15.57.75.75,0,0,0,.52.28l31.66,3.86A.76.76,0,0,0,396,118a.74.74,0,0,0,.29-.51.77.77,0,0,0-.67-.86L364,112.8Z"/>
          <g>
            <path class="cls-1" d="M366.6,99.61h28.35a0,0,0,0,1,0,0v11.6a2.57,2.57,0,0,1-2.57,2.57h-23.2a2.57,2.57,0,0,1-2.57-2.57V99.61A0,0,0,0,1,366.6,99.61Z" transform="translate(745.85 258.63) rotate(-173.06)"/>
            <path class="cls-2" d="M394.85,116.56l-30.12-3.67,1.52-12.51a3.57,3.57,0,0,1,4-3.11l23,2.8a3.58,3.58,0,0,1,3.12,4ZM367,111.14l26.15,3.19,1.28-10.52a1.58,1.58,0,0,0-1.37-1.76l-23-2.8a1.57,1.57,0,0,0-1.75,1.37Z"/>
          </g>
        </g>
        <g>
          <g>
            <path class="cls-4" d="M353.56,201.08l-25-3.05a12.7,12.7,0,0,1,12.29-9.66,13.61,13.61,0,0,1,1.56.1A12.69,12.69,0,0,1,353.56,201.08Z"/>
            <path class="cls-2" d="M342.78,185.49a15.65,15.65,0,0,0-17.45,13.66,1.5,1.5,0,0,0,1.31,1.67l28.13,3.43H355a1.47,1.47,0,0,0,.92-.32,1.5,1.5,0,0,0,.56-1A15.68,15.68,0,0,0,342.78,185.49ZM328.57,198a12.7,12.7,0,0,1,12.29-9.66,13.61,13.61,0,0,1,1.56.1,12.69,12.69,0,0,1,11.14,12.61Z"/>
          </g>
          <path class="cls-2" d="M366.83,190l-3.61-4.5a2.78,2.78,0,1,1,4.34-3.48l3.61,4.5,4.51-3.61a2.78,2.78,0,0,1,3.48,4.34l-4.51,3.62,3.61,4.5a2.78,2.78,0,0,1-4.34,3.48l-3.61-4.5-4.5,3.61a2.78,2.78,0,1,1-3.48-4.34Z"/>
          <path class="cls-2" d="M310.55,183.12l-3.61-4.5a2.79,2.79,0,0,1,4.35-3.48l3.61,4.5,4.5-3.61a2.78,2.78,0,0,1,3.48,4.34l-4.5,3.61,3.61,4.51a2.78,2.78,0,0,1-4.34,3.48L314,187.46l-4.5,3.62a2.79,2.79,0,0,1-3.48-4.35Z"/>
        </g>
      </g>
      <g>
        <g id="cuerpo-4" data-name="cuerpo">
          <g>
            <path class="cls-1" d="M118,176.41l25-3a12.7,12.7,0,0,0-12.29-9.66,13.61,13.61,0,0,0-1.56.1A12.69,12.69,0,0,0,118,176.41Z"/>
            <path class="cls-1" d="M41.37,145.15l16.27,133.7a28.32,28.32,0,0,0,31.53,24.68l5.45-.66,7-.85,13.87-1.69,9.91-1.21,20.13-2.45a28.31,28.31,0,0,0,24.68-31.53L157.76,163l-1-8.12-2.85-23.41a42.5,42.5,0,0,0-47.33-37.06h0l-.31-2.53-.12-1L78,94.28l.12,1,.31,2.53A42.51,42.51,0,0,0,41.37,145.15Zm75.42,34.43h-.19a1.47,1.47,0,0,1-.92-.32,1.5,1.5,0,0,1-.56-1,15.67,15.67,0,1,1,31.11-3.79,1.5,1.5,0,0,1-1.31,1.67Z"/>
            <path class="cls-2" d="M40.37,145.27,56.65,279a29.27,29.27,0,0,0,32.64,25.55l5.55-.68,7-.85,14.24-1.73L126.7,300l18.94-2.31a29,29,0,0,0,13.7-5.4A29.31,29.31,0,0,0,171.2,265L158.88,163.87l-1.23-10.13-2.73-22.42a43.55,43.55,0,0,0-47.47-38l-.19-1.55-.24-2L76.89,93.41h0l.24,2L77.32,97A43.56,43.56,0,0,0,40.37,145.27ZM78.56,98.8l1-.12-.43-3.52L105.28,92l.43,3.55,1-.15a41.55,41.55,0,0,1,46.21,36.19l2.75,22.62,1.16,9.47,12.37,101.61a27.37,27.37,0,0,1-13,26.67,26.94,26.94,0,0,1-10.83,3.75l-21.31,2.59-8.87,1.08L101.39,301l-7,.85-5.35.65a27.31,27.31,0,0,1-30.41-23.81L42.36,145A41.56,41.56,0,0,1,78.56,98.8Z"/>
          </g>
          <path class="cls-7" d="M48.41,144.29,64.69,278a21.24,21.24,0,0,0,23.62,18.5l56.36-6.86A21.24,21.24,0,0,0,163.17,266L146.89,132.29a35.38,35.38,0,0,0-17.51-26.41l-70.31,8.56A35.37,35.37,0,0,0,48.41,144.29Z"/>
          <path class="cls-2" d="M73.29,93.07A2.77,2.77,0,0,1,75.71,90l31.65-3.86a2.8,2.8,0,0,1,2,.57A2.77,2.77,0,0,1,108,91.63L76.38,95.49l-.34,0A2.77,2.77,0,0,1,73.29,93.07Zm34.31-4.95L76,92a.77.77,0,0,0-.67.86.69.69,0,0,0,.29.51.72.72,0,0,0,.56.16l31.66-3.85a.76.76,0,0,0,.51-.29.73.73,0,0,0,.16-.57h0a.74.74,0,0,0-.29-.51.73.73,0,0,0-.47-.17Z"/>
          <g>
            <path class="cls-1" d="M79.2,74.93h23.2A2.57,2.57,0,0,1,105,77.5v11.6a0,0,0,0,1,0,0H76.63a0,0,0,0,1,0,0V77.5a2.57,2.57,0,0,1,2.57-2.57Z" transform="translate(-9.25 11.58) rotate(-6.94)"/>
            <path class="cls-2" d="M75.19,79.37a3.58,3.58,0,0,1,3.12-4l23-2.8a3.59,3.59,0,0,1,4,3.11l1.52,12.51L76.71,91.88ZM103.33,76a1.57,1.57,0,0,0-1.75-1.38l-23,2.81a1.57,1.57,0,0,0-1.37,1.75l1.28,10.52,26.15-3.18Z"/>
          </g>
        </g>
        <g>
          <g>
            <path class="cls-4" d="M118,176.41l25-3a12.7,12.7,0,0,0-12.29-9.66,13.61,13.61,0,0,0-1.56.1A12.69,12.69,0,0,0,118,176.41Z"/>
            <path class="cls-2" d="M115.12,178.27a1.5,1.5,0,0,0,.56,1,1.47,1.47,0,0,0,.92.32h.19l28.13-3.43a1.5,1.5,0,0,0,1.31-1.67,15.67,15.67,0,1,0-31.11,3.79Zm2.88-1.86a12.69,12.69,0,0,1,11.14-12.61,13.61,13.61,0,0,1,1.56-.1A12.7,12.7,0,0,1,143,173.36Z"/>
          </g>
          <path class="cls-2" d="M104.74,165.3l3.61-4.51a2.78,2.78,0,1,0-4.34-3.48l-3.61,4.51-4.51-3.61a2.78,2.78,0,1,0-3.48,4.34l4.51,3.61-3.62,4.51a2.79,2.79,0,0,0,4.35,3.48l3.61-4.51,4.5,3.61a2.78,2.78,0,0,0,3.48-4.34Z"/>
          <path class="cls-2" d="M161,158.45l3.62-4.51a2.79,2.79,0,0,0-4.35-3.48L156.67,155l-4.5-3.62a2.79,2.79,0,0,0-3.48,4.35l4.5,3.61-3.61,4.5a2.78,2.78,0,0,0,4.34,3.48l3.61-4.5L162,166.4a2.78,2.78,0,1,0,3.48-4.34Z"/>
        </g>
      </g>
      <g>
        <g id="cuerpo-5" data-name="cuerpo">
          <g id="brazo_der" data-name="brazo der">
            <path class="cls-2" d="M243.8,195.86a3.29,3.29,0,0,0,.76-.09,3.5,3.5,0,0,0,2.66-4.18L221.75,77.53a3.5,3.5,0,0,0-6.83,1.52l25.46,114.07A3.51,3.51,0,0,0,243.8,195.86Z"/>
          </g>
          <g>
            <path class="cls-1" d="M186.33,209.67l-25-3A12.7,12.7,0,0,1,173.63,197a13.61,13.61,0,0,1,1.56.1A12.69,12.69,0,0,1,186.33,209.67Z"/>
            <path class="cls-1" d="M225.89,131.07l.31-2.53.12-1-28.14-3.42-.12,1-.31,2.53h0a42.5,42.5,0,0,0-47.33,37.06l-2.85,23.41-1,8.12L134.13,298.4a28.29,28.29,0,0,0,24.68,31.53l20.13,2.45,9.91,1.21,13.87,1.69,7,.85,5.45.66a28.32,28.32,0,0,0,31.53-24.68L263,178.41A42.51,42.51,0,0,0,225.89,131.07Zm-66.48,78.34a1.5,1.5,0,0,1-1.31-1.67,15.67,15.67,0,0,1,31.11,3.79,1.5,1.5,0,0,1-.56,1,1.47,1.47,0,0,1-.92.32h-.19Z"/>
            <path class="cls-2" d="M227,130.21l.19-1.55.24-2h0L197.31,123l-.24,2-.19,1.55a43.55,43.55,0,0,0-47.47,38L146.68,187l-1.23,10.13L133.13,298.28a29.34,29.34,0,0,0,25.56,32.64l18.94,2.31,10.63,1.29,14.24,1.73,7,.85,5.55.68a29.3,29.3,0,0,0,32.64-25.55L264,178.53A43.56,43.56,0,0,0,227,130.21Zm35,48.07L245.69,312a27.31,27.31,0,0,1-30.41,23.81l-5.35-.65-7-.85-13.83-1.69-8.87-1.08-21.31-2.59a26.94,26.94,0,0,1-10.83-3.75,27.37,27.37,0,0,1-13-26.67l12.37-101.61,1.16-9.47,2.75-22.62a41.55,41.55,0,0,1,46.21-36.19l1,.15.43-3.55,26.16,3.19-.43,3.52,1,.12A41.56,41.56,0,0,1,262,178.28Z"/>
          </g>
          <path class="cls-8" d="M255.93,177.55l-16.28,133.7A21.23,21.23,0,0,1,216,329.75l-56.36-6.86a21.25,21.25,0,0,1-18.5-23.63l16.28-133.7A35.41,35.41,0,0,1,175,139.14l70.3,8.56A35.39,35.39,0,0,1,255.93,177.55Z"/>
          <path class="cls-2" d="M228.3,128.77l-.34,0L196.3,124.9a2.79,2.79,0,0,1-2.41-3.09A2.75,2.75,0,0,1,197,119.4l31.66,3.85a2.77,2.77,0,0,1-.33,5.52Zm-31.66-7.39a.75.75,0,0,0-.76.67h0a.76.76,0,0,0,.67.86l31.65,3.85a.76.76,0,0,0,.57-.15.8.8,0,0,0,.29-.52.76.76,0,0,0-.67-.85l-31.66-3.86Z"/>
          <g>
            <path class="cls-1" d="M199.36,108.19h28.35a0,0,0,0,1,0,0v11.6a2.57,2.57,0,0,1-2.57,2.57h-23.2a2.57,2.57,0,0,1-2.57-2.57v-11.6a0,0,0,0,1,0,0Z" transform="translate(411.58 255.53) rotate(-173.06)"/>
            <path class="cls-2" d="M227.62,125.14l-30.12-3.67L199,109a3.59,3.59,0,0,1,4-3.12l23,2.81a3.56,3.56,0,0,1,3.11,4Zm-27.9-5.41,26.16,3.19,1.28-10.53a1.58,1.58,0,0,0-1.37-1.75l-23-2.8a1.56,1.56,0,0,0-1.75,1.37Z"/>
          </g>
        </g>
        <g>
          <g>
            <path class="cls-4" d="M186.33,209.67l-25-3A12.7,12.7,0,0,1,173.63,197a13.61,13.61,0,0,1,1.56.1A12.69,12.69,0,0,1,186.33,209.67Z"/>
            <path class="cls-2" d="M175.55,194.08a15.65,15.65,0,0,0-17.45,13.66,1.5,1.5,0,0,0,1.31,1.67l28.13,3.43h.19a1.47,1.47,0,0,0,.92-.32,1.5,1.5,0,0,0,.56-1A15.68,15.68,0,0,0,175.55,194.08Zm-14.21,12.54A12.7,12.7,0,0,1,173.63,197a13.61,13.61,0,0,1,1.56.1,12.69,12.69,0,0,1,11.14,12.61Z"/>
          </g>
          <path class="cls-2" d="M199.6,198.56,196,194.05a2.78,2.78,0,0,1,4.34-3.48l3.61,4.51,4.51-3.61a2.78,2.78,0,0,1,3.48,4.34l-4.51,3.61,3.61,4.51a2.78,2.78,0,0,1-4.34,3.48l-3.61-4.51-4.51,3.61a2.78,2.78,0,1,1-3.48-4.34Z"/>
          <path class="cls-2" d="M143.32,191.71l-3.61-4.51a2.78,2.78,0,0,1,4.34-3.48l3.61,4.51,4.51-3.61a2.78,2.78,0,0,1,3.48,4.34l-4.51,3.61,3.62,4.51a2.79,2.79,0,0,1-4.35,3.48l-3.61-4.51-4.5,3.61a2.78,2.78,0,1,1-3.48-4.34Z"/>
        </g>
      </g>
      <g>
        <polygon class="cls-9" points="442.51 272.14 430.15 286.31 430.15 272.14 442.51 272.14"/>
        <polygon class="cls-9" points="50.89 308.47 20.61 272.14 50.89 272.14 50.89 308.47"/>
        <path class="cls-9" d="M103,643.2c0-34.2-17.93-61.93-40-61.93h-12V562.59C132.3,552,119.83,690,118.21,705.22H88.52a34.83,34.83,0,0,1-13.74-2.85C91.1,694.55,103,671,103,643.2Z"/>
        <path class="cls-10" d="M50.89,562.59V272.14H81.54L97,312.31h3.93V272.14h56.85V664.37a40.85,40.85,0,0,0,40.85,40.85H118.21C119.83,690,132.3,552,50.89,562.59Z"/>
        <polygon class="cls-10" points="430.15 272.14 430.15 272.14 430.15 286.31 430.15 664.37 430.15 664.37 430.15 272.14"/>
        <path class="cls-11" d="M146,238.85H16.78A15.18,15.18,0,0,0,1.61,254V257a15.17,15.17,0,0,0,15.17,15.17H81.54l0-.05,4.09.05H146ZM20.58,255.16c0,5.93-3.62,10.73-8.09,10.73s-8.09-4.8-8.09-10.73S8,244.42,12.49,244.42,20.58,249.23,20.58,255.16Z"/>
        <path class="cls-12" d="M198.6,705.22h15.85V628.83c0-.62,0-1.23.05-1.85A87.27,87.27,0,0,1,389,627c0,.62,0,1.23,0,1.85v38.23h3.23a11,11,0,0,1,11,11v16.31a.28.28,0,0,1-.28.28H389.05v10.61h18.16a22.94,22.94,0,0,0,22.94-22.94V272.14H381.54l-15.43,40.17h-3.93V272.14h-91.6l-15.42,40.17h-3.93V272.14H157.75V664.37A40.85,40.85,0,0,0,198.6,705.22Zm52.13-335.75c-6.76-1.17-11.81.28-16,5.57C235.34,367.14,245.28,364.12,250.73,369.47Zm109,5.57c-4.18-5.29-9.23-6.75-16-5.57C349.17,364.12,359.11,367.14,359.71,375Zm-22.82,60.55c0-10.77,6.48-19.5,14.47-19.5s14.47,8.73,14.47,19.5-6.48,19.51-14.47,19.51S336.89,446.36,336.89,435.59ZM277.32,457c12.31,8.53,26.95,7.7,39.45,0-9.18,8.94-24.73,11.29-35.33,3.51A40.41,40.41,0,0,1,277.32,457ZM215,437.56c12.9-12.57,34.76-15.86,49.66-4.93a55.32,55.32,0,0,1,5.78,4.93C253.16,425.58,232.58,426.74,215,437.56Zm-.56-10.17c14.7-10.4,36.81-10.24,49.82,2.88a56.71,56.71,0,0,1,4.94,5.77C254,421.51,233.5,419.45,214.45,427.39Z"/>
        <polygon class="cls-13" points="362.18 312.31 362.18 272.14 377.47 272.14 362.18 312.31"/>
        <polygon class="cls-14" points="214.45 694.61 245.53 694.61 372.45 694.61 389.05 694.61 389.05 705.22 389.05 705.25 343.96 705.25 259.54 705.25 214.45 705.25 214.45 705.22 214.45 694.61"/>
        <path class="cls-14" d="M256.21,667.06H214.45V628.83c0-.62,0-1.23.05-1.85A87.27,87.27,0,0,1,389,627c0,.62,0,1.23,0,1.85v38.23H256.21Z"/>
        <path class="cls-15" d="M245.24,678v16.31a.29.29,0,0,0,.29.28H214.45V667.06h41.76A11,11,0,0,0,245.24,678Z"/>
        <path class="cls-16" d="M12.49,265.89c-4.47,0-8.09-4.8-8.09-10.73S8,244.42,12.49,244.42s8.09,4.81,8.09,10.74S17,265.89,12.49,265.89Z"/>
        <path class="cls-17" d="M80.1,643.2c0-34.2-17.93-61.93-40-61.93H62.91C85,581.27,103,609,103,643.2c0,27.82-11.86,51.35-28.18,59.17a27.27,27.27,0,0,1-11.87,2.77H40.05C62.17,705.14,80.1,677.41,80.1,643.2Z"/>
        <path class="cls-17" d="M39.3,581.27h.75c-.25,0-.49.05-.75.06Z"/>
        <path class="cls-18" d="M0,643.2c0,34.21,17.93,61.94,40.05,61.94S80.1,677.41,80.1,643.2s-17.93-61.93-40-61.93c-.25,0-.49.05-.75.06C17.53,582,0,609.39,0,643.2Zm22.86,0c0-14.68,7.7-26.58,17.19-26.58s17.2,11.9,17.2,26.58-7.7,26.59-17.2,26.59S22.86,657.89,22.86,643.2Z"/>
        <ellipse class="cls-16" cx="40.05" cy="643.2" rx="17.2" ry="26.59"/>
        <path class="cls-14" d="M430.15,272.14H381.54l0-.05-4.09.05H270.58l0-.05-4.09.05H146V238.85H453.81a3.71,3.71,0,0,1,3.7,3.71v25.88a3.7,3.7,0,0,1-3.7,3.7H430.15Z"/>
        <polygon class="cls-9" points="381.56 272.09 381.54 272.14 366.11 312.31 362.18 312.31 377.47 272.14 381.56 272.09"/>
        <polygon class="cls-13" points="251.23 312.31 251.23 272.14 266.52 272.14 251.23 312.31"/>
        <polygon class="cls-9" points="270.61 272.09 270.58 272.14 255.16 312.31 251.23 312.31 266.52 272.14 270.61 272.09"/>
        <polygon class="cls-13" points="100.9 272.14 100.9 312.31 85.61 272.14 100.9 272.14"/>
        <polygon class="cls-9" points="85.61 272.14 100.9 312.31 96.97 312.31 81.54 272.14 81.52 272.09 85.61 272.14"/>
        <path class="cls-9" d="M245.53,694.61a.29.29,0,0,1-.29-.28V678a11,11,0,0,1,11-11H392.28a11,11,0,0,1,11,11v16.31a.28.28,0,0,1-.28.28H245.53Z"/>
        <path d="M316.77,457c-9.18,8.94-24.73,11.29-35.33,3.51a40.41,40.41,0,0,1-4.12-3.51C289.63,465.53,304.27,464.7,316.77,457Z"/>
        <path d="M343.72,369.47c5.45-5.35,15.39-2.33,16,5.57C355.53,369.75,350.48,368.29,343.72,369.47Z"/>
        <path d="M234.74,375c.6-7.9,10.54-10.92,16-5.57C244,368.3,238.92,369.75,234.74,375Z"/>
        <path d="M336.89,435.59c0,10.77,6.48,19.51,14.47,19.51s14.47-8.74,14.47-19.51-6.48-19.5-14.47-19.5S336.89,424.82,336.89,435.59Zm10.74-10.29a4.18,4.18,0,1,1,4.17,4.49A4.34,4.34,0,0,1,347.63,425.3Z"/>
        <path class="cls-1" d="M351.8,420.8a4.51,4.51,0,1,1-4.17,4.5A4.34,4.34,0,0,1,351.8,420.8Z"/>
        <path d="M264.67,432.63a55.32,55.32,0,0,1,5.78,4.93c-17.29-12-37.87-10.82-55.44,0C227.91,425,249.77,421.7,264.67,432.63Z"/>
        <path d="M264.27,430.27a56.71,56.71,0,0,1,4.94,5.77c-15.21-14.53-35.71-16.59-54.76-8.65C229.15,417,251.26,417.15,264.27,430.27Z"/>
      </g>
      <g id="brazo_der-2" data-name="brazo der">
        <path class="cls-2" d="M373,332.78a4.11,4.11,0,0,1-.77-.08,3.5,3.5,0,0,1-2.65-4.18L395,214.45a3.5,3.5,0,1,1,6.83,1.53L376.38,330A3.5,3.5,0,0,1,373,332.78Z"/>
      </g>
      <g id="brazo_der-3" data-name="brazo der">
        <path class="cls-2" d="M98.6,308.11a3.44,3.44,0,0,0,.77-.09,3.5,3.5,0,0,0,2.65-4.18L76.55,189.78a3.5,3.5,0,1,0-6.83,1.52L95.19,305.37A3.5,3.5,0,0,0,98.6,308.11Z"/>
      </g>
    </g>
  </g>
</svg>
