<svg xmlns="http://www.w3.org/2000/svg" xmlns:xlink="http://www.w3.org/1999/xlink" viewBox="0 0 1288.1 685.19">
  <defs>
    <style>
      .cls-1 {
        fill: #2d525e;
      }

      .cls-2 {
        fill: #fff;
      }

      .cls-3, .cls-33, .cls-34, .cls-35 {
        opacity: 0.5;
      }

      .cls-3 {
        fill: url(#Degradado_sin_nombre_8);
      }

      .cls-4 {
        fill: #4b8a98;
      }

      .cls-5 {
        fill: #233261;
      }

      .cls-6 {
        fill: #1f2c52;
      }

      .cls-7 {
        fill: #223463;
      }

      .cls-8 {
        fill: #1a408a;
      }

      .cls-9 {
        fill: #203c7b;
      }

      .cls-10 {
        fill: #213b7e;
      }

      .cls-11 {
        fill: #1d284b;
      }

      .cls-12 {
        fill: #224d9b;
      }

      .cls-13 {
        fill: #19213b;
      }

      .cls-14 {
        fill: #0c6533;
      }

      .cls-15 {
        fill: #006d36;
      }

      .cls-16 {
        fill: #207341;
      }

      .cls-17 {
        fill: #1c5127;
      }

      .cls-18 {
        fill: #167f3f;
      }

      .cls-19 {
        fill: #16803b;
      }

      .cls-20 {
        fill: #159c4f;
      }

      .cls-21 {
        fill: #05602d;
      }

      .cls-22 {
        fill: #1e1e1e;
      }

      .cls-23 {
        fill: #171b1a;
      }

      .cls-24 {
        fill: #646463;
      }

      .cls-25 {
        fill: #727272;
      }

      .cls-26 {
        fill: #6e6e6e;
      }

      .cls-27 {
        fill: #818282;
      }

      .cls-28 {
        fill: #a3a3a3;
      }

      .cls-29 {
        fill: #b7b6b6;
      }

      .cls-30 {
        fill: #d7d7d7;
      }

      .cls-31 {
        fill: #434444;
      }

      .cls-32 {
        fill: #f19194;
      }

      .cls-33 {
        fill: url(#Degradado_sin_nombre_8-2);
      }

      .cls-34 {
        fill: url(#Degradado_sin_nombre_8-3);
      }

      .cls-35 {
        fill: url(#Degradado_sin_nombre_8-4);
      }
    </style>
    <linearGradient id="Degradado_sin_nombre_8" data-name="Degradado sin nombre 8" x1="3582.56" y1="926.81" x2="3582.56" y2="742.56" gradientTransform="matrix(-0.99, -0.12, -0.12, 0.99, 3774.02, 111.38)" gradientUnits="userSpaceOnUse">
      <stop offset="0" stop-color="#6ccef5" stop-opacity="0.5"/>
      <stop offset="1" stop-color="#6ccef5" stop-opacity="0"/>
    </linearGradient>
    <linearGradient id="Degradado_sin_nombre_8-2" x1="1212" y1="795.52" x2="1212" y2="611.27" gradientTransform="translate(62.73 -307.88) rotate(5.95)" xlink:href="#Degradado_sin_nombre_8"/>
    <linearGradient id="Degradado_sin_nombre_8-3" x1="3887" y1="4072.25" x2="3887" y2="3888" gradientTransform="matrix(0, -1, -1, 0, 4476.34, 4476.34)" xlink:href="#Degradado_sin_nombre_8"/>
    <linearGradient id="Degradado_sin_nombre_8-4" x1="4410.75" y1="299.22" x2="4410.75" y2="114.97" gradientTransform="translate(430.52 4476.34) rotate(-90)" xlink:href="#Degradado_sin_nombre_8"/>
  </defs>
  <g id="_3" data-name="3">
    <g>
      <g>
        <g id="pierna_der" data-name="pierna der">
          <g>
            <path class="cls-1" d="M4.62,571.75l3.53-.37c5.84-.62,11.19,4.79,12,12.09h0a14.91,14.91,0,0,1-2.5,10.23h0l.78,7.39c.28,2.64-1.21,5-3.32,5.19L8.36,607h0l-3.53.37h0L1.1,572.12l3.52-.37Z"/>
            <path class="cls-1" d="M3.94,608.46,0,571.24l8-.86c6.39-.67,12.24,5.15,13.07,13a16.05,16.05,0,0,1-2.44,10.57l.74,7a6.43,6.43,0,0,1-.91,4.15,4.49,4.49,0,0,1-3.3,2.15ZM2.2,573l3.52,33.25,9.27-1A2.52,2.52,0,0,0,16.81,604a4.36,4.36,0,0,0,.61-2.86l-.61-5.8-3,1.86,3-4.13a14,14,0,0,0,2.31-9.53c-.71-6.74-5.59-11.77-10.87-11.21Z"/>
          </g>
          <path class="cls-1" d="M18.18,602.32a3.5,3.5,0,0,1-.37-7l56.38-6a3.5,3.5,0,0,1,.74,7l-56.38,6Z"/>
        </g>
        <g id="cuerpo">
          <g>
            <path class="cls-2" d="M104.2,481.76l-25-3.05a12.7,12.7,0,0,1,12.29-9.66,13.61,13.61,0,0,1,1.56.1A12.69,12.69,0,0,1,104.2,481.76Z"/>
            <path class="cls-2" d="M143.76,403.16l.31-2.53.12-1-28.14-3.42-.12,1-.31,2.53h0a42.5,42.5,0,0,0-47.33,37.06L65.43,460.2l-1,8.12L52,570.49A28.29,28.29,0,0,0,76.68,602l20.13,2.45,9.91,1.21,13.87,1.69,7,.85,5.45.66a28.32,28.32,0,0,0,31.53-24.68l16.27-133.7A42.51,42.51,0,0,0,143.76,403.16ZM77.28,481.5A1.5,1.5,0,0,1,76,479.83a15.67,15.67,0,0,1,31.11,3.79,1.5,1.5,0,0,1-.56,1,1.47,1.47,0,0,1-.92.32h-.19Z"/>
            <path class="cls-1" d="M144.88,402.3l.19-1.55.24-2h0l-30.13-3.67-.24,2-.19,1.55a43.55,43.55,0,0,0-47.47,38l-2.73,22.42-1.23,10.13L51,570.37A29.34,29.34,0,0,0,76.56,603l18.94,2.31,10.63,1.29,14.24,1.73,7,.85,5.55.68a29.3,29.3,0,0,0,32.64-25.55l16.28-133.7A43.56,43.56,0,0,0,144.88,402.3Zm35,48.07L163.56,584.08a27.31,27.31,0,0,1-30.41,23.81l-5.35-.65-7-.85L107,604.7l-8.87-1.08L76.8,601A26.94,26.94,0,0,1,66,597.28a27.37,27.37,0,0,1-13-26.67L65.36,469l1.16-9.47,2.75-22.62a41.55,41.55,0,0,1,46.21-36.19l1,.15.43-3.55,26.16,3.19-.43,3.52,1,.12A41.56,41.56,0,0,1,179.84,450.37Z"/>
          </g>
          <path class="cls-3" d="M173.8,449.63,157.52,583.34a21.26,21.26,0,0,1-23.63,18.5L77.53,595A21.26,21.26,0,0,1,59,571.35L75.31,437.64a35.37,35.37,0,0,1,17.52-26.41l70.3,8.56A35.37,35.37,0,0,1,173.8,449.63Z"/>
          <path class="cls-1" d="M146.17,400.86l-.34,0L114.17,397a2.77,2.77,0,0,1-1.37-4.93,2.73,2.73,0,0,1,2-.57l31.66,3.86a2.77,2.77,0,0,1-.33,5.52Zm-31.67-7.4a.76.76,0,0,0-.76.68h0a.78.78,0,0,0,.16.57.8.8,0,0,0,.51.29l31.66,3.85a.74.74,0,0,0,.57-.16.76.76,0,0,0,.29-.51.77.77,0,0,0-.67-.86l-31.66-3.85Z"/>
          <g>
            <path class="cls-2" d="M117.23,380.28h28.35a0,0,0,0,1,0,0v11.6a2.57,2.57,0,0,1-2.57,2.57H119.8a2.57,2.57,0,0,1-2.57-2.57v-11.6A0,0,0,0,1,117.23,380.28Z" transform="translate(215.03 787.78) rotate(-173.06)"/>
            <path class="cls-1" d="M145.49,397.23l-30.12-3.67,1.52-12.51a3.58,3.58,0,0,1,4-3.11l23,2.8a3.58,3.58,0,0,1,3.11,4Zm-27.9-5.41L143.75,395,145,384.48a1.57,1.57,0,0,0-1.37-1.75l-23-2.81a1.58,1.58,0,0,0-1.75,1.37Z"/>
          </g>
        </g>
        <g id="brazo_der" data-name="brazo der">
          <path class="cls-1" d="M123.6,613.45a3.27,3.27,0,0,1-.76-.08,3.5,3.5,0,0,1-2.66-4.18l25.47-114.07a3.5,3.5,0,1,1,6.83,1.53L127,610.72A3.5,3.5,0,0,1,123.6,613.45Z"/>
        </g>
        <g id="pierna_izq" data-name="pierna izq">
          <g>
            <path class="cls-1" d="M48.58,612.15l3-1.93a10.62,10.62,0,0,1,16,11.73v0l3.24,5a3.87,3.87,0,0,1-1.14,5.33L64,635.93h0l-3,1.92h0L45.61,614.07l3-1.92Z"/>
            <path class="cls-1" d="M60.73,639.25l-16.5-25.47L48,611.31h0l3-1.93a11.62,11.62,0,0,1,17.65,12.36l3,4.64a4.84,4.84,0,0,1-1.43,6.71ZM47,614.37l14.33,22.11,7.82-5.07a2.82,2.82,0,0,0,1.24-1.8,2.86,2.86,0,0,0-.39-2.15l-2.45-3.77-2.35,3.23,1.42-5.23A9.62,9.62,0,0,0,52.1,611.06Z"/>
          </g>
          <path class="cls-1" d="M67.82,630.92a3.5,3.5,0,0,1-1.91-6.43l35.7-23.14a3.5,3.5,0,1,1,3.8,5.88L69.72,630.36A3.5,3.5,0,0,1,67.82,630.92Z"/>
        </g>
        <g>
          <g>
            <path class="cls-4" d="M104.2,481.76l-25-3.05a12.7,12.7,0,0,1,12.29-9.66,13.61,13.61,0,0,1,1.56.1A12.69,12.69,0,0,1,104.2,481.76Z"/>
            <path class="cls-1" d="M93.42,466.17A15.65,15.65,0,0,0,76,479.83a1.5,1.5,0,0,0,1.31,1.67l28.13,3.43h.19a1.47,1.47,0,0,0,.92-.32,1.5,1.5,0,0,0,.56-1A15.68,15.68,0,0,0,93.42,466.17ZM79.21,478.71a12.7,12.7,0,0,1,12.29-9.66,13.61,13.61,0,0,1,1.56.1,12.69,12.69,0,0,1,11.14,12.61Z"/>
          </g>
          <path class="cls-1" d="M117.47,470.65l-3.61-4.51a2.78,2.78,0,0,1,4.34-3.48l3.61,4.51,4.5-3.61a2.78,2.78,0,1,1,3.48,4.34l-4.5,3.61,3.61,4.5a2.78,2.78,0,1,1-4.34,3.48L121,475l-4.51,3.61a2.78,2.78,0,0,1-3.48-4.34Z"/>
          <path class="cls-1" d="M61.19,463.79l-3.61-4.5a2.78,2.78,0,0,1,4.34-3.48l3.61,4.51L70,456.7a2.79,2.79,0,0,1,3.48,4.35L69,464.66l3.61,4.5a2.78,2.78,0,1,1-4.34,3.48l-3.61-4.5-4.51,3.61a2.78,2.78,0,1,1-3.48-4.34Z"/>
        </g>
      </g>
      <g>
        <polygon class="cls-5" points="151.56 177.53 164 191.78 164 177.53 151.56 177.53"/>
        <path class="cls-5" d="M493,590.18v-18h0V495.64c-22.51,38.66-16.28,107.14-15.16,117.62h29.88a34.92,34.92,0,0,0,4.59-.32A23.07,23.07,0,0,1,493,590.18Z"/>
        <path class="cls-6" d="M493,495.64V191.78l-12.44-14.25h-42.5V572.15A41.11,41.11,0,0,1,397,613.26h80.88C476.72,602.78,470.49,534.3,493,495.64Z"/>
        <path class="cls-7" d="M446.49,128.71V144h34.07V128.71a9.43,9.43,0,0,1,9.43-9.43H437.07A9.43,9.43,0,0,1,446.49,128.71Z"/>
        <path class="cls-8" d="M465.47,173.8v-26A3.73,3.73,0,0,1,469.2,144H449.89v33.5H469.2A3.73,3.73,0,0,1,465.47,173.8Z"/>
        <path class="cls-9" d="M438.06,572.15V177.53H344v40.41h-3.95l-15.52-40.41H232.38v40.41h-3.95L212.9,177.53H164V590.18a23.09,23.09,0,0,0,23.08,23.08h18.27V602.57h-14a.27.27,0,0,1-.28-.28v-16.4a11,11,0,0,1,11-11h3.24V536.39c0-.62,0-1.24,0-1.86a87.8,87.8,0,0,1,175.57,0c0,.62.05,1.24.05,1.86v76.87H397A41.11,41.11,0,0,0,438.06,572.15ZM240.74,314.41c-7.75,0-14-8.47-14-18.91s6.28-18.91,14-18.91a10.54,10.54,0,0,1,3.53.63,42.76,42.76,0,0,0-24.79-8.94,31.67,31.67,0,0,1,31.89,14.91,19.9,19.9,0,0,1,1.2,2.18c.17.34.34.69.49,1l-.06-.09a24.18,24.18,0,0,1,1.76,9.18C254.76,305.94,248.48,314.41,240.74,314.41Zm35,9.9c8.9-8.67,24-10.94,34.26-3.4a39,39,0,0,1,4,3.4C302.07,316.05,287.87,316.85,275.75,324.31Zm70.31-47.72c7.75,0,14,8.47,14,18.91s-6.28,18.91-14,18.91-14-8.47-14-18.91a24.29,24.29,0,0,1,1.32-8l-.06.07.12-.25a18.2,18.2,0,0,1,5.28-7.93,31.66,31.66,0,0,1,28.19-9.95,43.2,43.2,0,0,0-22.47,7.25A11.24,11.24,0,0,1,346.06,276.59Z"/>
        <path class="cls-10" d="M435.22,144h11.27V128.71a9.43,9.43,0,0,0-9.42-9.43H161a9.43,9.43,0,0,0-9.43,9.43V144H435.22Z"/>
        <polygon class="cls-11" points="232.38 217.94 232.38 177.53 216.99 177.53 232.38 217.94"/>
        <polygon class="cls-12" points="381.01 602.57 349.75 602.57 222.05 602.57 205.34 602.57 205.34 613.25 205.34 613.28 250.71 613.28 335.65 613.28 381.01 613.28 381.01 613.25 381.01 602.57"/>
        <path class="cls-12" d="M339,574.85h42V536.39c0-.62,0-1.24-.05-1.86a87.8,87.8,0,0,0-175.57,0c0,.62,0,1.24,0,1.86v38.46H339Z"/>
        <path class="cls-13" d="M350,585.89v16.4a.28.28,0,0,1-.28.28H381V574.85H339A11,11,0,0,1,350,585.89Z"/>
        <path class="cls-12" d="M186.82,177.53H212.9l0-.06,4.11.06H324.54l0-.06,4.11.06H449.89V144H140.19a3.73,3.73,0,0,0-3.72,3.73v26a3.73,3.73,0,0,0,3.72,3.73h46.63Z"/>
        <polygon class="cls-5" points="212.88 177.47 212.9 177.53 228.43 217.94 232.38 217.94 216.99 177.53 212.88 177.47"/>
        <polygon class="cls-11" points="344.01 217.94 344.01 177.53 328.63 177.53 344.01 217.94"/>
        <polygon class="cls-5" points="324.51 177.47 324.54 177.53 340.06 217.94 344.01 217.94 328.63 177.53 324.51 177.47"/>
        <path class="cls-5" d="M349.75,602.57a.28.28,0,0,0,.28-.28v-16.4a11,11,0,0,0-11-11H202.1a11,11,0,0,0-11,11v16.4a.27.27,0,0,0,.28.28h158.4Z"/>
        <polygon class="cls-14" points="480.56 177.53 493 191.78 493 177.53 480.56 177.53"/>
        <path class="cls-14" d="M822,590V572h0V495.64c-22.51,38.66-16.27,107.14-15.16,117.62h29.88a35.08,35.08,0,0,0,5.15-.39A23.09,23.09,0,0,1,822,590Z"/>
        <path class="cls-15" d="M822,495.64v-304l-12.3-14.09H767.07V572.15A41.12,41.12,0,0,1,726,613.26h80.88C805.73,602.78,799.49,534.3,822,495.64Z"/>
        <polygon class="cls-15" points="493 191.78 493 495.64 493 572.15 493 572.15 493 177.53 493 177.53 493 191.78"/>
        <path class="cls-16" d="M775.5,128.71V144h21.67a3.89,3.89,0,0,1,1-.16h11.36V128.54a9.42,9.42,0,0,1,7.73-9.26H766.07A9.43,9.43,0,0,1,775.5,128.71Z"/>
        <path class="cls-17" d="M798.2,177.37a3.73,3.73,0,0,1-3.73-3.73v-26a3.73,3.73,0,0,1,2.7-3.57H778.89v33.5H809.7l-.14-.16Z"/>
        <path class="cls-18" d="M767.07,572.15V177.53H673v40.41h-4l-15.52-40.41H561.38v40.41h-4l-15.52-40.41H493V590.18a23.07,23.07,0,0,0,19.31,22.76,22.21,22.21,0,0,0,3.77.32h18.27V602.57h-14a.28.28,0,0,1-.28-.28v-16.4a11,11,0,0,1,11-11h3.25V536.39c0-.62,0-1.24,0-1.86a87.81,87.81,0,0,1,175.58,0c0,.62,0,1.24,0,1.86v76.87h16A41.12,41.12,0,0,0,767.07,572.15ZM567.88,335.66a14.22,14.22,0,1,1,0-28.43,14.94,14.94,0,0,1,3.87.52,42.77,42.77,0,0,0-24.28-8.55,31.65,31.65,0,0,1,28.82,10.65,14.09,14.09,0,0,1,6.15,11.59A14.4,14.4,0,0,1,567.88,335.66Zm35.87,15.79c8.89-8.67,24-10.94,34.25-3.4a39.14,39.14,0,0,1,4,3.4C630.06,343.19,615.87,344,603.75,351.45Zm73.43-44.22a14.22,14.22,0,1,1-14.56,14.21,14,14,0,0,1,4-9.73,31.68,31.68,0,0,1,30.31-12.51,42.7,42.7,0,0,0-24.8,8.94A14.73,14.73,0,0,1,677.18,307.23Z"/>
        <path class="cls-19" d="M480.56,128.71V144H775.5V128.71a9.43,9.43,0,0,0-9.43-9.43H490A9.43,9.43,0,0,0,480.56,128.71Z"/>
        <polygon class="cls-14" points="561.38 217.94 561.38 177.53 546 177.53 561.38 217.94"/>
        <polygon class="cls-20" points="710.01 602.57 678.75 602.57 551.05 602.57 534.35 602.57 534.35 613.25 534.35 613.28 579.71 613.28 664.65 613.28 710.01 613.28 710.01 613.25 710.01 602.57"/>
        <path class="cls-20" d="M551.05,574.85H710V536.39c0-.62,0-1.24,0-1.86a87.81,87.81,0,0,0-175.58,0c0,.62,0,1.24,0,1.86v38.46Z"/>
        <path class="cls-21" d="M679,585.89v16.4a.27.27,0,0,1-.28.28H710V574.85H668A11,11,0,0,1,679,585.89Z"/>
        <path class="cls-22" d="M884.11,613.12H863.35v0h-3.82a26.4,26.4,0,0,0,3,.19h23v-.11h0C885,613.17,884.57,613.14,884.11,613.12Z"/>
        <path class="cls-23" d="M884.11,613.12c.46,0,.91,0,1.37,0h0c.46,0,.91,0,1.37,0Z"/>
        <path class="cls-20" d="M775.5,144H469.2a3.73,3.73,0,0,0-3.73,3.73v26a3.73,3.73,0,0,0,3.73,3.73h72.71l0-.06,4.12.06H653.54l0-.06,4.11.06H778.89V144Z"/>
        <polygon class="cls-16" points="546 177.53 541.88 177.47 541.91 177.53 557.43 217.94 561.38 217.94 546 177.53"/>
        <polygon class="cls-14" points="673.01 217.94 673.01 177.53 657.63 177.53 673.01 217.94"/>
        <polygon class="cls-16" points="653.52 177.47 653.54 177.53 669.06 217.94 673.01 217.94 657.63 177.53 653.52 177.47"/>
        <path class="cls-14" d="M678.75,602.57a.27.27,0,0,0,.28-.28v-16.4a11,11,0,0,0-11-11H531.1a11,11,0,0,0-11,11v16.4a.28.28,0,0,0,.28.28h158.4Z"/>
        <polygon class="cls-24" points="822 177.37 809.56 177.37 809.7 177.53 822 191.62 822 177.37"/>
        <polygon class="cls-24" points="1203.58 213.92 1234.04 177.37 1203.58 177.37 1203.58 213.92"/>
        <path class="cls-24" d="M1151.19,550.7c0-34.42,18-62.32,40.29-62.32h12.1v-18.8c-81.91-10.66-69.36,128.22-67.73,143.51h29.87a35.27,35.27,0,0,0,13.86-2.85C1163.13,602.39,1151.19,578.7,1151.19,550.7Z"/>
        <path class="cls-25" d="M1203.58,469.58V177.37h-30.84l-15.52,40.41h-4V177.37h-57.2V572a41.1,41.1,0,0,1-41.11,41.1h80.89C1134.22,597.8,1121.67,458.92,1203.58,469.58Z"/>
        <path class="cls-26" d="M1104.5,128.54v15.33h114.62V128.54a9.43,9.43,0,0,0-9.43-9.42H1095.07A9.43,9.43,0,0,1,1104.5,128.54Z"/>
        <path class="cls-27" d="M1107.89,177.37h60.76l4.11-.06,0,.06h65.15a15.27,15.27,0,0,0,15.27-15.27v-3a15.27,15.27,0,0,0-15.27-15.27h-130Zm134.32-27.9c4.5,0,8.15,4.84,8.15,10.81s-3.65,10.8-8.15,10.8-8.14-4.84-8.14-10.8S1237.72,149.47,1242.21,149.47Z"/>
        <path class="cls-28" d="M1096.07,572V177.37H1002v40.41h-4l-15.52-40.41H890.38v40.41h-4l-15.52-40.41H822V590a23.09,23.09,0,0,0,19.87,22.86,24.26,24.26,0,0,0,3.21.22h18.27V602.41h-14a.28.28,0,0,1-.29-.28V585.72a11,11,0,0,1,11-11h3.25V536.23c0-.62,0-1.24,0-1.86a87.81,87.81,0,0,1,175.58,0c0,.62,0,1.24,0,1.86v76.86H1055A41.1,41.1,0,0,0,1096.07,572ZM904.47,334.68c-4.55,0-8.23-1.6-8.23-3.59s3.68-3.59,8.23-3.59,8.23,1.61,8.23,3.59S909,334.68,904.47,334.68Zm.77-9.43a14.22,14.22,0,1,1,0-28.43,14.58,14.58,0,0,1,3.87.53,42.74,42.74,0,0,0-24.28-8.56,31.67,31.67,0,0,1,28.82,10.66A14.1,14.1,0,0,1,919.8,311,14.39,14.39,0,0,1,905.24,325.25Zm41-9.29c11.17-5.44,26.2-2.87,33.59,7.52a37.63,37.63,0,0,1,2.72,4.48C973.78,316.37,960.05,312.68,946.2,316Zm68,18.72c-4.55,0-8.23-1.6-8.23-3.59s3.68-3.59,8.23-3.59,8.23,1.61,8.23,3.59S1018.75,334.68,1014.2,334.68Zm.33-37.86A14.22,14.22,0,1,1,1000,311a14,14,0,0,1,4-9.73,31.68,31.68,0,0,1,30.3-12.52,42.82,42.82,0,0,0-24.8,8.94A14.81,14.81,0,0,1,1014.53,296.82Z"/>
        <path class="cls-29" d="M809.56,128.54v15.33H1104.5V128.54a9.43,9.43,0,0,0-9.43-9.42H819a9.51,9.51,0,0,0-1.7.16A9.42,9.42,0,0,0,809.56,128.54Z"/>
        <polygon class="cls-30" points="1039.02 602.41 1007.75 602.41 880.05 602.41 863.35 602.41 863.35 613.09 863.35 613.12 884.11 613.12 886.85 613.12 908.71 613.12 993.65 613.12 1039.02 613.12 1039.02 613.09 1039.02 602.41"/>
        <path class="cls-30" d="M880.05,574.69h159V536.23c0-.62,0-1.24,0-1.86a87.81,87.81,0,0,0-175.58,0c0,.62,0,1.24,0,1.86v38.46Z"/>
        <path class="cls-31" d="M1008,585.72v16.41a.28.28,0,0,1-.29.28H1039V574.69H997A11,11,0,0,1,1008,585.72Z"/>
        <path class="cls-28" d="M1242.21,171.08c4.5,0,8.15-4.84,8.15-10.8s-3.65-10.81-8.15-10.81-8.14,4.84-8.14,10.81S1237.72,171.08,1242.21,171.08Z"/>
        <path class="cls-22" d="M1174.18,550.7c0-34.42,18-62.32,40.3-62.32h-23c-22.25,0-40.29,27.9-40.29,62.32,0,28,11.94,51.69,28.39,59.54a27.4,27.4,0,0,0,11.9,2.77h23C1192.23,613,1174.18,585.11,1174.18,550.7Z"/>
        <path class="cls-22" d="M1215.24,488.38h-.76c.25,0,.5,0,.76,0Z"/>
        <path class="cls-23" d="M1215.24,488.41c-.26,0-.51,0-.76,0-22.25,0-40.3,27.9-40.3,62.32s18,62.31,40.3,62.31,40.3-27.9,40.3-62.31C1254.78,516.67,1237.14,489,1215.24,488.41Zm-.76,89c-9.55,0-17.3-12-17.3-26.75s7.75-26.76,17.3-26.76,17.3,12,17.3,26.76S1224,577.45,1214.48,577.45Z"/>
        <ellipse class="cls-28" cx="1214.48" cy="550.7" rx="17.3" ry="26.75"/>
        <path class="cls-30" d="M1104.5,143.87H798.2a3.89,3.89,0,0,0-1,.16,3.73,3.73,0,0,0-2.7,3.57v26a3.73,3.73,0,0,0,3.73,3.73h72.71l0-.06,4.11.06H982.54l0-.06,4.11.06h121.26v-33.5Z"/>
        <polygon class="cls-24" points="870.89 177.31 870.91 177.37 886.43 217.78 890.38 217.78 890.38 177.37 875 177.37 870.89 177.31"/>
        <polygon class="cls-24" points="982.52 177.31 982.54 177.37 998.06 217.78 1002.01 217.78 1002.01 177.37 986.63 177.37 982.52 177.31"/>
        <polygon class="cls-24" points="1168.65 177.37 1153.27 177.37 1153.27 217.78 1157.22 217.78 1172.74 177.37 1172.76 177.31 1168.65 177.37"/>
        <path class="cls-24" d="M1007.75,602.41a.28.28,0,0,0,.29-.28V585.72a11,11,0,0,0-11-11H860.1a11,11,0,0,0-11,11v16.41a.28.28,0,0,0,.29.28h158.39Z"/>
        <path d="M275.75,324.31c12.12-7.46,26.32-8.26,38.25,0a39,39,0,0,0-4-3.4C299.73,313.37,284.65,315.64,275.75,324.31Z"/>
        <path d="M244.27,277.22a10.54,10.54,0,0,0-3.53-.63c-7.75,0-14,8.47-14,18.91s6.28,18.91,14,18.91,14-8.47,14-18.91a24.18,24.18,0,0,0-1.76-9.18A46.15,46.15,0,0,0,244.27,277.22Zm-4,12.66a4.37,4.37,0,1,1,4.05-4.36A4.21,4.21,0,0,1,240.31,289.88Z"/>
        <path d="M251.37,283.19c.43.71.83,1.44,1.2,2.18A19.9,19.9,0,0,0,251.37,283.19Z"/>
        <ellipse class="cls-2" cx="240.31" cy="285.52" rx="4.04" ry="4.36"/>
        <path d="M333.41,287.36a31,31,0,0,1,5.28-7.93A18.2,18.2,0,0,0,333.41,287.36Z"/>
        <path d="M333.35,287.54a24.29,24.29,0,0,0-1.32,8c0,10.44,6.28,18.91,14,18.91s14-8.47,14-18.91-6.28-18.91-14-18.91a11.24,11.24,0,0,0-1.65.14A44.76,44.76,0,0,0,333.35,287.54Zm12.71-6.38a4.37,4.37,0,1,1-4.05,4.36A4.21,4.21,0,0,1,346.06,281.16Z"/>
        <path class="cls-2" d="M346.06,289.88a4.37,4.37,0,1,0-4.05-4.36A4.21,4.21,0,0,0,346.06,289.88Z"/>
        <path d="M253,286.32l.06.09c-.15-.35-.32-.7-.49-1-.37-.74-.77-1.47-1.2-2.18a31.67,31.67,0,0,0-31.89-14.91,42.76,42.76,0,0,1,24.79,8.94A46.15,46.15,0,0,1,253,286.32Z"/>
        <path d="M338.69,279.43a31,31,0,0,0-5.28,7.93l-.12.25.06-.07a44.76,44.76,0,0,1,11.06-10.81,43.2,43.2,0,0,1,22.47-7.25A31.66,31.66,0,0,0,338.69,279.43Z"/>
        <path class="cls-32" d="M904.47,327.5c-4.55,0-8.23,1.61-8.23,3.59s3.68,3.59,8.23,3.59,8.23-1.6,8.23-3.59S909,327.5,904.47,327.5Z"/>
        <path class="cls-32" d="M1014.2,327.5c-4.55,0-8.23,1.61-8.23,3.59s3.68,3.59,8.23,3.59,8.23-1.6,8.23-3.59S1018.75,327.5,1014.2,327.5Z"/>
        <path d="M913.65,299.45a30.74,30.74,0,0,1,4.76,7.47,45.53,45.53,0,0,0-9.3-9.57,14.58,14.58,0,0,0-3.87-.53A14.22,14.22,0,1,0,919.8,311,14.1,14.1,0,0,0,913.65,299.45Zm-8.85,7.36c-2.32,0-4.2-1.46-4.2-3.28s1.88-3.27,4.2-3.27,4.19,1.46,4.19,3.27S907.12,306.81,904.8,306.81Z"/>
        <path class="cls-2" d="M904.8,300.26c-2.32,0-4.2,1.46-4.2,3.27s1.88,3.28,4.2,3.28,4.19-1.46,4.19-3.28S907.12,300.26,904.8,300.26Z"/>
        <path d="M1000.66,306.92a30.64,30.64,0,0,1,3.28-5.61,14,14,0,0,0-4,9.73,14.56,14.56,0,1,0,14.56-14.22,14.81,14.81,0,0,0-5.09.91A46.08,46.08,0,0,0,1000.66,306.92Zm13.87-6.66c2.32,0,4.2,1.46,4.2,3.27s-1.88,3.28-4.2,3.28-4.19-1.46-4.19-3.28S1012.22,300.26,1014.53,300.26Z"/>
        <path class="cls-2" d="M1014.53,306.81c2.32,0,4.2-1.46,4.2-3.28s-1.88-3.27-4.2-3.27-4.19,1.46-4.19,3.27S1012.22,306.81,1014.53,306.81Z"/>
        <path d="M946.2,316c13.85-3.28,27.58.41,36.31,12a37.63,37.63,0,0,0-2.72-4.48C972.4,313.09,957.37,310.52,946.2,316Z"/>
        <path d="M918.41,306.92a30.74,30.74,0,0,0-4.76-7.47,31.67,31.67,0,0,0-28.82-10.66,42.74,42.74,0,0,1,24.28,8.56A45.53,45.53,0,0,1,918.41,306.92Z"/>
        <path d="M1003.94,301.31a30.64,30.64,0,0,0-3.28,5.61,46.08,46.08,0,0,1,8.78-9.19,42.82,42.82,0,0,1,24.8-8.94A31.68,31.68,0,0,0,1003.94,301.31Z"/>
        <path d="M576.29,309.85a31,31,0,0,1,4.77,7.47,45.81,45.81,0,0,0-9.31-9.57,14.94,14.94,0,0,0-3.87-.52,14.22,14.22,0,1,0,14.56,14.21A14.09,14.09,0,0,0,576.29,309.85Zm-8.85,7.37c-2.31,0-4.19-1.47-4.19-3.28s1.88-3.28,4.19-3.28,4.2,1.47,4.2,3.28S569.76,317.22,567.44,317.22Z"/>
        <path class="cls-2" d="M567.44,310.66c-2.31,0-4.19,1.47-4.19,3.28s1.88,3.28,4.19,3.28,4.2-1.47,4.2-3.28S569.76,310.66,567.44,310.66Z"/>
        <path d="M663.3,317.32a31.57,31.57,0,0,1,3.28-5.61,14,14,0,0,0-4,9.73,14.56,14.56,0,1,0,14.56-14.21,14.73,14.73,0,0,0-5.09.91A46.06,46.06,0,0,0,663.3,317.32Zm13.88-6.66c2.31,0,4.19,1.47,4.19,3.28s-1.88,3.28-4.19,3.28-4.2-1.47-4.2-3.28S674.86,310.66,677.18,310.66Z"/>
        <ellipse class="cls-2" cx="677.18" cy="313.94" rx="4.2" ry="3.28"/>
        <path d="M603.75,351.45c12.12-7.46,26.31-8.26,38.24,0a39.14,39.14,0,0,0-4-3.4C627.72,340.51,612.64,342.78,603.75,351.45Z"/>
        <path d="M581.06,317.32a31,31,0,0,0-4.77-7.47,31.65,31.65,0,0,0-28.82-10.65,42.77,42.77,0,0,1,24.28,8.55A45.81,45.81,0,0,1,581.06,317.32Z"/>
        <path d="M666.58,311.71a31.57,31.57,0,0,0-3.28,5.61,46.06,46.06,0,0,1,8.79-9.18,42.7,42.7,0,0,1,24.8-8.94A31.68,31.68,0,0,0,666.58,311.71Z"/>
      </g>
      <g id="pierna_der-2" data-name="pierna der">
        <g>
          <path class="cls-1" d="M1282.06,581.63l-3.55.15c-5.86.24-10.37,6.38-10.06,13.72h0a14.84,14.84,0,0,0,4,9.75h0l.3,7.42c.11,2.66,1.93,4.74,4,4.66l6.77-.28h0l3.54-.15h0l-1.46-35.4-3.54.14Z"/>
          <path class="cls-1" d="M1276.62,618.32a4.5,4.5,0,0,1-3.4-1.64,6.46,6.46,0,0,1-1.52-4l-.29-7.07a16.1,16.1,0,0,1-4-10.1c-.33-7.87,4.62-14.49,11-14.76l8.08-.33,1.55,37.4-11.31.47Zm-3.16-11.53.24,5.83a4.44,4.44,0,0,0,1,2.74,2.5,2.5,0,0,0,2,1l9.31-.39-1.38-33.4-6.08.25c-5.31.22-9.4,5.91-9.12,12.67a14,14,0,0,0,3.69,9.1l3.53,3.62Z"/>
        </g>
        <path class="cls-1" d="M1216,616.24a3.5,3.5,0,0,1-.14-7l56.64-2.35a3.5,3.5,0,1,1,.29,7l-56.64,2.35Z"/>
      </g>
      <g id="cuerpo-2" data-name="cuerpo">
        <g>
          <path class="cls-2" d="M1238.28,498.2l-25-2.6a12.67,12.67,0,0,1,25,2.6Z"/>
          <path class="cls-2" d="M1220.42,413.09h0l.27-2.53.1-1-28.2-2.94-.1,1-.26,2.54a42.52,42.52,0,0,0-46.7,37.88l-14,134a28.31,28.31,0,0,0,25.22,31.09l5.47.57,7,.73,8.9.93,33.89,3.53,1.21.13a26.68,26.68,0,0,0,5,.06,9.3,9.3,0,0,0,1-.09c.35,0,.7-.08,1-.13a28.22,28.22,0,0,0,16.27-8.47c.57-.59,1.11-1.2,1.62-1.84a.9.9,0,0,0,.15-.19c.6-.76,1.16-1.55,1.69-2.37a28.25,28.25,0,0,0,4.22-12.2L1255,491.38l.85-8.16,2.44-23.44A42.51,42.51,0,0,0,1220.42,413.09ZM1241.2,500a1.51,1.51,0,0,1-.55,1,1.54,1.54,0,0,1-.94.33h-.16l-28.19-2.93a1.51,1.51,0,0,1-1.34-1.65,15.67,15.67,0,0,1,31.26,1.62A15,15,0,0,1,1241.2,500Z"/>
          <path class="cls-1" d="M1220,617.86l-1,.12c-.34,0-.68.07-1,.08a27.12,27.12,0,0,1-4.59-.09l-6.23-.65,4.92,1.52,1.21.13a26.68,26.68,0,0,0,5,.06,9.3,9.3,0,0,0,1-.09c.35,0,.7-.08,1-.13A6.64,6.64,0,0,1,1220,617.86Zm1.53-205.65.16-1.55.21-2-30.19-3.15-.21,2-.16,1.55a43.51,43.51,0,0,0-46.79,38.86l-14,134a29.35,29.35,0,0,0,26.11,32.19l5.57.58,7,.73,12,1.25,31.92,3.32a27.59,27.59,0,0,0,3,.16h.08c.84,0,1.68,0,2.52-.11.36,0,.73-.07,1.09-.12s.71-.09,1.06-.15a29.34,29.34,0,0,0,13.74-6.17c.48-.39.94-.79,1.39-1.21s1-1,1.51-1.5a21.91,21.91,0,0,0,1.62-1.87c.21-.24.39-.48.58-.73a29.15,29.15,0,0,0,5.58-14.41l10.56-101.36,1.06-10.13,2.34-22.48A43.56,43.56,0,0,0,1221.51,412.21Zm35.79,47.46-2.36,22.67-1,9.49-10.6,101.81a27.08,27.08,0,0,1-4.14,11.87c-.18.3-.38.59-.58.87-.39.57-.81,1.13-1.26,1.67a4,4,0,0,1-.26.32,27.56,27.56,0,0,1-9.87,7.42,26.58,26.58,0,0,1-7.26,2.07l-1,.12c-.34,0-.68.07-1,.08a27.12,27.12,0,0,1-4.59-.09l-6.23-.65-29.76-3.1-8.1-.84-7-.73-5.37-.56a27.34,27.34,0,0,1-24.33-30l14-134a41.59,41.59,0,0,1,41.27-37.21,39.52,39.52,0,0,1,4.33.23l1,.1.37-3.53,26.2,2.73-.35,3.53,1,.11A41.54,41.54,0,0,1,1257.3,459.67Z"/>
        </g>
        <path class="cls-33" d="M1152.57,448.76l-14,134A21.25,21.25,0,0,0,1157.52,606l56.47,5.88a21.24,21.24,0,0,0,23.3-18.9l14-134a35.42,35.42,0,0,0-11.18-29.66L1169.63,422A35.38,35.38,0,0,0,1152.57,448.76Z"/>
        <path class="cls-1" d="M1222.73,410.75l-.29,0-31.72-3.3a2.77,2.77,0,1,1,.57-5.51l31.72,3.3a2.76,2.76,0,0,1,2.47,3,2.77,2.77,0,0,1-2.75,2.49ZM1191,403.9a.77.77,0,0,0-.08,1.54l31.72,3.3a.76.76,0,0,0,.56-.16.78.78,0,0,0,.11-1.09.73.73,0,0,0-.51-.28l-31.72-3.3Z"/>
        <g>
          <path class="cls-2" d="M1196.18,390.43h23.2A2.57,2.57,0,0,1,1222,393v11.6a0,0,0,0,1,0,0h-28.35a0,0,0,0,1,0,0V393A2.57,2.57,0,0,1,1196.18,390.43Z" transform="translate(47.7 -123.03) rotate(5.95)"/>
          <path class="cls-1" d="M1222,407.13,1191.86,404l1.3-12.54a3.57,3.57,0,0,1,3.92-3.18l23.08,2.41a3.55,3.55,0,0,1,3.18,3.92Zm-28-4.93,26.21,2.74,1.1-10.55a1.54,1.54,0,0,0-.35-1.15,1.57,1.57,0,0,0-1.06-.58l-23.07-2.4a1.56,1.56,0,0,0-1.73,1.4Z"/>
        </g>
      </g>
      <g id="brazo_der-2" data-name="brazo der">
        <path class="cls-1" d="M1165.74,619.73h0a3.5,3.5,0,0,1-3.48-3.51l.62-116.88a3.5,3.5,0,0,1,7,0l-.62,116.87A3.5,3.5,0,0,1,1165.74,619.73Z"/>
      </g>
      <g id="pierna_izq-2" data-name="pierna izq">
        <g>
          <path class="cls-1" d="M1235.53,605.41l-3.39-1A10.62,10.62,0,0,0,1219.91,620h0l-1.76,5.67a3.85,3.85,0,0,0,2.54,4.82l6.47,2h0l3.39,1h0l8.38-27.08-3.38-1.05Z"/>
          <path class="cls-1" d="M1231.19,634.79l-10.82-3.35a4.86,4.86,0,0,1-3.2-6.07l1.64-5.28a11.61,11.61,0,0,1,13.63-16.68l7.72,2.39Zm-10.78-13.1-1.33,4.27a2.88,2.88,0,0,0,1.88,3.57l8.91,2.76,7.79-25.17-5.81-1.8a9.62,9.62,0,0,0-11.09,14.16l2.91,4.84Z"/>
        </g>
        <path class="cls-1" d="M1221.16,628.83a3.35,3.35,0,0,1-1-.16l-40.63-12.58a3.5,3.5,0,1,1,2.07-6.69L1222.2,622a3.5,3.5,0,0,1-1,6.84Z"/>
      </g>
      <g>
        <g>
          <path class="cls-4" d="M1238.28,498.2l-25-2.6a12.67,12.67,0,0,1,25,2.6Z"/>
          <path class="cls-1" d="M1227.23,482.8a15.69,15.69,0,0,0-17.21,14,1.51,1.51,0,0,0,1.34,1.65l28.19,2.93h.16a1.54,1.54,0,0,0,.94-.33,1.51,1.51,0,0,0,.55-1,15,15,0,0,0,.08-1.63A15.71,15.71,0,0,0,1227.23,482.8Zm-14,12.8a12.67,12.67,0,0,1,25,2.6Z"/>
        </g>
        <path class="cls-1" d="M1202.79,481.81l4.53-3.59a2.78,2.78,0,0,0-3.46-4.36l-4.52,3.59-3.59-4.53a2.78,2.78,0,1,0-4.36,3.46l3.59,4.52-4.53,3.59a2.78,2.78,0,0,0,3.46,4.36l4.52-3.59,3.59,4.53a2.78,2.78,0,0,0,4.36-3.46Z"/>
        <path class="cls-1" d="M1259.18,487.68l4.53-3.59a2.78,2.78,0,0,0-3.46-4.36l-4.53,3.59-3.58-4.52a2.78,2.78,0,1,0-4.36,3.45l3.58,4.53-4.52,3.58a2.78,2.78,0,0,0,3.45,4.36l4.53-3.58,3.59,4.52a2.78,2.78,0,0,0,4.36-3.45Z"/>
      </g>
      <g>
        <g id="pierna_der-3" data-name="pierna der">
          <g>
            <path class="cls-1" d="M328.63,645.31v-3.54c0-5.87,5.95-10.63,13.29-10.63h0a14.89,14.89,0,0,1,9.91,3.56v0h7.43c2.66,0,4.81,1.73,4.81,3.86v6.77h0v3.55H328.63v-3.55Z"/>
            <path class="cls-1" d="M365.07,649.86H327.63v-8.09c0-6.41,6.41-11.63,14.29-11.63a16.11,16.11,0,0,1,10.26,3.54h7.07c3.21,0,5.81,2.18,5.81,4.86v11.32Zm-35.44-2h33.43v-9.32c0-1.58-1.71-2.86-3.81-2.86H353.4l1.47,3.08-3.71-3.31a14,14,0,0,0-9.24-3.31c-6.78,0-12.29,4.32-12.29,9.63Z"/>
          </g>
          <path class="cls-1" d="M359.28,640a3.49,3.49,0,0,1-3.49-3.34c-.72-16,2.83-27.77,10.53-34.84,3.85-3.54,7.89-5.14,11.45-6.55,3.84-1.52,7.16-2.83,10.44-6.27,4.75-5,7.26-12.25,7.47-21.65a3.5,3.5,0,1,1,7,.15c-.25,11.2-3.41,20.07-9.41,26.34-4.34,4.55-8.9,6.35-12.92,7.94-3.29,1.3-6.4,2.53-9.29,5.19-6.11,5.61-8.9,15.49-8.28,29.38a3.5,3.5,0,0,1-3.34,3.65Z"/>
        </g>
        <g id="cuerpo-3" data-name="cuerpo">
          <g>
            <path class="cls-2" d="M519,573.58V548.41a12.67,12.67,0,0,1,0,25.17Z"/>
            <path class="cls-2" d="M602.51,575.18h0A42.51,42.51,0,0,0,560,532.66H425.31A28.3,28.3,0,0,0,397,561v56.77a28.31,28.31,0,0,0,28.31,28.31H560a42.52,42.52,0,0,0,42.51-42.52h3.55V575.18ZM533.15,561a15.69,15.69,0,0,1-15.67,15.67,1.5,1.5,0,0,1-1.5-1.5V546.83a1.5,1.5,0,0,1,1.5-1.5A15.69,15.69,0,0,1,533.15,561Z"/>
            <path class="cls-1" d="M486.8,533.4a4.55,4.55,0,0,0-.55.26h9.43C492.8,532.7,489.63,532.29,486.8,533.4Zm116.7,40.78A43.56,43.56,0,0,0,560,531.66H425.31A29.34,29.34,0,0,0,396,561v56.77A29.34,29.34,0,0,0,425.31,647H560a43.56,43.56,0,0,0,43.5-42.52h3.56V574.18Zm-2,29.34A41.56,41.56,0,0,1,560,645H425.31A27.34,27.34,0,0,1,398,617.74V561a27.34,27.34,0,0,1,27.31-27.31H560a41.56,41.56,0,0,1,41.51,41.52v1h3.55v26.34h-3.55Z"/>
          </g>
          <path class="cls-34" d="M560,639H425.31a21.24,21.24,0,0,1-21.22-21.22V561a21.24,21.24,0,0,1,21.22-21.22H560a35.39,35.39,0,0,1,28.34,14.2v70.82A35.36,35.36,0,0,1,560,639Z"/>
          <g>
            <path class="cls-2" d="M609.6,573.4v31.89a1.77,1.77,0,1,1-3.54,0V573.4a1.77,1.77,0,0,1,3.54,0Z"/>
            <path class="cls-1" d="M607.83,608.06a2.77,2.77,0,0,1-2.77-2.77V573.4a2.77,2.77,0,0,1,5.54,0v31.89A2.77,2.77,0,0,1,607.83,608.06Zm0-35.43a.78.78,0,0,0-.77.77v31.89a.77.77,0,0,0,1.54,0V573.4A.77.77,0,0,0,607.83,572.63Z"/>
          </g>
          <g>
            <path class="cls-2" d="M623.78,577.74v23.2a2.58,2.58,0,0,1-2.58,2.57H609.6V575.17h11.6A2.58,2.58,0,0,1,623.78,577.74Z"/>
            <path class="cls-1" d="M621.2,604.51H608.6V574.17h12.6a3.57,3.57,0,0,1,3.58,3.57v23.2A3.57,3.57,0,0,1,621.2,604.51Zm-10.6-2h10.6a1.57,1.57,0,0,0,1.58-1.57v-23.2a1.57,1.57,0,0,0-1.58-1.57H610.6Z"/>
          </g>
        </g>
        <g id="brazo_der-3" data-name="brazo der">
          <path class="cls-1" d="M478,679.73a175.3,175.3,0,0,1-19.57-1.21,3.5,3.5,0,1,1,.8-6.95c16.3,1.88,30.19,1.45,38.1-1.17,3.08-1,4.9-2.22,5.43-3.56.63-1.62.17-4-.95-4.93-.93-.77-2.65-.55-5.18-.13-3.09.51-6.94,1.15-9.7-1.86s-2.83-8.34-.28-12c3.12-4.43,8.64-4.07,13.08-3.78,3.15.21,6.4.42,8.1-.9,1.52-1.17,4.46-5.92-.83-24.63a3.5,3.5,0,0,1,6.74-1.9c4.88,17.24,4.36,27.43-1.62,32.06-3.81,3-8.61,2.63-12.85,2.36-3-.2-6-.4-6.89.82a3.53,3.53,0,0,0-.28,3.21,13.31,13.31,0,0,0,3.39-.32c3.09-.51,7.32-1.21,10.77,1.63,4,3.25,4.5,9.07,3,12.88-1.35,3.48-4.45,5.91-9.75,7.67C493.43,679.07,485.59,679.73,478,679.73Z"/>
        </g>
        <g id="pierna_izq-3" data-name="pierna izq">
          <g>
            <path class="cls-1" d="M404.46,670.28a10.63,10.63,0,0,0,8.47,12.42l3.48.66h0l3.48.66,5.28-27.85h0l-3.48-.66h0L415,654.25a3.85,3.85,0,0,0-4.5,3.07l-1.11,5.84h0A10.57,10.57,0,0,0,404.46,670.28Z"/>
            <path class="cls-1" d="M420.69,685.19l-7.95-1.5a11.64,11.64,0,0,1-9.26-13.59h0a11.67,11.67,0,0,1,5-7.54l1-5.43a4.86,4.86,0,0,1,5.67-3.86l11.13,2.1Zm-6.16-23.93L410,664a9.61,9.61,0,0,0-4.51,6.46h0a9.62,9.62,0,0,0,7.67,11.25l6,1.13L424,657l-9.16-1.74a2.85,2.85,0,0,0-3.33,2.28l-.84,4.42Z"/>
          </g>
          <path class="cls-1" d="M411.89,662.27l-.39,0c-3.64-.41-16.13-2.6-23.85-14s-5-23.62-4.08-27.64a40.34,40.34,0,0,1,11-19.62,3.5,3.5,0,0,1,4.93,5,33.29,33.29,0,0,0-9.07,16.19c-.82,3.63-3,13.27,3,22.16s15.94,10.62,18.83,10.94a3.5,3.5,0,0,1-.38,7Z"/>
        </g>
        <g>
          <g>
            <path class="cls-4" d="M530.15,561A12.68,12.68,0,0,1,519,573.58V548.41A12.7,12.7,0,0,1,530.15,561Z"/>
            <path class="cls-1" d="M517.48,545.33a1.5,1.5,0,0,0-1.5,1.5v28.34a1.5,1.5,0,0,0,1.5,1.5,15.67,15.67,0,0,0,0-31.34Zm1.5,28.25V548.41a12.67,12.67,0,0,1,0,25.17Z"/>
          </g>
          <path class="cls-1" d="M531.61,585.41l4-4.13a2.78,2.78,0,1,1,4,3.89l-4,4.13,4.12,4a2.78,2.78,0,1,1-3.88,4l-4.13-4-4,4.13a2.78,2.78,0,1,1-4-3.89l4-4.12-4.13-4a2.78,2.78,0,1,1,3.89-4Z"/>
          <path class="cls-1" d="M531.61,528.71l4-4.13a2.8,2.8,0,0,1,3.94,0,2.77,2.77,0,0,1,0,3.93l-4,4.13,4.12,4a2.78,2.78,0,1,1-3.88,4l-4.13-4-4,4.13a2.78,2.78,0,1,1-4-3.89l4-4.13-4.13-4a2.78,2.78,0,1,1,3.89-4Z"/>
        </g>
        <g id="brazo_izq" data-name="brazo izq">
          <path class="cls-1" d="M471.41,621.19a3.49,3.49,0,0,1-3.47-3.11c-2.28-20.25-1-54.64,1.61-65.52,4.73-19.71,10.65-24.1,14.69-25.68,9.63-3.77,20,2.68,24,5.62a3.5,3.5,0,1,1-4.15,5.64c-2.4-1.76-10.74-7.31-17.3-4.74-3.88,1.52-7.59,8.9-10.45,20.79-2.43,10.16-3.63,43.84-1.46,63.11a3.5,3.5,0,0,1-3.08,3.87Z"/>
        </g>
        <rect class="cls-2" x="492.67" y="533.75" width="17.72" height="5.98"/>
      </g>
      <g>
        <g id="pierna_der-4" data-name="pierna der">
          <g>
            <path class="cls-1" d="M805.2,121.57V118c0-5.87-6-10.63-13.29-10.63h0A14.85,14.85,0,0,0,782,111v0h-7.44c-2.65,0-4.81,1.72-4.81,3.85v6.78h0v3.54H805.2v-3.54Z"/>
            <path class="cls-1" d="M806.2,126.11H768.77V114.79c0-2.68,2.61-4.85,5.81-4.85h7.08a16,16,0,0,1,10.25-3.55c7.88,0,14.29,5.22,14.29,11.63Zm-35.43-2H804.2V118c0-5.31-5.51-9.63-12.29-9.63a14,14,0,0,0-9.24,3.31l-3.81,3.42,1.56-3.18h-5.84c-2.1,0-3.81,1.28-3.81,2.85v9.32Z"/>
          </g>
          <path class="cls-1" d="M774.55,116.28h-.16a3.5,3.5,0,0,1-3.34-3.65c.62-13.88-2.16-23.77-8.27-29.37-2.9-2.66-6-3.89-9.29-5.19-4-1.6-8.59-3.4-12.93-8-6-6.27-9.16-15.13-9.4-26.34a3.5,3.5,0,0,1,7-.15c.2,9.4,2.71,16.69,7.46,21.66,3.28,3.43,6.6,4.75,10.44,6.27,3.56,1.41,7.6,3,11.45,6.54,7.71,7.07,11.25,18.79,10.54,34.84A3.51,3.51,0,0,1,774.55,116.28Z"/>
        </g>
        <g id="cuerpo-4" data-name="cuerpo">
          <g>
            <path class="cls-2" d="M614.86,24.67V49.84a12.67,12.67,0,0,1,0-25.17Z"/>
            <path class="cls-2" d="M708.52,8.91H573.83a42.51,42.51,0,0,0-42.51,42.51h-3.55V79.78h3.55a42.52,42.52,0,0,0,42.51,42.52H708.52A28.31,28.31,0,0,0,736.83,94V37.22A28.3,28.3,0,0,0,708.52,8.91ZM600.68,37.25a15.69,15.69,0,0,1,15.68-15.67,1.5,1.5,0,0,1,1.5,1.5V51.42a1.5,1.5,0,0,1-1.5,1.5A15.69,15.69,0,0,1,600.68,37.25Z"/>
            <path class="cls-1" d="M647,9.66a13.08,13.08,0,0,0-8.87.25h9.4A4.22,4.22,0,0,0,647,9.66Zm61.48-1.75H573.83a43.57,43.57,0,0,0-43.5,42.52h-3.56V80.78h3.56a43.57,43.57,0,0,0,43.5,42.52H708.52A29.35,29.35,0,0,0,737.83,94V37.22A29.35,29.35,0,0,0,708.52,7.91ZM735.83,94a27.34,27.34,0,0,1-27.31,27.31H573.83a41.56,41.56,0,0,1-41.51-41.52v-1h-3.55V52.43h3.55v-1A41.56,41.56,0,0,1,573.83,9.91H708.52a27.34,27.34,0,0,1,27.31,27.31Z"/>
          </g>
          <path class="cls-35" d="M573.83,115.2H708.52A21.24,21.24,0,0,0,729.74,94V37.21A21.24,21.24,0,0,0,708.52,16H573.83a35.39,35.39,0,0,0-28.34,14.19V101A35.39,35.39,0,0,0,573.83,115.2Z"/>
          <g>
            <path class="cls-2" d="M524.23,49.65V81.54a1.77,1.77,0,1,0,3.54,0V49.65a1.77,1.77,0,1,0-3.54,0Z"/>
            <path class="cls-1" d="M526,84.31a2.78,2.78,0,0,1-2.77-2.77V49.65a2.77,2.77,0,1,1,5.54,0V81.54A2.77,2.77,0,0,1,526,84.31Zm0-35.43a.78.78,0,0,0-.77.77V81.54a.77.77,0,1,0,1.54,0V49.65A.77.77,0,0,0,526,48.88Z"/>
          </g>
          <g>
            <path class="cls-2" d="M510.05,54v23.2a2.58,2.58,0,0,0,2.58,2.57h11.6V51.42h-11.6A2.58,2.58,0,0,0,510.05,54Z"/>
            <path class="cls-1" d="M525.23,80.76h-12.6a3.58,3.58,0,0,1-3.58-3.57V54a3.58,3.58,0,0,1,3.58-3.57h12.6Zm-12.6-28.34A1.58,1.58,0,0,0,511.05,54v23.2a1.57,1.57,0,0,0,1.58,1.57h10.6V52.42Z"/>
          </g>
        </g>
        <g id="brazo_der-4" data-name="brazo der">
          <path class="cls-1" d="M608.17,169.5a3.51,3.51,0,0,1-3.19-2c-4.35-9.51-2.44-20.25,4.64-26.12a19.35,19.35,0,0,1,11.32-4.25l-1-43.07a3.5,3.5,0,0,1,7-.16L628,140.59a3.54,3.54,0,0,1-1.15,2.68,3.51,3.51,0,0,1-2.77.88c-1.81-.22-6.42-.4-10,2.58-4.58,3.79-5.73,11.29-2.74,17.81a3.5,3.5,0,0,1-1.73,4.64A3.43,3.43,0,0,1,608.17,169.5Z"/>
        </g>
        <g id="pierna_izq-4" data-name="pierna izq">
          <g>
            <path class="cls-1" d="M729.37,146.53A10.64,10.64,0,0,1,720.9,159l-3.48.66h0l-3.48.66-5.27-27.86h0l3.48-.66h0l6.66-1.26a3.86,3.86,0,0,1,4.5,3.07l1.11,5.84h0A10.61,10.61,0,0,1,729.37,146.53Z"/>
            <path class="cls-1" d="M713.15,161.44l-5.65-29.81,11.12-2.11a4.85,4.85,0,0,1,5.67,3.87l1,5.42a11.63,11.63,0,0,1,5,7.54h0a11.63,11.63,0,0,1-9.26,13.59Zm-3.32-28.22,4.91,25.89,6-1.14a9.63,9.63,0,0,0,7.67-11.25h0a9.62,9.62,0,0,0-4.51-6.45l-4.59-2.76,3.87.67-.83-4.42a2.88,2.88,0,0,0-1.2-1.83,2.8,2.8,0,0,0-2.14-.44Z"/>
          </g>
          <path class="cls-1" d="M722,138.52a3.5,3.5,0,0,1-.38-7c2.89-.32,12.79-2,18.82-10.93s3.86-18.53,3-22.16a33.29,33.29,0,0,0-9.07-16.2,3.5,3.5,0,1,1,4.94-5,40.29,40.29,0,0,1,11,19.61c.91,4,3.67,16.23-4.07,27.64s-20.21,13.56-23.86,14Z"/>
        </g>
        <g>
          <g>
            <path class="cls-4" d="M614.86,24.67V49.84a12.67,12.67,0,0,1,0-25.17Z"/>
            <path class="cls-1" d="M616.36,21.58a15.67,15.67,0,1,0,0,31.34,1.5,1.5,0,0,0,1.5-1.5V23.08A1.5,1.5,0,0,0,616.36,21.58Zm-1.5,28.26a12.67,12.67,0,0,1,0-25.17Z"/>
          </g>
          <path class="cls-1" d="M602.23,61.66l-4-4.13a2.78,2.78,0,1,0-4,3.89l4,4.13-4.13,4a2.78,2.78,0,1,0,3.89,4l4.13-4,4,4.13a2.78,2.78,0,0,0,4-3.89l-4-4.13,4.13-4a2.78,2.78,0,0,0-3.89-4Z"/>
          <path class="cls-1" d="M602.23,5l-4-4.13a2.78,2.78,0,1,0-4,3.89l4,4.13-4.13,4a2.78,2.78,0,1,0,3.89,4l4.13-4,4,4.13a2.78,2.78,0,1,0,4-3.88l-4-4.13,4.13-4a2.78,2.78,0,0,0-3.89-4Z"/>
        </g>
        <g id="brazo_izq-2" data-name="brazo izq">
          <path class="cls-1" d="M662.42,97.44l-.39,0a3.5,3.5,0,0,1-3.09-3.87c2.17-19.26,1-52.95-1.46-63.1-2.86-11.89-6.57-19.28-10.44-20.8-6.56-2.57-14.91,3-17.31,4.75a3.5,3.5,0,0,1-4.14-5.64c4-2.95,14.37-9.4,24-5.63,4,1.59,10,6,14.7,25.68,2.61,10.89,3.89,45.27,1.61,65.52A3.5,3.5,0,0,1,662.42,97.44Z"/>
        </g>
        <rect class="cls-2" x="623.44" y="10.01" width="17.72" height="5.98" transform="translate(1264.6 25.99) rotate(-180)"/>
      </g>
    </g>
  </g>
</svg>
