<svg xmlns="http://www.w3.org/2000/svg" viewBox="0 0 246.91 250.7">
  <defs>
    <style>
      .cls-1 {
        fill: #1a535c;
      }
    </style>
  </defs>
  <g id="Capa_2" data-name="Capa 2">
    <g id="Capa_1-2" data-name="Capa 1">
      <g>
        <path class="cls-1" d="M72,0c2.81,1.4,5.85,2.48,8.37,4.28,3.21,2.29,4.86,5.83,5.62,9.82,4.91-.72,9.63-1.54,14.39-2.07,10.64-1.18,21.19-1,31.29,3.17C138,17.8,143.11,21.78,146.19,28a46.56,46.56,0,0,1,1.63,4.38L.21,56.91A19.41,19.41,0,0,1,2.29,45.16C5.8,37.86,11.76,33,18.73,29.3c9-4.84,18.86-7.12,28.88-8.72,1.52-.24,3-.52,4.67-.81,0-.77,0-1.4,0-2A17,17,0,0,1,64.6.62c.52-.16,1-.41,1.51-.62ZM62,18.2l14.46-2.46c-1.29-4.6-4.7-6.81-8.75-6C63.89,10.53,61.55,13.8,62,18.2Z"/>
        <path class="cls-1" d="M246.91,210.69c-4.07,1.43-7.95,3.88-12.57,1.59-3-1.48-2.8-1.42-2.34-4.69.64-4.61,3-7,7.49-7.72a22.11,22.11,0,0,0,3.25-1c1.4,3.82,2.78,7.59,4.17,11.36Z"/>
        <path class="cls-1" d="M0,68.2h149.3c-.35,4.72-.68,9.32-1,13.92q-2.39,30.15-4.79,60.3-2.32,29.28-4.69,58.58c-.73,9.11-1.59,18.22-2.06,27.34a10.54,10.54,0,0,1-5.26,9.06c-5.32,3.35-11.24,5.19-17.29,6.56-17.42,4-35.07,4.66-52.83,3.62-11.27-.66-22.45-2.05-33.19-5.65a67.06,67.06,0,0,1-11.42-5.44C14,235,13,232.3,12.7,229.1,11,207,9.21,184.83,7.46,162.7q-2.31-29.3-4.6-58.59Q1.53,87.26.13,70.43C.08,69.78.06,69.13,0,68.2Zm120.51,89.08h0q1.42-32.79,2.85-65.57c.16-3.56-1.65-5.78-4.7-5.94s-4.75,1.8-4.91,5.44c-.54,12.32-1,24.63-1.55,37Q111,154.59,109.9,181q-.89,20.93-1.71,41.85c-.14,3.5,1.65,5.67,4.56,5.75s4.74-2,4.89-5.27Q119.1,190.31,120.52,157.28Zm-82.09.19h0l-2.19-51.11c-.22-5.22-.35-10.44-.67-15.65-.2-3.18-2.24-5.09-4.93-5S26,88,26,91.22c0,.9.07,1.79.1,2.69q1.38,31.55,2.76,63.09,1.44,33.13,2.88,66.28c.14,3.32,2,5.28,4.88,5.21s4.66-2.16,4.57-5.48c-.13-4.64-.35-9.29-.54-13.94Q39.53,183.27,38.43,157.47Zm31.5-.38V222c0,4.38,1.62,6.62,4.76,6.61s4.71-2.26,4.71-6.64V92.38c0-4.36-1.62-6.61-4.75-6.6S69.93,88,69.93,92.42Z"/>
        <path class="cls-1" d="M174.26,96.33a33.35,33.35,0,0,1-.88-3.54C172.83,88.42,171,85,166.83,83c-.72-.33-1.13-1.45-1.52-2.28a4.85,4.85,0,0,1-.2-1.68c-.71-10-5.92-15-16-16a65.72,65.72,0,0,1-13.76-3A48.13,48.13,0,0,0,107,59a76.65,76.65,0,0,1-10.84,2.1c5.07-3.74,8.4-9.37,14.6-11.78a156.5,156.5,0,0,0,16.76-8c4.87-2.58,10-2.91,15.21-2.42,3.56.34,7.12.78,10.68,1.26a5.42,5.42,0,0,1,2,.86c11,6.78,21.38,14.35,30.3,23.77a5,5,0,0,1,1.46,3.34c-.77,6.79-1.78,13.56-2.77,20.32a2.28,2.28,0,0,1-.84,1.39C180.56,92,177.56,94,174.26,96.33Z"/>
        <path class="cls-1" d="M200.37,250.7c-4.25-3.83-8.17-7.51-12.27-11a6.12,6.12,0,0,1-2.23-6.08c1.13-7.27,4-13.9,9.19-19.06,3.61-3.58,8.54-3.18,13.12-1.65a13.77,13.77,0,0,1,8,6.9,146,146,0,0,1,6.52,14.7c.51,1.34,0,3.43-.76,4.83-1.87,3.65-5.17,5.78-9,7.1C208.7,247.93,204.44,249.33,200.37,250.7Z"/>
        <path class="cls-1" d="M232.39,138.13c-6.19-.76-11.77,1-17.12-1.35-6-2.62-9.57-6.78-10.23-13.64-.79-8-2.27-16-3.45-24-.09-.64-.16-1.28-.23-1.9.23-.08.42-.22.5-.17,9.65,5.85,18.83,12.31,26.75,20.43a2.93,2.93,0,0,1,.92,1.38C230.49,125.11,231.38,131.3,232.39,138.13Z"/>
        <path class="cls-1" d="M220.33,173a58.46,58.46,0,0,1,2.13-7.86c1.09-2.64,2.56-2.89,5.32-2,3.28,1,6.36,2.84,10.08,2.26.78-.13,2.16.93,2.62,1.79a15.89,15.89,0,0,1,.19,15.2,2.74,2.74,0,0,1-1.07,1.3c-3.1,1.38-6.14,3.08-9.39,3.87s-7-2-8.18-6C221.25,179,220.94,176.19,220.33,173Z"/>
        <path class="cls-1" d="M157.85,107.76c4.77,0,9.18,0,13.58,0a2,2,0,0,1,1.53.82c2.81,5.58,4.57,11.39,2.89,17.68-1.49,5.56-3.54,6.51-8.88,4.37a24.41,24.41,0,0,1-2.43-1.14c-4.47-2.39-7.86-5.22-6.79-11.21C158.34,115,157.85,111.51,157.85,107.76Z"/>
        <path class="cls-1" d="M192.58,163.18c0-3.56-.05-6.81,0-10.05a3.12,3.12,0,0,1,1-2,8.72,8.72,0,0,1,11.62.11c1.69,1.47,2.62,3.31,1.77,5.44-.94,2.35-1.74,5-5,5.39C199.14,162.38,196.23,162.74,192.58,163.18Z"/>
        <path class="cls-1" d="M182.51,194.41c1.33,4,2.59,7.76,3.84,11.49-3.88,3.34-10.22,3.78-14.19.93a2.55,2.55,0,0,1-.83-2.09c1.46-7.1,1.5-7.09,8.35-9.39Z"/>
        <path class="cls-1" d="M195.57,177c1.09-1.41,2.34-3,3.6-4.63a.86.86,0,0,1,.4-.27c1.83-.59,10.35,3.58,11.09,5.42,1,2.38.37,3.92-1.95,5a24.44,24.44,0,0,1-2.53.89c-5.57,1.88-6.61,1.53-9.71-3.46A14.67,14.67,0,0,1,195.57,177Z"/>
        <path class="cls-1" d="M186.92,163.84a10.67,10.67,0,0,1-2.65,2.51,54.58,54.58,0,0,1-6.45,2.24,2.13,2.13,0,0,1-.93.21c-2.07-.32-5.64-6.6-5-8.68,1.09-3.41,3.18-4.49,6.51-3.37,1.7.57,3.38,1.17,5.09,1.7C185.84,159.17,186.41,161.06,186.92,163.84Z"/>
      </g>
    </g>
  </g>
</svg>
