<svg xmlns="http://www.w3.org/2000/svg" xmlns:xlink="http://www.w3.org/1999/xlink" viewBox="0 0 275 280.9"><defs><style>.cls-1{fill:#2d525e;}.cls-2{fill:#fff;}.cls-3,.cls-4{opacity:0.7;}.cls-3{fill:url(#Degradado_sin_nombre_20);}.cls-4{fill:url(#Degradado_sin_nombre_20-2);}.cls-5{fill:#4b8a98;}.cls-6{fill:#6ccff6;}.cls-7{fill:#00bf8d;}.cls-8{fill:#1a535c;}.cls-9{fill:#f772f4;}.cls-10{fill:none;stroke:#2d525e;stroke-linecap:round;stroke-linejoin:round;stroke-width:4px;}</style><linearGradient id="Degradado_sin_nombre_20" x1="542.78" y1="554.95" x2="542.78" y2="541.78" gradientUnits="userSpaceOnUse"><stop offset="0" stop-color="#6ccef5"/><stop offset="1" stop-color="#6ccef5" stop-opacity="0.3"/></linearGradient><linearGradient id="Degradado_sin_nombre_20-2" x1="520.61" y1="677.28" x2="520.61" y2="485.04" xlink:href="#Degradado_sin_nombre_20"/></defs><g id="Capa_2" data-name="Capa 2"><g id="pierna_der" data-name="pierna der"><path class="cls-1" d="M726.07,571.75A86.15,86.15,0,0,0,656,503.3l-.51-.09c-.63-.11-1.27-.21-1.91-.29l-.34,0a85.85,85.85,0,0,0-76.26,28.56,9.49,9.49,0,0,0-2.2-1.66,9.31,9.31,0,0,0-4.54-1.17l-3-19.07a43.56,43.56,0,0,0-48.81-36.3l-.25-1.54.76-.12a2.76,2.76,0,0,0,2.3-3.17,2.73,2.73,0,0,0-1.1-1.81,2.77,2.77,0,0,0-2.07-.5l-1.75.28-1.66-10.47a2.58,2.58,0,0,0-2.94-2.14l-22.91,3.64a2.56,2.56,0,0,0-2.14,2.94l1.66,10.47-1.75.28a2.78,2.78,0,0,0-1.2,5,2.73,2.73,0,0,0,1.62.53,2.28,2.28,0,0,0,.45,0l.75-.12.25,1.54a43.58,43.58,0,0,0-35.18,49.63l21.11,133A29.25,29.25,0,0,0,507.84,685l16.9-2.68a30.18,30.18,0,0,1,2.73,11c.7,12.73-6.78,21.33-9.09,23.67a3.53,3.53,0,0,0-.87,1.47,4.72,4.72,0,0,0-3.3,1.41,4.83,4.83,0,0,0-1.43,3.43v11.32h30.34v-8.09a11.65,11.65,0,0,0-11.63-11.63,11.29,11.29,0,0,0-3,.39A38.07,38.07,0,0,0,534.46,693a37.05,37.05,0,0,0-2.6-11.76l29.67-4.71a28,28,0,0,1,3.88,16c-.8,11.88-8.86,19.24-11.3,21.21a3.57,3.57,0,0,0-1.19,1.82c-2.67.43-4.7,2.41-4.7,4.76v11.32h37.43v-8.09c0-6.41-6.41-11.63-14.29-11.63a16.84,16.84,0,0,0-7.27,1.63,36.49,36.49,0,0,0,8.3-20.55,34.63,34.63,0,0,0-3.71-18.08A29.33,29.33,0,0,0,587.54,655c1.73,1.4,3.51,2.72,5.34,4h0l0,0a84.78,84.78,0,0,0,9.85,5.84h0a86.2,86.2,0,0,0,23.52,7.92h0a35.29,35.29,0,0,0,6.7.94h.09c2.79.28,5.62.43,8.47.43a86.12,86.12,0,0,0,78.29-50.38h0a85,85,0,0,0,5.54-16.19s0,0,0,0a85.07,85.07,0,0,0,2.24-19.4A86,86,0,0,0,726.07,571.75ZM572.8,533.28a5.72,5.72,0,0,1,1.55,1.25q-1.38,1.72-2.66,3.53l-.86-5.42A5.48,5.48,0,0,1,572.8,533.28Zm-85-58.8-.76.12a.78.78,0,0,1-.57-.14.75.75,0,0,1-.31-.5.77.77,0,0,1,.64-.88l31.5-5h.12a.74.74,0,0,1,.45.15.72.72,0,0,1,.31.5.77.77,0,0,1-.14.57.75.75,0,0,1-.5.31l-.76.12Zm79.92,198.66a27.94,27.94,0,0,1-4.13,1l-3.2.51-29.35,4.65a42.13,42.13,0,0,0-3.2-5.66,38.65,38.65,0,0,0-4.9-5.88,3.5,3.5,0,0,0-4.89,5,26.36,26.36,0,0,1,2,2.12,32.49,32.49,0,0,1,3.78,5.56L507.53,683a27.31,27.31,0,0,1-31.25-22.69l-21.11-133a41.56,41.56,0,0,1,34.5-47.51l1-.15-.56-3.51,26-4.13.56,3.5,1-.15a41.54,41.54,0,0,1,47.5,34.49l3,19a5.78,5.78,0,0,0-.81.24,8.71,8.71,0,0,0-4.66,4.13,9.8,9.8,0,0,0-.6,7.79,2,2,0,0,0,1.89,1.36.44.44,0,0,0,.16,0,1.36,1.36,0,0,0,.48-.09,2,2,0,0,0,1.25-2.53,5.46,5.46,0,0,1,2.87-6.89l.05,0,1.21,7.61s0,0,0,0a85.73,85.73,0,0,0-12.9,64q.5,2.55,1.14,5a94.7,94.7,0,0,1-18.77-4.44A97,97,0,0,1,492.81,570a3.5,3.5,0,0,0-5.71,4.06,104.2,104.2,0,0,0,50.11,37.66,101.42,101.42,0,0,0,23.28,5.14,85.7,85.7,0,0,0,20,31.8q2.58,2.61,5.37,5A27.39,27.39,0,0,1,567.73,673.14Zm149.68-48.81h0A84.46,84.46,0,0,1,690,656.85a83.81,83.81,0,0,1-84.56,7.08,84.31,84.31,0,0,1-17.33-11.07l-.87-.72-.89-.78q-3-2.64-5.81-5.58-2.24-2.35-4.28-4.89l0,0A83.21,83.21,0,0,1,562.69,617c1.58.13,3.12.22,4.64.27,1.22,0,2.41.06,3.59.06,1.76,0,3.48,0,5.14-.13q3.18-.15,6.09-.47l1-.11,1-.12A101.74,101.74,0,0,0,597.55,614a3.48,3.48,0,0,0,2.58-3.6,2.73,2.73,0,0,0-.1-.68,3.48,3.48,0,0,0-4.28-2.48l-2.46.62h0A95.4,95.4,0,0,1,583,609.62l-1,.12-1,.11c-1.93.2-4,.35-6.09.43s-4.3.11-6.58.05c-2.56-.06-5.23-.23-8-.54-.49-1.86-.93-3.75-1.3-5.66a83.62,83.62,0,0,1,6.62-52c.54-1.12,1.09-2.23,1.67-3.32l0,0c1-1.81,2-3.59,3.09-5.32h0l.82-1.28c.27-.41.54-.82.82-1.22,1-1.52,2.12-3,3.24-4.46a.21.21,0,0,0,.06-.08q1.35-1.71,2.77-3.35a84.31,84.31,0,0,1,15.36-13.83,83.87,83.87,0,0,1,79.63-8.9A84.26,84.26,0,0,1,720,557.69l.54,1.43.17.48c.34.93.66,1.88,1,2.83.45,1.4.87,2.82,1.25,4.25q.71,2.69,1.24,5.45A83.59,83.59,0,0,1,717.41,624.33Z" transform="translate(-452.65 -453.74)"/></g><g id="cuerpo"><path class="cls-2" d="M555.21,541.78c0,.17,0,.33,0,.5a12.68,12.68,0,0,1-24.87,3.45Z" transform="translate(-452.65 -453.74)"/><path class="cls-2" d="M580.48,648.65a85.7,85.7,0,0,1-20-31.8,101.42,101.42,0,0,1-23.28-5.14,104.2,104.2,0,0,1-50.11-37.66,3.5,3.5,0,0,1,5.71-4.06,97,97,0,0,0,46.7,35.11,94.7,94.7,0,0,0,18.77,4.44q-.64-2.47-1.14-5a85.73,85.73,0,0,1,12.9-64s0,0,0,0l-1.21-7.61-.05,0a5.46,5.46,0,0,0-2.87,6.89,2,2,0,0,1-1.25,2.53,1.36,1.36,0,0,1-.48.09.44.44,0,0,1-.16,0,2,2,0,0,1-1.89-1.36,9.8,9.8,0,0,1,.6-7.79,8.71,8.71,0,0,1,4.66-4.13,5.78,5.78,0,0,1,.81-.24l-3-19a41.54,41.54,0,0,0-47.5-34.49l-1,.15-.56-3.5-26,4.13.56,3.51-1,.15a41.56,41.56,0,0,0-34.5,47.51l21.11,133A27.31,27.31,0,0,0,507.53,683l16.27-2.58a32.49,32.49,0,0,0-3.78-5.56,26.36,26.36,0,0,0-2-2.12,3.5,3.5,0,0,1,4.89-5,38.65,38.65,0,0,1,4.9,5.88,42.13,42.13,0,0,1,3.2,5.66l29.35-4.65,3.2-.51a27.94,27.94,0,0,0,4.13-1,27.39,27.39,0,0,0,18.12-19.52Q583.06,651.26,580.48,648.65ZM545,557.75a15.92,15.92,0,0,1-2.47.2,15.7,15.7,0,0,1-15.47-13.22,1.53,1.53,0,0,1,.27-1.12,1.5,1.5,0,0,1,1-.6l28-4.44a1.5,1.5,0,0,1,1.72,1.25A15.68,15.68,0,0,1,545,557.75Z" transform="translate(-452.65 -453.74)"/><path class="cls-3" d="M530.35,545.73l24.86-4c0,.17,0,.33,0,.5a12.68,12.68,0,0,1-24.87,3.45Z" transform="translate(-452.65 -453.74)"/><path class="cls-4" d="M560.49,616.85a101.42,101.42,0,0,1-23.28-5.14,104.2,104.2,0,0,1-50.11-37.66,3.5,3.5,0,0,1,5.71-4.06,97,97,0,0,0,46.7,35.11,94.7,94.7,0,0,0,18.77,4.44q-.64-2.47-1.14-5a85.61,85.61,0,0,1,8-55.83l-1-6.31a.44.44,0,0,1-.16,0,2,2,0,0,1-1.89-1.36,9.8,9.8,0,0,1,.6-7.79l-3.56-22.44A35.38,35.38,0,0,0,540.71,485l-70,11.1a35.41,35.41,0,0,0-9.58,30.21l21.11,133A21.24,21.24,0,0,0,506.58,677L520,674.88a26.36,26.36,0,0,0-2-2.12,3.5,3.5,0,0,1,4.89-5,38.65,38.65,0,0,1,4.9,5.88L556,669.17l6.68-1.06c.5-.08,1-.17,1.47-.29a21.23,21.23,0,0,0,16.36-19.17A85.7,85.7,0,0,1,560.49,616.85Zm-33.16-73.24a1.5,1.5,0,0,1,1-.6l28-4.44a1.5,1.5,0,0,1,1.72,1.25,15.68,15.68,0,0,1-13,17.93,15.92,15.92,0,0,1-2.47.2,15.7,15.7,0,0,1-15.47-13.22A1.53,1.53,0,0,1,527.33,543.61Z" transform="translate(-452.65 -453.74)"/><path class="cls-2" d="M519.19,468.72a.77.77,0,0,1-.14.57.75.75,0,0,1-.5.31l-.76.12-30,4.76-.76.12a.78.78,0,0,1-.57-.14.75.75,0,0,1-.31-.5.77.77,0,0,1,.64-.88l31.5-5h.12a.74.74,0,0,1,.45.15A.72.72,0,0,1,519.19,468.72Z" transform="translate(-452.65 -453.74)"/><g id="burbujas"><rect class="cls-2" x="536.46" y="499.54" width="7.09" height="7.09" rx="3.54" transform="translate(-524.82 -362.89) rotate(-9.02)"/><rect class="cls-2" x="533.82" y="507.4" width="3.54" height="3.54" rx="1.77" transform="translate(-525.83 -363.51) rotate(-9.02)"/><rect class="cls-2" x="496.8" y="656.52" width="7.09" height="7.09" rx="3.54" transform="translate(-549.91 -367.17) rotate(-9.02)"/></g></g><g id="cara"><path class="cls-5" d="M555.22,542.28a12.68,12.68,0,0,1-24.87,3.45l24.86-4C555.22,542,555.22,542.11,555.22,542.28Z" transform="translate(-452.65 -453.74)"/><path class="cls-1" d="M558,539.82a1.5,1.5,0,0,0-1.72-1.25l-28,4.44a1.5,1.5,0,0,0-1,.6,1.53,1.53,0,0,0-.27,1.12A15.7,15.7,0,0,0,542.53,558a15.92,15.92,0,0,0,2.47-.2A15.68,15.68,0,0,0,558,539.82Zm-27.67,5.91,24.86-4c0,.17,0,.33,0,.5a12.68,12.68,0,0,1-24.87,3.45Z" transform="translate(-452.65 -453.74)"/><path class="cls-1" d="M508,551.14a2,2,0,0,1-1.89-1.36c-1.66-4.89.7-10.24,5.26-11.92a8.89,8.89,0,0,1,7.34.66,9.8,9.8,0,0,1,4.85,6.53,2,2,0,0,1-1.53,2.37,2,2,0,0,1-2.38-1.53,5.77,5.77,0,0,0-2.87-3.86,4.88,4.88,0,0,0-4-.42,5.44,5.44,0,0,0-2.86,6.88,2,2,0,0,1-1.25,2.54A2.16,2.16,0,0,1,508,551.14Z" transform="translate(-452.65 -453.74)"/></g><g id="CUERPO-2" data-name="CUERPO"><path class="cls-6" d="M724.11,572.13q-.54-2.76-1.24-5.45c-.38-1.43-.8-2.85-1.25-4.25-.3-.95-.62-1.9-1-2.83l-.17-.48-.54-1.43a84.26,84.26,0,0,0-46.75-47.41,84,84,0,0,0-31.57-6.2A83.86,83.86,0,0,0,578.21,533q-1.43,1.63-2.77,3.35a.21.21,0,0,1-.06.08c-1.12,1.45-2.21,2.94-3.24,4.46-.28.4-.55.81-.82,1.22l-.82,1.28h0c-1.1,1.73-2.13,3.51-3.09,5.32l0,0c-.58,1.09-1.13,2.2-1.67,3.32a83.62,83.62,0,0,0-6.62,52c.37,1.91.81,3.8,1.3,5.66,2.75.31,5.42.48,8,.54q3.42.09,6.58-.05c2.12-.08,4.16-.23,6.09-.43l1-.11,1-.12a95.4,95.4,0,0,0,10.24-1.81h0l2.46-.62a3.48,3.48,0,0,1,4.28,2.48,2.73,2.73,0,0,1,.1.68,3.48,3.48,0,0,1-2.58,3.6,101.74,101.74,0,0,1-13.41,2.59l-1,.12-1,.11q-2.91.32-6.09.47c-1.66.09-3.38.13-5.14.13-1.18,0-2.37,0-3.59-.06-1.52,0-3.06-.14-4.64-.27a83.21,83.21,0,0,0,13.5,23.83l0,0q2,2.54,4.28,4.89,2.78,2.94,5.81,5.58l.89.78.87.72a84.31,84.31,0,0,0,17.33,11.07A83.88,83.88,0,0,0,690,656.85a84.46,84.46,0,0,0,27.46-32.51h0A83.59,83.59,0,0,0,724.11,572.13Z" transform="translate(-452.65 -453.74)"/><path class="cls-7" d="M597.53,564.05h0c-4.61,1.65-8.86,3.16-9.84,4.7a1.09,1.09,0,0,0-.17,1c-1,6.78-6.28,4.83-6.28,4.83,1.1-6.64-1.37-7.7-4.68-5.88-.3.16-.61.35-.93.56s-.6.42-.91.67a27.45,27.45,0,0,0-5.26,5.68h0c-4.08,5.81-6.4,13.33-1,16.7a18.84,18.84,0,0,1,4.26,3.63,15.6,15.6,0,0,1,3.21,5.82c1.23,4.2,2.56,5.66,4.82,5.92a6.69,6.69,0,0,0,1,0c.31,0,.65,0,1-.05,1.37-.13,3-.46,5-.78a8.86,8.86,0,0,1,5.52.92A95.4,95.4,0,0,1,583,609.62l-1,.12-1,.11c-1.93.2-4,.35-6.09.43s-4.3.11-6.58.05a17.36,17.36,0,0,1,1.21-2.77c-.25-2.44,3.21-4.17-1.28-6.51-14.69-4.24-11.61-27.9-2.55-48.7.52-1.21,1.07-2.41,1.63-3.59l0,0c1-1.81,2-3.59,3.09-5.32h0l.82-1.28c.27-.41.54-.82.82-1.22,1-1.52,2.12-3,3.24-4.46,3.49,14.1,26.47-7.51,30.72,14.23C617.77,556.75,606.89,560.7,597.53,564.05Z" transform="translate(-452.65 -453.74)"/><path class="cls-7" d="M605.39,663.93a84.31,84.31,0,0,1-17.33-11.07l-.87-.72-.89-.78q-3-2.64-5.81-5.58-2.24-2.35-4.28-4.89l0,0c-5.13-7.62-8.76-16-8.86-23.56,1.22,0,2.41.06,3.59.06,1.76,0,3.48,0,5.14-.13q3.18-.15,6.09-.47l1-.11,1-.12A101.74,101.74,0,0,0,597.55,614a3.48,3.48,0,0,0,2.58-3.6c4-2.3,7.26-10.16,11.26-3.06C614,626.78,594.46,646.57,605.39,663.93Z" transform="translate(-452.65 -453.74)"/><path class="cls-7" d="M717.41,624.33c-1.6-1.09-2.82-5.51-3-14.23,7.42-40.86-28.63,4.09-37.31-24.73v-.06q-.2-.62-.36-1.29h0a44.56,44.56,0,0,1-1-6.11c-3.74-11.65,20-6.38,25.38-21.81,2.62-3-2.29-6.31-11.13-9.7-11-5.38-13.43,8.82-19.64-.35-8,.88-11.64,4-16.61-7.18-3.62-4.37,1.12-3,2.45-6s1.43-1.09,10.41-2.12c12-.87-11.45-6.36,4-7.18,8.65-2.25,4.27-6.06-2.87-5.48-2.81,0,.67-6.7,5.48-7.82A84.26,84.26,0,0,1,720,557.69l.54,1.43.17.48c.34.93.66,1.88,1,2.83.45,1.4.87,2.82,1.25,4.25q.71,2.69,1.24,5.45A83.59,83.59,0,0,1,717.41,624.33Z" transform="translate(-452.65 -453.74)"/><path class="cls-2" d="M690,656.85A83.93,83.93,0,0,1,622.54,670c.72-3.37,15.07-7.32,32.85-10.76C673.77,655.64,688.88,653.59,690,656.85Z" transform="translate(-452.65 -453.74)"/><path class="cls-2" d="M660.58,506.27c-1.24,3-15.5,6.33-33,9.72-18.66,3.62-33.43,6.43-34,3.3a.41.41,0,0,1,0-.11,83.78,83.78,0,0,1,67-12.91Z" transform="translate(-452.65 -453.74)"/></g><g id="CARA-2" data-name="CARA"><circle class="cls-2" cx="159.78" cy="132.83" r="7.09"/><circle class="cls-2" cx="215.43" cy="122.04" r="7.09"/><circle class="cls-8" cx="159.78" cy="132.83" r="4.61"/><circle class="cls-8" cx="215.43" cy="122.04" r="4.61"/><path class="cls-8" d="M641.62,597.3a9.1,9.1,0,0,1-8.92-7.36,2,2,0,0,1,3.93-.76,5.08,5.08,0,0,0,10-1.94,2,2,0,0,1,3.93-.76,9.1,9.1,0,0,1-7.19,10.65A9.3,9.3,0,0,1,641.62,597.3Z" transform="translate(-452.65 -453.74)"/><rect class="cls-9" x="607.38" y="593.54" width="14.17" height="7.09" rx="3.54" transform="translate(-555.08 -325.84) rotate(-10.97)"/><rect class="cls-9" x="663.04" y="582.75" width="14.17" height="7.09" rx="3.54" transform="translate(-552.01 -315.45) rotate(-10.97)"/></g><path class="cls-10" d="M542.6,530.43" transform="translate(-452.65 -453.74)"/></g></svg>