<svg xmlns="http://www.w3.org/2000/svg" xmlns:xlink="http://www.w3.org/1999/xlink" viewBox="0 0 230.79 215.25">
  <defs>
    <style>
      .cls-1 {
        fill: none;
        stroke: #00bf8d;
        stroke-width: 10px;
      }

      .cls-1, .cls-4 {
        stroke-linecap: round;
        stroke-linejoin: round;
      }

      .cls-2 {
        fill: #fff;
        stroke-miterlimit: 10;
        stroke-width: 2px;
      }

      .cls-2, .cls-4 {
        stroke: #2d525e;
      }

      .cls-3 {
        opacity: 0.5;
        fill: url(#Degradado_sin_nombre_8);
      }

      .cls-4 {
        fill: #4b8a98;
        stroke-width: 3px;
      }

      .cls-5 {
        fill: #2d525e;
      }

      .cls-6 {
        fill: #f5cb5c;
      }

      .cls-7 {
        fill: #e87461;
      }

      .cls-8 {
        fill: #f2ac5f;
      }
    </style>
    <linearGradient id="Degradado_sin_nombre_8" data-name="Degradado sin nombre 8" x1="120.81" y1="207.16" x2="120.81" y2="22.91" gradientUnits="userSpaceOnUse">
      <stop offset="0" stop-color="#6ccef5" stop-opacity="0.5"/>
      <stop offset="1" stop-color="#6ccef5" stop-opacity="0"/>
    </linearGradient>
  </defs>
  <g id="Capa_6" data-name="Capa 6">
    <g>
      <path class="cls-1" d="M97.9,199.76A290.31,290.31,0,0,1,181.24,70.87"/>
      <path class="cls-1" d="M107.46,205.73A290.35,290.35,0,0,1,122.87,53"/>
      <path class="cls-1" d="M132.89,196.26a290.53,290.53,0,0,0-34.4-72.2A290.51,290.51,0,0,0,49.55,67.37"/>
      <g>
        <path class="cls-2" d="M170.41,107.49H64.11v78.45a28.31,28.31,0,0,0,28.31,28.31h56.77a28.3,28.3,0,0,0,28.31-28.31V107.49Z"/>
        <path class="cls-3" d="M71.2,185.94a21.24,21.24,0,0,0,21.22,21.22h56.77a21.24,21.24,0,0,0,21.22-21.22V107.49H71.2Z"/>
        <g id="cara">
          <path class="cls-4" d="M106.63,149.61H135a0,0,0,0,1,0,0v0a14.17,14.17,0,0,1-14.17,14.17h0a14.17,14.17,0,0,1-14.17-14.17v0A0,0,0,0,1,106.63,149.61Z" transform="translate(241.61 313.38) rotate(180)"/>
          <path class="cls-5" d="M96.39,149.65l4.13-4a2.78,2.78,0,1,0-3.89-4l-4.12,4-4-4.13a2.78,2.78,0,0,0-4,3.89l4,4.13-4.13,4a2.78,2.78,0,1,0,3.89,4l4.13-4,4,4.13a2.78,2.78,0,0,0,4-3.89Z"/>
          <path class="cls-5" d="M153.09,149.65l4.13-4a2.78,2.78,0,0,0-3.89-4l-4.13,4-4-4.13a2.78,2.78,0,0,0-4,3.89l4,4.13-4.13,4a2.78,2.78,0,1,0,3.89,4l4.13-4,4,4.13a2.78,2.78,0,0,0,4-3.89Z"/>
        </g>
      </g>
      <g>
        <path class="cls-6" d="M181.67,69.75,153.73,82.66a15.53,15.53,0,0,1-22-13.42h0a15.53,15.53,0,0,1,23-14.29Z"/>
        <path class="cls-6" d="M181.67,69.75,155.06,54.29a15.53,15.53,0,0,1-1.66-25.74h0a15.53,15.53,0,0,1,24.89,10.61Z"/>
        <path class="cls-6" d="M181.67,69.75l-2.62-30.67A15.53,15.53,0,0,1,199.18,23h0a15.53,15.53,0,0,1,5.6,26.47Z"/>
        <path class="cls-6" d="M181.67,69.75,205.28,50A15.52,15.52,0,0,1,230,57.22h0A15.52,15.52,0,0,1,211.59,77Z"/>
        <path class="cls-6" d="M181.67,69.75l29.73,8a15.53,15.53,0,0,1,8.31,24.42h0a15.53,15.53,0,0,1-26.8-3.75Z"/>
        <path class="cls-6" d="M181.67,69.75,192.2,98.68A15.52,15.52,0,0,1,177,119.5h0a15.53,15.53,0,0,1-12.32-24.09Z"/>
      </g>
      <g>
        <path class="cls-7" d="M49.12,66.25,77.06,79.16a15.53,15.53,0,0,0,22-13.42h0a15.53,15.53,0,0,0-23-14.29Z"/>
        <path class="cls-7" d="M49.12,66.25,75.73,50.79A15.53,15.53,0,0,0,77.38,25h0A15.53,15.53,0,0,0,52.5,35.66Z"/>
        <path class="cls-7" d="M49.12,66.25l2.62-30.67A15.53,15.53,0,0,0,31.61,19.45h0A15.53,15.53,0,0,0,26,45.92Z"/>
        <path class="cls-7" d="M49.12,66.25,25.51,46.5A15.52,15.52,0,0,0,.75,53.72h0A15.52,15.52,0,0,0,19.2,73.5Z"/>
        <path class="cls-7" d="M49.12,66.25l-29.73,8a15.53,15.53,0,0,0-8.31,24.42h0a15.53,15.53,0,0,0,26.8-3.75Z"/>
        <path class="cls-7" d="M49.12,66.25,38.59,95.18A15.52,15.52,0,0,0,53.81,116h0A15.52,15.52,0,0,0,66.12,91.91Z"/>
      </g>
      <g>
        <path class="cls-8" d="M120.43,48.38,107.16,76.15a15.52,15.52,0,0,1-25.52,3.73h0A15.52,15.52,0,0,1,90.2,54.22Z"/>
        <path class="cls-8" d="M120.43,48.38,90.07,53.46A15.52,15.52,0,0,1,72.36,34.71h0A15.53,15.53,0,0,1,98.29,27Z"/>
        <path class="cls-8" d="M120.43,48.38,98.83,26.44A15.52,15.52,0,0,1,104,1.18h0A15.53,15.53,0,0,1,125.23,18Z"/>
        <path class="cls-8" d="M120.43,48.38,126,18.11A15.53,15.53,0,0,1,149.66,7.85h0a15.53,15.53,0,0,1-1.58,27Z"/>
        <path class="cls-8" d="M120.43,48.38l28-12.83a15.52,15.52,0,0,1,22,13.49h0a15.53,15.53,0,0,1-23,14.22Z"/>
        <path class="cls-8" d="M120.43,48.38,147,63.92a15.53,15.53,0,0,1,1.58,25.75h0A15.52,15.52,0,0,1,123.72,79Z"/>
      </g>
    </g>
  </g>
</svg>
