<svg xmlns="http://www.w3.org/2000/svg" viewBox="0 0 473.77 489.04"><defs><style>.cls-1{fill:#181c1b;}.cls-2{fill:#213c7e;}.cls-3{fill:#244d9d;}.cls-4{fill:#203c7b;}.cls-5{fill:#223261;}.cls-6{fill:#010101;}.cls-7{fill:#fff;}</style></defs><g id="Capa_2" data-name="Capa 2"><g id="Capa_1-2" data-name="Capa 1"><path class="cls-1" d="M67.2,368.58A26.46,26.46,0,0,0,29,392.32v70.19A26.49,26.49,0,0,0,78.2,476.08a40.52,40.52,0,0,1-11-27.76Z"/><path class="cls-1" d="M395.67,476A26.49,26.49,0,0,0,445,462.51V392.32a26.47,26.47,0,0,0-38.4-23.67v79.67A40.54,40.54,0,0,1,395.67,476Z"/><path class="cls-2" d="M429,9.33A9.33,9.33,0,0,0,419.64,0H54.13A9.33,9.33,0,0,0,44.8,9.33V24.51H429Z"/><path class="cls-3" d="M469.24,24.51H4.53A4.53,4.53,0,0,0,0,29V53.13a4.53,4.53,0,0,0,4.53,4.54H469.24a4.53,4.53,0,0,0,4.53-4.54V29A4.53,4.53,0,0,0,469.24,24.51Z"/><path class="cls-4" d="M406.46,57.67h-94.6v40h-9.22v-40H172.7v40h-9.22v-40h-96v40l-.24-.2V448.32A40.8,40.8,0,0,0,107.9,489h42V411.08h0a86.92,86.92,0,0,1,173.81,0h0V489h42a40.78,40.78,0,0,0,40.69-40.69V97.58l-.11.09ZM322.34,145c-5.09-6.44-11.25-8.22-19.49-6.79C309.5,131.7,321.6,135.39,322.34,145ZM192.26,172.88a43.9,43.9,0,0,0-24,0A18.08,18.08,0,0,1,192.26,172.88Zm-12,69.67c-9.73,0-17.62-10.64-17.62-23.76S170.51,195,180.24,195s17.63,10.64,17.63,23.77S190,242.55,180.24,242.55Zm42.15,10.57a197.14,197.14,0,0,1,48.06,0A198.15,198.15,0,0,1,222.39,253.12Zm90.21-10.57c-9.74,0-17.63-10.64-17.63-23.76S302.86,195,312.6,195s17.63,10.64,17.63,23.77S322.33,242.55,312.6,242.55Z"/><polygon class="cls-5" points="67.44 57.67 67.2 57.67 20.52 57.67 67.2 97.47 67.44 97.67 67.44 57.67"/><polygon class="cls-5" points="406.46 57.67 406.46 97.67 406.57 97.58 453.38 57.67 406.57 57.67 406.46 57.67"/><rect class="cls-5" x="163.48" y="57.67" width="9.22" height="40.01"/><rect class="cls-5" x="302.64" y="57.67" width="9.22" height="40.01"/><path class="cls-3" d="M323.84,411.08h0a86.92,86.92,0,0,0-173.81,0h0v78h173.9v-78ZM158.2,461.92A10.92,10.92,0,0,1,169.12,451H304.65a10.92,10.92,0,0,1,10.92,10.92v16.24a.29.29,0,0,1-.28.28H158.48a.29.29,0,0,1-.28-.28Z"/><path class="cls-5" d="M315.29,478.44a.29.29,0,0,0,.28-.28V461.92A10.92,10.92,0,0,0,304.65,451H169.12a10.92,10.92,0,0,0-10.92,10.92v16.24a.29.29,0,0,0,.28.28Z"/><path class="cls-6" d="M322.34,145c-.74-9.62-12.84-13.31-19.49-6.79C311.09,136.79,317.25,138.57,322.34,145Z"/><path class="cls-6" d="M180.24,195c-9.73,0-17.62,10.64-17.62,23.77s7.89,23.76,17.62,23.76,17.63-10.64,17.63-23.76S190,195,180.24,195Zm-.53,16.7a5.5,5.5,0,1,1,5.08-5.48A5.29,5.29,0,0,1,179.71,211.72Z"/><ellipse class="cls-7" cx="179.71" cy="206.24" rx="5.08" ry="5.48"/><path class="cls-6" d="M312.6,195c-9.74,0-17.63,10.64-17.63,23.77s7.89,23.76,17.63,23.76,17.63-10.64,17.63-23.76S322.33,195,312.6,195Zm0,16.7a5.5,5.5,0,1,1,5.08-5.48A5.29,5.29,0,0,1,312.6,211.72Z"/><path class="cls-7" d="M312.6,200.76a5.5,5.5,0,1,0,5.08,5.48A5.29,5.29,0,0,0,312.6,200.76Z"/><path class="cls-6" d="M222.39,253.12a198.15,198.15,0,0,0,48.06,0A197.14,197.14,0,0,0,222.39,253.12Z"/><path class="cls-6" d="M192.26,172.88a18.08,18.08,0,0,0-24,0A43.9,43.9,0,0,1,192.26,172.88Z"/></g></g></svg>