<svg xmlns="http://www.w3.org/2000/svg" viewBox="0 0 455.68 489.04"><defs><style>.cls-1{fill:#646464;}.cls-2{fill:#737373;}.cls-3{fill:#6e6e6e;}.cls-4{fill:#828383;}.cls-5{fill:#a5a4a4;}.cls-6{fill:#b8b7b7;}.cls-7{fill:#d8d8d8;}.cls-8{fill:#434545;}.cls-9{fill:#1f1f1f;}.cls-10{fill:#181c1b;}.cls-11{fill:#f29395;}.cls-12{fill:#010101;}.cls-13{fill:#fff;}</style></defs><g id="Capa_2" data-name="Capa 2"><g id="Capa_1-2" data-name="Capa 1"><polygon class="cls-1" points="14.94 57.67 27.25 71.78 27.25 57.67 14.94 57.67"/><polygon class="cls-1" points="405 93.85 435.15 57.67 405 57.67 405 93.85"/><path class="cls-1" d="M353.13,427.24c0-34.07,17.86-61.68,39.89-61.68h12V347C323.91,336.39,336.33,473.87,337.94,489h29.58a34.79,34.79,0,0,0,13.69-2.84C364.94,478.38,353.13,455,353.13,427.24Z"/><path class="cls-2" d="M405,347V57.67H374.47l-15.37,40h-3.91v-40H298.57V448.32A40.7,40.7,0,0,1,257.87,489h80.07C336.33,473.87,323.91,336.39,405,347Z"/><path class="cls-3" d="M306.91,9.33V24.51H420.38V9.33A9.33,9.33,0,0,0,411.05,0H297.58A9.33,9.33,0,0,1,306.91,9.33Z"/><path class="cls-4" d="M310.27,57.67h60.15l4.07-.06,0,.06H439a15.12,15.12,0,0,0,15.11-15.12V39.62A15.11,15.11,0,0,0,439,24.51H310.27Zm133-27.62c4.45,0,8.06,4.79,8.06,10.7s-3.61,10.69-8.06,10.69-8.06-4.79-8.06-10.69S438.79,30.05,443.24,30.05Z"/><path class="cls-5" d="M298.57,448.32V57.67H205.46v40h-3.91l-15.37-40H95v40H91l-15.37-40H27.25v408.5A22.85,22.85,0,0,0,50.1,489H68.19V478.44H54.33a.29.29,0,0,1-.28-.28V461.92A10.92,10.92,0,0,1,65,451h3.22V412.92c0-.61,0-1.22,0-1.84a86.92,86.92,0,0,1,173.81,0c0,.62.05,1.23.05,1.84V489h15.78A40.7,40.7,0,0,0,298.57,448.32ZM104.63,155.59a42.72,42.72,0,0,0-23.49,0A17.65,17.65,0,0,1,104.63,155.59Zm-12,66.58c-5.39,0-9.75-1.9-9.75-4.25s4.36-4.25,9.75-4.25,9.74,1.9,9.74,4.25S98,222.17,92.63,222.17ZM92.88,211a16.84,16.84,0,1,1,17.24-16.84A17,17,0,0,1,92.88,211Zm41.21-8.23a192.89,192.89,0,0,1,47,0A193.39,193.39,0,0,1,134.09,202.78Zm97.73-74.44c-5-6.3-11-8-19.06-6.64C219.26,115.32,231.1,118.92,231.82,128.34Zm-9.27,93.83c-5.38,0-9.75-1.9-9.75-4.25s4.37-4.25,9.75-4.25,9.75,1.9,9.75,4.25S227.93,222.17,222.55,222.17ZM222.29,211a16.84,16.84,0,1,1,17.24-16.84A17,17,0,0,1,222.29,211Z"/><path class="cls-6" d="M295.75,24.51h11.16V9.33A9.33,9.33,0,0,0,297.58,0H24.27a9.33,9.33,0,0,0-9.33,9.33V24.51H295.75Z"/><path class="cls-7" d="M200.5,451h41.59V412.92c0-.61,0-1.22-.05-1.84a86.92,86.92,0,0,0-173.81,0c0,.62,0,1.23,0,1.84V451H200.5Z"/><polygon class="cls-7" points="211.14 478.44 84.72 478.44 68.19 478.44 68.19 489.01 68.19 489.04 113.09 489.04 197.18 489.04 242.09 489.04 242.09 489.01 242.09 478.44 211.14 478.44"/><path class="cls-8" d="M211.42,461.92v16.24a.29.29,0,0,1-.28.28h31V451H200.5A10.92,10.92,0,0,1,211.42,461.92Z"/><path class="cls-5" d="M443.24,51.44c4.45,0,8.06-4.79,8.06-10.69s-3.61-10.7-8.06-10.7-8.06,4.79-8.06,10.7S438.79,51.44,443.24,51.44Z"/><path class="cls-9" d="M375.9,427.24c0-34.07,17.86-61.68,39.89-61.68H393c-22,0-39.89,27.61-39.89,61.68,0,27.71,11.81,51.14,28.08,58.93A27.14,27.14,0,0,0,393,488.93h22.77C393.76,488.93,375.9,461.31,375.9,427.24Z"/><path class="cls-9" d="M416.54,365.56h-.75c.25,0,.5.05.75.05Z"/><path class="cls-10" d="M416.54,365.61c-.25,0-.5-.05-.75-.05-22,0-39.89,27.61-39.89,61.68s17.86,61.69,39.89,61.69,39.89-27.62,39.89-61.69C455.68,393.56,438.22,366.24,416.54,365.61Zm-.75,88.12c-9.46,0-17.13-11.86-17.13-26.49s7.67-26.48,17.13-26.48,17.13,11.86,17.13,26.48S425.25,453.73,415.79,453.73Z"/><ellipse class="cls-5" cx="415.79" cy="427.24" rx="17.13" ry="26.48"/><path class="cls-7" d="M49.85,57.67H75.67l0-.06,4.07.06H186.18l0-.06,4.07.06h120V24.51H3.69A3.69,3.69,0,0,0,0,28.2V54a3.7,3.7,0,0,0,3.69,3.7H49.85Z"/><polygon class="cls-1" points="75.65 57.61 75.67 57.67 91.04 97.67 94.95 97.67 94.95 57.67 79.72 57.67 75.65 57.61"/><polygon class="cls-1" points="186.16 57.61 186.18 57.67 201.55 97.67 205.46 97.67 205.46 57.67 190.23 57.67 186.16 57.61"/><polygon class="cls-1" points="370.42 57.67 355.19 57.67 355.19 97.67 359.1 97.67 374.47 57.67 374.49 57.61 370.42 57.67"/><path class="cls-1" d="M211.14,478.44a.29.29,0,0,0,.28-.28V461.92A10.92,10.92,0,0,0,200.5,451H65a10.92,10.92,0,0,0-10.92,10.92v16.24a.29.29,0,0,0,.28.28H211.14Z"/><ellipse class="cls-11" cx="92.63" cy="217.92" rx="9.75" ry="4.25"/><path class="cls-11" d="M222.55,213.67c-5.38,0-9.75,1.9-9.75,4.25s4.37,4.25,9.75,4.25,9.75-1.9,9.75-4.25S227.93,213.67,222.55,213.67Z"/><path class="cls-12" d="M92.88,177.34a16.84,16.84,0,1,0,17.24,16.83A17,17,0,0,0,92.88,177.34Zm-.51,11.83c-2.75,0-5-1.74-5-3.88s2.22-3.88,5-3.88,5,1.74,5,3.88S95.11,189.17,92.37,189.17Z"/><ellipse class="cls-13" cx="92.37" cy="185.29" rx="4.97" ry="3.88"/><path class="cls-12" d="M222.29,177.34a16.84,16.84,0,1,0,17.24,16.83A17,17,0,0,0,222.29,177.34Zm0,11.83c-2.74,0-5-1.74-5-3.88s2.23-3.88,5-3.88,5,1.74,5,3.88S225,189.17,222.29,189.17Z"/><path class="cls-13" d="M222.29,181.41c-2.74,0-5,1.74-5,3.88s2.23,3.88,5,3.88,5-1.74,5-3.88S225,181.41,222.29,181.41Z"/><path class="cls-12" d="M231.82,128.34c-.72-9.42-12.56-13-19.06-6.64C220.82,120.3,226.84,122,231.82,128.34Z"/><path class="cls-12" d="M134.09,202.78a193.39,193.39,0,0,0,47,0A192.89,192.89,0,0,0,134.09,202.78Z"/><path class="cls-12" d="M104.63,155.59a17.65,17.65,0,0,0-23.49,0A42.72,42.72,0,0,1,104.63,155.59Z"/></g></g></svg>