<svg xmlns="http://www.w3.org/2000/svg" viewBox="0 0 212.54 202.07">
  <defs>
    <style>
      .cls-1 {
        fill: #1a535c;
      }
    </style>
  </defs>
  <g id="Capa_2" data-name="Capa 2">
    <g id="Capa_1-2" data-name="Capa 1">
      <g>
        <path class="cls-1" d="M211.49,98.57Q202.19,82.81,192.91,67c-.29-.49-.6-1-.93-1.5L147.5,89.75c.34.62.57,1.06.82,1.5q16.44,29.1,32.92,58.18a22.54,22.54,0,0,1,2.57,6.8c1,5.07,1.34,10.1-1.1,14.74a61.48,61.48,0,0,1-4.83,6.9c-.26.36-.51.73-.76,1.09l.32.29a9,9,0,0,0,.87-.88c1.59-2.08,3.16-4.19,4.75-6.28a202.89,202.89,0,0,0,17.49-26.21c5.65-10.4,9.78-21.41,11.27-33.47.23-1.93.48-3.86.72-5.79v-6.46C212.19,99.63,211.81,99.12,211.49,98.57Z"/>
        <path class="cls-1" d="M179.17,153.84A94.75,94.75,0,0,0,170,136.18a1.91,1.91,0,0,0-1.51-.65c-8.61.51-17.22,1.07-25.83,1.61-2.83.18-5.67.34-8.64.51-.45-5-.88-9.91-1.35-15.21l-24.37,38.95c.28.52.52,1,.77,1.4q10.62,18.83,21.25,37.68a16.56,16.56,0,0,1,.72,1.6h.51c.35-5.09.72-10.17,1-15.26.06-1,.36-1.47,1.33-1.55,3.23-.26,6.45-.59,9.67-.9,9.06-.87,18.12-1.73,27.17-2.67a2.35,2.35,0,0,0,1.62-1.06c1.86-3.2,3.71-6.42,5.39-9.73C180.49,165.47,181.51,159.89,179.17,153.84Z"/>
        <path class="cls-1" d="M122.4,53.11l-11.46,9.62c.48.06.65.1.81.1q22.32.59,44.62,1.19c.91,0,1.3-.46,1.72-1.16q9.24-15.06,18.49-30.12,2.67-4.37,5.33-8.72l-.15-.21L170.3,30a2.77,2.77,0,0,1-.35-.42q-1.12-2-2.24-3.94C161.87,15.05,154.51,6.2,144.25.53A3.83,3.83,0,0,0,142.44,0C127.26.16,112.08.32,96.9.58c-3.35.06-6.7.47-10.06.76a8.33,8.33,0,0,0-1.63.53C101.65,15.75,113.62,33,122.4,53.11Z"/>
        <path class="cls-1" d="M25.88,134.17a30.33,30.33,0,0,1-10.74-2c-4-1.57-7.86-3.59-10.41-7.45A65.2,65.2,0,0,1,1,117.24l-.69-1.37L0,116a7.41,7.41,0,0,0,.27,1.08c1.14,2.61,2.3,5.21,3.45,7.82A214.46,214.46,0,0,0,16.4,150c8.89,14.7,20.14,26.62,34.68,34.65a5.18,5.18,0,0,0,2.33.61q19.07,0,38.15,0h1.53c.29-16.73.57-33.3.86-49.89-.49,0-.79-.07-1.09-.08C70.53,134.88,48.21,134.45,25.88,134.17Z"/>
        <path class="cls-1" d="M7.3,120.6a20.82,20.82,0,0,0,14.81,9.7,117.65,117.65,0,0,0,19.21,1A1.88,1.88,0,0,0,43.21,130q7.2-14.41,14.47-28.79c.22-.44.48-.85.73-1.32l14,6.41a6.28,6.28,0,0,0-.28-.68Q61.46,86.37,50.74,67.1a2.08,2.08,0,0,0-1.52-.88c-15.08-.33-30.17-.59-45.25-.87H2.75l-.06.29,14.17,9.29c-.31.69-.56,1.27-.83,1.84q-7.4,16-14.82,32.07a2.13,2.13,0,0,0,.08,2.3C3.31,114.28,5.23,117.5,7.3,120.6Z"/>
        <path class="cls-1" d="M79.49,4c-6.55-1.52-12.95-.43-19.3,1.34a2.35,2.35,0,0,0-1,.8c-2.21,2.61-4.7,5-6.55,7.92-4.86,7.6-9.44,15.41-14.12,23.14a1.88,1.88,0,0,0-.11.51L80.1,63.48,103.89,24c-3.11-3.51-6.09-7-9.22-10.36C90.38,9.08,85.53,5.43,79.49,4Z"/>
      </g>
    </g>
  </g>
</svg>
