<svg xmlns="http://www.w3.org/2000/svg" viewBox="0 0 455.68 489.04"><defs><style>.cls-1{fill:#0e6533;}.cls-2{fill:#016e37;}.cls-3{fill:#217341;}.cls-4{fill:#1d5127;}.cls-5{fill:#197f40;}.cls-6{fill:#19803c;}.cls-7{fill:#189d4f;}.cls-8{fill:#08612d;}.cls-9{fill:#a5a4a4;}.cls-10{fill:#1f1f1f;}.cls-11{fill:#181c1b;}.cls-12{fill:#010101;}.cls-13{fill:#fff;}</style></defs><g id="Capa_2" data-name="Capa 2"><g id="Capa_1-2" data-name="Capa 1"><polygon class="cls-1" points="428.43 71.78 440.74 57.67 428.43 57.67 428.43 71.78"/><polygon class="cls-1" points="20.53 57.67 50.69 93.85 50.69 57.67 20.53 57.67"/><path class="cls-1" d="M50.69,347v18.61h12c22,0,39.89,27.64,39.89,61.74,0,27.66-11.76,51.07-28,58.92A34.73,34.73,0,0,0,88.16,489h29.58C119.35,473.87,131.78,336.39,50.69,347Z"/><path class="cls-2" d="M157.12,448.32V57.67H100.49v40H96.58l-15.36-40H50.69V347c81.09-10.56,68.66,126.92,67.05,142.06h80.07A40.69,40.69,0,0,1,157.12,448.32Z"/><path class="cls-3" d="M148.77,24.51V9.33A9.33,9.33,0,0,1,158.1,0H44.63A9.33,9.33,0,0,0,35.3,9.33V24.51H148.77Z"/><path class="cls-4" d="M53.87,57.67H81.22l0-.06,4.07.06h60.15V24.51H16.71A15.11,15.11,0,0,0,1.6,39.62v2.93A15.12,15.12,0,0,0,16.71,57.67H53.87ZM12.44,51.44c-4.45,0-8.06-4.79-8.06-10.69S8,30.05,12.44,30.05s8.06,4.79,8.06,10.7S16.89,51.44,12.44,51.44Z"/><path class="cls-5" d="M405.84,57.67H380l-15.36,40h-3.91v-40H269.5l-15.36,40h-3.91v-40H157.12V448.32A40.69,40.69,0,0,0,197.81,489h15.78V412.92c0-.61,0-1.22,0-1.84a86.92,86.92,0,0,1,173.81,0c0,.62.05,1.23.05,1.84V451h3.21a10.92,10.92,0,0,1,10.92,10.92v16.24a.29.29,0,0,1-.28.28H387.5V489h18.08a22.85,22.85,0,0,0,22.85-22.84V57.67Zm-26,81.69c-5-6.3-11-8-19-6.64C367.24,126.35,379.07,130,379.79,139.36Zm-127.1,27.23a42.81,42.81,0,0,0-23.49,0A17.67,17.67,0,0,1,252.69,166.59ZM241,222a20.36,20.36,0,1,1,20.83-20.35A20.6,20.6,0,0,1,241,222Zm41.18,18.55a193.15,193.15,0,0,1,47,0A192.65,192.65,0,0,1,282.13,240.52ZM370.27,222a16.82,16.82,0,1,1,17.23-16.82A17,17,0,0,1,370.27,222Z"/><path class="cls-6" d="M148.77,9.33V24.51h292V9.33A9.33,9.33,0,0,0,431.41,0H158.1A9.33,9.33,0,0,0,148.77,9.33Z"/><polygon class="cls-1" points="375.96 57.67 360.74 57.67 360.74 97.67 375.96 57.67"/><path class="cls-7" d="M371,451H387.5V412.92c0-.61,0-1.22-.05-1.84a86.92,86.92,0,0,0-173.81,0c0,.62,0,1.23,0,1.84V451H371Z"/><polygon class="cls-7" points="370.96 478.44 244.54 478.44 213.59 478.44 213.59 489.01 213.59 489.04 258.5 489.04 342.59 489.04 387.5 489.04 387.5 489.01 387.5 478.44 370.96 478.44"/><path class="cls-8" d="M244.26,478.16V461.92A10.92,10.92,0,0,1,255.18,451H213.59v27.44h30.95A.29.29,0,0,1,244.26,478.16Z"/><path class="cls-9" d="M12.44,30.05c-4.45,0-8.06,4.79-8.06,10.7S8,51.44,12.44,51.44s8.06-4.79,8.06-10.69S16.89,30.05,12.44,30.05Z"/><path class="cls-10" d="M39.15,365.56v.06c.25,0,.49-.06.74-.06Z"/><path class="cls-10" d="M102.55,427.3c0-34.1-17.86-61.74-39.89-61.74H39.89c22,0,39.89,27.61,39.89,61.68s-17.86,61.69-39.89,61.69h0V489H62.66a27.13,27.13,0,0,0,11.93-2.82C90.79,478.37,102.55,455,102.55,427.3Z"/><path class="cls-11" d="M79.78,427.24c0-34.07-17.86-61.68-39.89-61.68-.25,0-.49.05-.74.06C17.46,366.24,0,393.56,0,427.24c0,34.07,17.86,61.69,39.89,61.69h0C61.92,488.93,79.78,461.31,79.78,427.24Zm-57,0c0-14.62,7.66-26.48,17.12-26.48S57,412.62,57,427.24s-7.67,26.49-17.13,26.49S22.77,441.87,22.77,427.24Z"/><path class="cls-9" d="M39.89,453.73c9.46,0,17.13-11.86,17.13-26.49s-7.67-26.48-17.13-26.48-17.12,11.86-17.12,26.48S30.43,453.73,39.89,453.73Z"/><path class="cls-7" d="M452,24.51H145.41V57.67h120l4.07-.06,0,.06H376l4.07-.06,0,.06h72a3.7,3.7,0,0,0,3.69-3.7V28.2A3.69,3.69,0,0,0,452,24.51Z"/><polygon class="cls-3" points="364.65 97.67 380.01 57.67 380.03 57.61 375.96 57.67 360.74 97.67 364.65 97.67"/><polygon class="cls-1" points="265.45 57.67 250.22 57.67 250.22 97.67 265.45 57.67"/><polygon class="cls-3" points="254.13 97.67 269.5 57.67 269.52 57.61 265.45 57.67 250.22 97.67 254.13 97.67"/><polygon class="cls-1" points="100.49 97.67 100.49 57.67 85.26 57.67 100.49 97.67"/><polygon class="cls-3" points="81.19 57.61 81.22 57.67 96.58 97.67 100.49 97.67 85.26 57.67 81.19 57.61"/><path class="cls-1" d="M255.18,451a10.92,10.92,0,0,0-10.92,10.92v16.24a.29.29,0,0,0,.28.28H401.35a.29.29,0,0,0,.28-.28V461.92A10.92,10.92,0,0,0,390.71,451H255.18Z"/><path class="cls-12" d="M241,181.27a20.36,20.36,0,1,0,20.83,20.35A20.6,20.6,0,0,0,241,181.27Zm-.63,14.3c-3.32,0-6-2.1-6-4.69s2.69-4.69,6-4.69,6,2.1,6,4.69S243.63,195.57,240.32,195.57Z"/><path class="cls-13" d="M240.32,186.19c-3.32,0-6,2.1-6,4.69s2.69,4.69,6,4.69,6-2.1,6-4.69S243.63,186.19,240.32,186.19Z"/><path class="cls-12" d="M370.27,188.33a16.82,16.82,0,1,0,17.23,16.82A17,17,0,0,0,370.27,188.33Zm0,11.82c-2.74,0-5-1.74-5-3.88s2.22-3.88,5-3.88,5,1.74,5,3.88S373,200.15,370.27,200.15Z"/><ellipse class="cls-13" cx="370.27" cy="196.27" rx="4.96" ry="3.88"/><path class="cls-12" d="M379.79,139.36c-.72-9.41-12.55-13-19-6.64C368.8,131.32,374.81,133.06,379.79,139.36Z"/><path class="cls-12" d="M282.13,240.52a192.65,192.65,0,0,0,47,0A193.15,193.15,0,0,0,282.13,240.52Z"/><path class="cls-12" d="M252.69,166.59a17.67,17.67,0,0,0-23.49,0A42.81,42.81,0,0,1,252.69,166.59Z"/></g></g></svg>