<svg xmlns="http://www.w3.org/2000/svg" viewBox="0 0 327.73 345.61"><defs><style>.cls-1{fill:#e87461;}.cls-2{fill:#fff;}.cls-3{fill:#994941;}</style></defs><g id="Capa_7" data-name="Capa 7"><g id="cuerpo"><rect class="cls-1" x="1.28" y="235.94" width="216.79" height="108.4" rx="13.74"/><path class="cls-1" d="M45.35,217.87H65.6a7.94,7.94,0,0,1,7.94,7.94v10.13a0,0,0,0,1,0,0H37.41a0,0,0,0,1,0,0V225.81A7.94,7.94,0,0,1,45.35,217.87Z"/><rect class="cls-1" x="145.8" y="234.67" width="36.12" height="1.27"/></g><g id="cuerpo-2" data-name="cuerpo"><path class="cls-1" d="M163.89,172.47H182a9.08,9.08,0,0,1-18.15,0,9.53,9.53,0,0,1,.09-1.19Z"/><path class="cls-1" d="M238.67,181.54a11.57,11.57,0,0,1-20.61,7.24,11.57,11.57,0,0,1-20.61-7.24,2.55,2.55,0,0,1,5.1,0,6.48,6.48,0,1,0,13,0,2.55,2.55,0,0,1,5.1,0,6.48,6.48,0,1,0,13,0,2.55,2.55,0,0,1,5.1,0Z"/><path class="cls-1" d="M254.17,172.47h18.15a9.08,9.08,0,0,1-18.15,0Z"/><path class="cls-1" d="M308.94,127.74H127.18a17.23,17.23,0,0,0-6.56,1.28,17.47,17.47,0,0,0-11,16.23v73.37a17.51,17.51,0,0,0,10.5,16,17.28,17.28,0,0,0,4.45,1.27,16.59,16.59,0,0,0,2.56.19H308.94a17.5,17.5,0,0,0,17.51-17.51V145.25A17.51,17.51,0,0,0,308.94,127.74Zm16.24,90.88a16.26,16.26,0,0,1-16.24,16.24H203.2a17.87,17.87,0,0,0-2.65-.19H124.71a16.26,16.26,0,0,1-13.77-16V145.25A16.26,16.26,0,0,1,127.18,129H308.94a16.26,16.26,0,0,1,16.24,16.23Z"/><path class="cls-1" d="M308.94,129H127.18a16.26,16.26,0,0,0-16.24,16.23v73.37a16.26,16.26,0,0,0,13.77,16h75.84a17.87,17.87,0,0,1,2.65.19H308.94a16.26,16.26,0,0,0,16.24-16.24V145.25A16.26,16.26,0,0,0,308.94,129Zm-145,42.26v1.19H182a9.08,9.08,0,0,1-18.15,0A9.53,9.53,0,0,1,163.89,171.28Zm63.21,21.85a11.58,11.58,0,0,1-9-4.35,11.57,11.57,0,0,1-20.61-7.24,2.55,2.55,0,0,1,5.1,0,6.48,6.48,0,1,0,13,0,2.55,2.55,0,0,1,5.1,0,6.48,6.48,0,1,0,13,0,2.55,2.55,0,0,1,5.1,0A11.59,11.59,0,0,1,227.1,193.13Zm36.14-11.59a9.08,9.08,0,0,1-9.07-9.07h18.15A9.08,9.08,0,0,1,263.24,181.54Z"/><rect class="cls-1" x="145.8" y="126.47" width="36.12" height="1.27"/><path class="cls-1" d="M262.13,109.68h20.25a7.94,7.94,0,0,1,7.94,7.94v10.13a0,0,0,0,1,0,0H254.19a0,0,0,0,1,0,0V117.62A7.94,7.94,0,0,1,262.13,109.68Z"/></g><g id="cuerpo-3" data-name="cuerpo"><path class="cls-1" d="M70.88,58.17a9.09,9.09,0,0,1,0,12.83,9.08,9.08,0,1,1,0-12.83Z"/><path class="cls-1" d="M130.28,73.54a11.57,11.57,0,0,1-20.61,7.24,11.57,11.57,0,0,1-20.61-7.24,2.55,2.55,0,0,1,5.1,0,6.48,6.48,0,1,0,13,0,2.55,2.55,0,0,1,5.1,0,6.48,6.48,0,1,0,13,0,2.55,2.55,0,0,1,5.1,0Z"/><path class="cls-1" d="M161.25,58.17a9.07,9.07,0,1,1-6.42-2.66A9,9,0,0,1,161.25,58.17Z"/><path class="cls-1" d="M200.55,19.35H18.79A17.51,17.51,0,0,0,1.27,36.86v73.37a17.51,17.51,0,0,0,17.52,17.51H200.55a17.27,17.27,0,0,0,6.56-1.27,17.5,17.5,0,0,0,10.95-16.24V36.86A17.51,17.51,0,0,0,200.55,19.35Zm16.24,90.88a16.26,16.26,0,0,1-16.24,16.24H18.79A16.26,16.26,0,0,1,2.55,110.23V36.86A16.26,16.26,0,0,1,18.79,20.62H200.55a16.26,16.26,0,0,1,16.24,16.24Z"/><path class="cls-1" d="M200.55,20.62H18.79A16.26,16.26,0,0,0,2.55,36.86v73.37a16.26,16.26,0,0,0,16.24,16.24H200.55a16.26,16.26,0,0,0,16.24-16.24V36.86A16.26,16.26,0,0,0,200.55,20.62ZM70.88,71a9.08,9.08,0,1,1,0-12.83,9.09,9.09,0,0,1,0,12.83ZM118.7,85.13a11.54,11.54,0,0,1-9-4.35,11.57,11.57,0,0,1-20.61-7.24,2.55,2.55,0,0,1,5.1,0,6.48,6.48,0,1,0,13,0,2.55,2.55,0,0,1,5.1,0,6.48,6.48,0,1,0,13,0,2.55,2.55,0,0,1,5.1,0A11.6,11.6,0,0,1,118.7,85.13Zm29.72-27a9.07,9.07,0,1,1-2.67,6.41A9,9,0,0,1,148.42,58.17Z"/><path class="cls-1" d="M45.35,1.28H65.6a7.94,7.94,0,0,1,7.94,7.94V19.34a0,0,0,0,1,0,0H37.41a0,0,0,0,1,0,0V9.21A7.94,7.94,0,0,1,45.35,1.28Z"/><path class="cls-1" d="M153.74,1.28H174a7.94,7.94,0,0,1,7.94,7.94V19.34a0,0,0,0,1,0,0H145.8a0,0,0,0,1,0,0V9.21A7.94,7.94,0,0,1,153.74,1.28Z"/></g><path class="cls-2" d="M73.53,64.58a9.06,9.06,0,0,1-9.07,9.08,9.09,9.09,0,0,1-9.08-9.08,9.08,9.08,0,1,1,18.15,0Z"/><path class="cls-2" d="M163.9,64.58a9.06,9.06,0,0,1-9.07,9.08,9.09,9.09,0,0,1-9.08-9.08,9.08,9.08,0,1,1,18.15,0Z"/><path class="cls-3" d="M154.89,274a11.35,11.35,0,0,0-8.24,3.4,11.57,11.57,0,0,0-3.44,8.25,2.55,2.55,0,0,0,2.55,2.54h0a2.55,2.55,0,0,0,2.55-2.54,6.57,6.57,0,0,1,6.52-6.55h0a6.56,6.56,0,0,1,6.5,6.55,2.55,2.55,0,0,0,2.55,2.54h0a2.55,2.55,0,0,0,2.55-2.54A11.66,11.66,0,0,0,154.89,274Z"/><path class="cls-3" d="M127.73,287.6a2.55,2.55,0,0,0-2.55,2.55,6.48,6.48,0,0,1-13,0,2.55,2.55,0,0,0-5.1,0,6.49,6.49,0,0,1-13,0,2.55,2.55,0,0,0-5.1,0,11.58,11.58,0,0,0,20.62,7.24,11.57,11.57,0,0,0,20.61-7.24A2.55,2.55,0,0,0,127.73,287.6Z"/><path class="cls-3" d="M64.56,274a11.36,11.36,0,0,0-8.24,3.4,11.56,11.56,0,0,0-3.44,8.24,2.55,2.55,0,0,0,2.55,2.55h0A2.55,2.55,0,0,0,58,285.66a6.59,6.59,0,0,1,6.52-6.55h0A6.55,6.55,0,0,1,71,285.66a2.55,2.55,0,0,0,2.55,2.55h0a2.55,2.55,0,0,0,2.55-2.55A11.66,11.66,0,0,0,64.56,274Z"/><path class="cls-3" d="M308.94,126.47H291.59V119.8a11.4,11.4,0,0,0-11.38-11.39H264.32a11.41,11.41,0,0,0-11.4,11.39v6.67H210a18.82,18.82,0,0,0,9.34-16.24V36.86a18.8,18.8,0,0,0-18.78-18.79H183.2V11.4A11.41,11.41,0,0,0,171.8,0H155.92a11.41,11.41,0,0,0-11.39,11.4v6.67H74.81V11.4A11.41,11.41,0,0,0,63.41,0H47.53A11.41,11.41,0,0,0,36.14,11.4v6.67H18.79A18.81,18.81,0,0,0,0,36.86v73.37A18.81,18.81,0,0,0,18.79,129h99a18.77,18.77,0,0,0-9.36,16.23v73.37a18.83,18.83,0,0,0,9,16H74.81V228A11.4,11.4,0,0,0,63.42,216.6H47.53A11.41,11.41,0,0,0,36.13,228v6.68H18.79A18.81,18.81,0,0,0,0,253.46v73.36a18.81,18.81,0,0,0,18.79,18.79H200.55a18.8,18.8,0,0,0,18.78-18.79V253.46a18.79,18.79,0,0,0-9-16.05h98.62a18.81,18.81,0,0,0,18.79-18.79V145.25A18.81,18.81,0,0,0,308.94,126.47Zm-53.47-6.67a8.85,8.85,0,0,1,8.85-8.85h15.89A8.85,8.85,0,0,1,289,119.8v6.67H255.47ZM147.08,11.4a8.84,8.84,0,0,1,8.84-8.85H171.8a8.85,8.85,0,0,1,8.85,8.85v6.67H147.08Zm-108.4,0a8.85,8.85,0,0,1,8.85-8.85H63.41a8.85,8.85,0,0,1,8.85,8.85v6.67H38.68ZM18.79,126.47A16.26,16.26,0,0,1,2.55,110.23V36.86A16.26,16.26,0,0,1,18.79,20.62H200.55a16.26,16.26,0,0,1,16.24,16.24v73.37a16.26,16.26,0,0,1-16.24,16.24H18.79ZM38.68,228a8.86,8.86,0,0,1,8.85-8.84H63.42A8.86,8.86,0,0,1,72.26,228v6.68H38.68Zm178.11,25.47v73.36a16.26,16.26,0,0,1-16.24,16.24H18.79A16.26,16.26,0,0,1,2.55,326.82V253.46a16.26,16.26,0,0,1,16.24-16.24H124.53a19.33,19.33,0,0,0,2.65.19H203A16.26,16.26,0,0,1,216.79,253.46Zm108.39-34.84a16.26,16.26,0,0,1-16.24,16.24H203.2a17.87,17.87,0,0,0-2.65-.19H124.71a16.26,16.26,0,0,1-13.77-16V145.25A16.26,16.26,0,0,1,127.18,129H308.94a16.26,16.26,0,0,1,16.24,16.23Z"/><path class="cls-3" d="M163.89,171.28a9.53,9.53,0,0,0-.09,1.19,9.08,9.08,0,0,0,18.15,0H163.89Z"/><path class="cls-3" d="M263.24,181.54a9.08,9.08,0,0,0,9.08-9.07H254.17A9.08,9.08,0,0,0,263.24,181.54Z"/><path class="cls-3" d="M236.12,179a2.56,2.56,0,0,0-2.55,2.55,6.48,6.48,0,1,1-13,0,2.55,2.55,0,0,0-5.1,0,6.48,6.48,0,1,1-13,0,2.55,2.55,0,0,0-5.1,0,11.57,11.57,0,0,0,20.61,7.24,11.57,11.57,0,0,0,20.61-7.24A2.55,2.55,0,0,0,236.12,179Z"/><path class="cls-3" d="M127.73,71a2.55,2.55,0,0,0-2.55,2.54,6.48,6.48,0,1,1-13,0,2.55,2.55,0,0,0-5.1,0,6.48,6.48,0,1,1-13,0,2.55,2.55,0,0,0-5.1,0,11.57,11.57,0,0,0,20.61,7.24,11.57,11.57,0,0,0,20.61-7.24A2.55,2.55,0,0,0,127.73,71Z"/><path class="cls-3" d="M64.46,59.81a4.72,4.72,0,0,0-4.72,4.72v.11a4.72,4.72,0,0,0,9.44,0v-.11A4.72,4.72,0,0,0,64.46,59.81Z"/><rect class="cls-3" x="150.11" y="59.81" width="9.44" height="9.56" rx="4.72"/></g></svg>