<svg id="Capa_1" data-name="Capa 1" xmlns="http://www.w3.org/2000/svg" viewBox="0 0 24 24">
  <defs>
    <style>
      .cls-1 {
        fill: none;
      }

      .cls-2 {
        fill: #1a535c;
      }
    </style>
  </defs>
  <path class="cls-1" d="M0,0H24V24H0Z"/>
  <path class="cls-2" d="M19,6H17A5,5,0,0,0,7,6H5A2,2,0,0,0,3,8V20a2,2,0,0,0,2,2H19a2,2,0,0,0,2-2V8A2,2,0,0,0,19,6ZM12,3a3,3,0,0,1,3,3H9A3,3,0,0,1,12,3Zm7,17H5V8H19Zm-7-8A3,3,0,0,1,9,9H7A5,5,0,0,0,17,9H15A3,3,0,0,1,12,12Z"/>
</svg>
