<svg xmlns="http://www.w3.org/2000/svg" xmlns:xlink="http://www.w3.org/1999/xlink" viewBox="0 0 750.88 390.43"><defs><style>.cls-1{fill:#e87461;}.cls-2{fill:#994941;}.cls-3{fill:#f5cb5c;}.cls-4{fill:none;stroke:#1a535c;stroke-linecap:round;stroke-linejoin:round;}.cls-5{fill:#2d525e;}.cls-6{fill:#fff;}.cls-15,.cls-7{opacity:0.5;}.cls-7{fill:url(#Degradado_sin_nombre_8);}.cls-8{fill:#4b8a98;}.cls-9{fill:#00bf8d;}.cls-10{fill:#1a535c;}.cls-11{fill:#25777f;}.cls-12{fill:#79a7ab;}.cls-13{fill:#324e50;}.cls-14{fill:#ffbab3;}.cls-15{fill:url(#Degradado_sin_nombre_8-2);}.cls-16{fill:#f0b718;}.cls-17{fill:url(#Degradado_sin_nombre_31);}.cls-18{fill:#b26f38;}.cls-19{fill:#cc7d42;}.cls-20{fill:url(#Degradado_sin_nombre_31-2);}.cls-21{fill:url(#Degradado_sin_nombre_31-3);}</style><linearGradient id="Degradado_sin_nombre_8" x1="3998.36" y1="1709.9" x2="3998.36" y2="1616.95" gradientTransform="translate(-1446.37 4259.31) rotate(-90)" gradientUnits="userSpaceOnUse"><stop offset="0" stop-color="#6ccef5" stop-opacity="0.5"/><stop offset="1" stop-color="#6ccef5" stop-opacity="0"/></linearGradient><linearGradient id="Degradado_sin_nombre_8-2" x1="3998.36" y1="1557.69" x2="3998.36" y2="1464.74" xlink:href="#Degradado_sin_nombre_8"/><linearGradient id="Degradado_sin_nombre_31" x1="5850.26" y1="111.13" x2="5850.26" y2="90.58" gradientTransform="matrix(-0.66, -0.75, -0.58, 0.86, 4252.27, 4414.52)" gradientUnits="userSpaceOnUse"><stop offset="0.01" stop-color="#f0b718"/><stop offset="1" stop-color="#f5cb5c"/></linearGradient><linearGradient id="Degradado_sin_nombre_31-2" x1="3743.4" y1="457.47" x2="3743.4" y2="436.92" gradientTransform="matrix(0.75, 0.66, -0.86, 0.58, -2005.06, -2629.78)" xlink:href="#Degradado_sin_nombre_31"/><linearGradient id="Degradado_sin_nombre_31-3" x1="1760.3" y1="-1642.95" x2="1760.3" y2="-1663.51" gradientTransform="matrix(0.66, -0.75, 0.58, 0.86, 158.54, 2761.7)" xlink:href="#Degradado_sin_nombre_31"/></defs><g id="Capa_14" data-name="Capa 14"><g id="cuerpo"><path class="cls-1" d="M533.21,261.21h14.36a7.23,7.23,0,0,1-14.36,0Z"/><path class="cls-1" d="M581.06,240.71H499.73a7.28,7.28,0,0,0-7.27,7.27v32.83a7.28,7.28,0,0,0,7.27,7.27h81.33a7.28,7.28,0,0,0,7.27-7.27V248A7.28,7.28,0,0,0,581.06,240.71Zm-40.67,28.58a9,9,0,0,1-8.94-8.94.85.85,0,0,1,.86-.85h16.17a.85.85,0,0,1,.85.85A9,9,0,0,1,540.39,269.29Z"/><path class="cls-1" d="M523.65,236.58v3h-15v-3a4,4,0,0,1,4-4h7.12A4,4,0,0,1,523.65,236.58Z"/><path class="cls-2" d="M581.06,239.57H573.3v-3a5.09,5.09,0,0,0-5.1-5.09h-7.11a5.1,5.1,0,0,0-5.1,5.09v3H524.8v-3a5.1,5.1,0,0,0-5.1-5.09h-7.12a5.1,5.1,0,0,0-5.1,5.09v3h-7.75a8.42,8.42,0,0,0-8.41,8.41v32.83a8.42,8.42,0,0,0,8.41,8.41h81.33a8.42,8.42,0,0,0,8.41-8.41V248A8.42,8.42,0,0,0,581.06,239.57Zm-23.93-3a4,4,0,0,1,4-4h7.11a4,4,0,0,1,4,4v3h-15Zm-48.51,0a4,4,0,0,1,4-4h7.12a4,4,0,0,1,3.95,4v3h-15Zm79.71,44.23a7.28,7.28,0,0,1-7.27,7.27H499.73a7.28,7.28,0,0,1-7.27-7.27V248a7.28,7.28,0,0,1,7.27-7.27h81.33a7.28,7.28,0,0,1,7.27,7.27Z"/><path class="cls-1" d="M572.16,236.58v3h-15v-3a4,4,0,0,1,4-4h7.11A4,4,0,0,1,572.16,236.58Z"/></g><g id="cara"><path class="cls-3" d="M547.57,261.21a7.23,7.23,0,0,1-14.36,0Z"/><path class="cls-2" d="M548.48,259.5H532.31a.85.85,0,0,0-.86.85,8.94,8.94,0,0,0,17.88,0A.85.85,0,0,0,548.48,259.5Zm-8.09,8.08a7.24,7.24,0,0,1-7.18-6.37h14.36A7.24,7.24,0,0,1,540.39,267.58Z"/><path class="cls-2" d="M556.54,261.51a1.14,1.14,0,0,1-1.14-1.14,5.22,5.22,0,0,1,5.2-5.21h0a5.22,5.22,0,0,1,5.18,5.21,1.14,1.14,0,0,1-1.14,1.14h0a1.14,1.14,0,0,1-1.14-1.14,2.94,2.94,0,0,0-2.91-2.93h0a3,3,0,0,0-2.93,2.93,1.14,1.14,0,0,1-1.14,1.14Z"/><path class="cls-2" d="M524.22,261.53h0a1.14,1.14,0,0,1-1.14-1.14,2.93,2.93,0,0,0-2.9-2.93,2.87,2.87,0,0,0-2.07.85,2.93,2.93,0,0,0-.87,2.08,1.14,1.14,0,0,1-1.14,1.14h0a1.14,1.14,0,0,1-1.14-1.14,5.2,5.2,0,1,1,10.4,0A1.14,1.14,0,0,1,524.22,261.53Z"/></g><line class="cls-4" x1="331.62" y1="70.24" x2="336.33" y2="77.32"/><line class="cls-4" x1="342.32" y1="68.56" x2="347.02" y2="75.63"/><line class="cls-4" x1="349.28" y1="64.09" x2="353.98" y2="71.17"/><line class="cls-4" x1="383.54" y1="60.64" x2="378.29" y2="67.32"/><line class="cls-4" x1="390.44" y1="64.9" x2="385.18" y2="71.57"/><line class="cls-4" x1="398" y1="68.05" x2="392.75" y2="74.73"/><g id="pierna_der" data-name="pierna der"><path class="cls-5" d="M301.6,289.18V287.4c0-3-3-5.37-6.71-5.37h0a7.48,7.48,0,0,0-5,1.8h-3.75a2.23,2.23,0,0,0-2.43,1.95v3.41h0V291H301.6v-1.79Z"/><path class="cls-5" d="M302.1,291.48H283.22v-5.71a2.72,2.72,0,0,1,2.93-2.45h3.57a8.11,8.11,0,0,1,5.17-1.79c4,0,7.21,2.63,7.21,5.87Zm-17.87-1h16.86V287.4c0-2.68-2.78-4.86-6.2-4.86a7.06,7.06,0,0,0-4.66,1.67l-1.83,1.64.71-1.52h-3c-1.06,0-1.92.64-1.92,1.44v4.7Z"/><path class="cls-5" d="M286.14,286.51h-.08a1.77,1.77,0,0,1-1.69-1.84c.31-7-1.09-12-4.17-14.82a14.14,14.14,0,0,0-4.69-2.62,16.53,16.53,0,0,1-6.52-4c-3-3.17-4.62-7.64-4.74-13.29a1.77,1.77,0,0,1,1.72-1.81,1.79,1.79,0,0,1,1.81,1.73c.1,4.74,1.37,8.42,3.76,10.93a13.18,13.18,0,0,0,5.27,3.16,17.21,17.21,0,0,1,5.77,3.3c3.89,3.57,5.68,9.48,5.32,17.58A1.76,1.76,0,0,1,286.14,286.51Z"/></g><g id="cuerpo-2" data-name="cuerpo"><path class="cls-6" d="M184.88,232.35h68a14.28,14.28,0,0,1,14.28,14.28v28.64a14.29,14.29,0,0,1-14.28,14.28h-68a21.45,21.45,0,0,1-21.45-21.45h-1.79V253.8h1.79A21.44,21.44,0,0,1,184.88,232.35Z"/><path class="cls-5" d="M252.83,231.84h-68a22,22,0,0,0-21.95,21.45h-1.79v15.32h1.79a22,22,0,0,0,21.95,21.45h68a14.8,14.8,0,0,0,14.78-14.79V246.63A14.8,14.8,0,0,0,252.83,231.84Zm13.77,43.43a13.79,13.79,0,0,1-13.77,13.78h-68a21,21,0,0,1-20.94-20.95v-.5h-1.79V254.3h1.79v-.51a21,21,0,0,1,20.94-20.94h68a13.79,13.79,0,0,1,13.77,13.78Z"/><path class="cls-7" d="M184.88,286h68a10.71,10.71,0,0,0,10.7-10.7V246.63a10.71,10.71,0,0,0-10.7-10.71h-68a17.87,17.87,0,0,0-14.3,7.16v35.73A17.84,17.84,0,0,0,184.88,286Z"/><path class="cls-5" d="M160.75,251.51a1.4,1.4,0,0,0-1.4,1.4V269a1.4,1.4,0,1,0,2.8,0V252.91A1.4,1.4,0,0,0,160.75,251.51Zm.39,17.48a.39.39,0,0,1-.39.39.38.38,0,0,1-.39-.39V252.91a.38.38,0,0,1,.39-.39.39.39,0,0,1,.39.39Z"/><path class="cls-6" d="M161.14,252.91V269a.39.39,0,0,1-.39.39.38.38,0,0,1-.39-.39V252.91a.38.38,0,0,1,.39-.39A.39.39,0,0,1,161.14,252.91Z"/><path class="cls-6" d="M154,253.8a1.3,1.3,0,0,0-1.3,1.3v11.7a1.3,1.3,0,0,0,1.3,1.3h5.85V253.8Zm5.34,13.8H154a.8.8,0,0,1-.8-.8V255.09a.8.8,0,0,1,.8-.79h5.34Z"/><path class="cls-5" d="M154,253.29a1.81,1.81,0,0,0-1.81,1.8V266.8a1.82,1.82,0,0,0,1.81,1.81h6.35V253.29Zm-.8,13.51V255.09a.8.8,0,0,1,.8-.79h5.34v13.3H154A.8.8,0,0,1,153.21,266.8Z"/><path class="cls-6" d="M159.35,254.3v13.3H154a.8.8,0,0,1-.8-.8V255.09a.8.8,0,0,1,.8-.79Z"/></g><g id="pierna_izq" data-name="pierna izq"><path class="cls-5" d="M263.34,301.78a5.37,5.37,0,0,1-4.27,6.27l-1.75.33h0l-1.76.33-2.66-14h0l1.75-.33h0l3.36-.64a2,2,0,0,1,2.28,1.55l.55,2.95h0A5.31,5.31,0,0,1,263.34,301.78Z"/><path class="cls-5" d="M255.16,309.3l-2.85-15,5.61-1.06a2.44,2.44,0,0,1,2.86,1.95l.52,2.73a5.93,5.93,0,0,1,2.54,3.81h0a5.87,5.87,0,0,1-4.67,6.85Zm-1.67-14.24L256,308.12l3-.57a4.86,4.86,0,0,0,3.87-5.68h0a4.87,4.87,0,0,0-2.28-3.25l-2.34-1.41,2,.35-.42-2.23a1.43,1.43,0,0,0-1.68-1.14Z"/><path class="cls-5" d="M259.6,297.74a1.76,1.76,0,0,1-.19-3.52,13.48,13.48,0,0,0,9.49-5.52c3.05-4.49,2-9.35,1.54-11.18a16.84,16.84,0,0,0-4.58-8.17,1.76,1.76,0,1,1,2.49-2.5,20.25,20.25,0,0,1,5.53,9.89c.46,2,1.85,8.19-2.05,13.94a17.13,17.13,0,0,1-12,7.05Z"/></g><path class="cls-8" d="M195.61,243.07h14.3a0,0,0,0,1,0,0v1.84a5.31,5.31,0,0,1-5.31,5.31h-3.69a5.31,5.31,0,0,1-5.31-5.31v-1.84A0,0,0,0,1,195.61,243.07Z" transform="translate(449.4 43.89) rotate(90)"/><path class="cls-5" d="M206.33,254.55a7.91,7.91,0,1,1,0-15.81.76.76,0,0,1,.76.76v14.3A.75.75,0,0,1,206.33,254.55Zm-.76-14.25a6.39,6.39,0,0,0-5.63,6.35h0a6.4,6.4,0,0,0,5.63,6.35Z"/><path class="cls-5" d="M199.2,259l-2-2.08a1.4,1.4,0,0,0-2,2l2,2.08-2.09,2a1.41,1.41,0,1,0,2,2l2.08-2,2,2.09a1.41,1.41,0,0,0,2-2l-2-2.08,2.08-2a1.4,1.4,0,0,0,0-2,1.39,1.39,0,0,0-2,0Z"/><path class="cls-5" d="M199.2,230.36l-2-2.08a1.4,1.4,0,0,0-2,2l2,2.09-2.09,2a1.41,1.41,0,0,0,2,2l2.08-2,2,2.09a1.41,1.41,0,1,0,2-2l-2-2.08,2.08-2a1.4,1.4,0,1,0-2-2Z"/><g id="brazo_izq" data-name="brazo izq"><path class="cls-5" d="M229.57,277h-.2a1.76,1.76,0,0,1-1.56-1.95c1.1-9.72.5-26.71-.73-31.83-1.44-6-3.32-9.73-5.27-10.49-3.31-1.3-7.52,1.5-8.73,2.39a1.76,1.76,0,1,1-2.09-2.84c2-1.49,7.25-4.74,12.11-2.84,2,.8,5,3,7.41,12.95,1.32,5.49,2,22.84.81,33.05A1.76,1.76,0,0,1,229.57,277Z"/></g><rect class="cls-6" x="209.91" y="232.91" width="8.94" height="3.02" transform="translate(428.75 468.83) rotate(-180)"/><path class="cls-9" d="M415.07,120.76c-15.65,12.76-22.4,32.67-35.83,47.22a3,3,0,0,1-3.14.57l-27.66-11.9c-1.05-.45-1.2-1.35-.37-2,15.83-13.12,22.57-33.54,36.13-48.49a2.84,2.84,0,0,1,3.13-.54q13.53,6.32,27.38,13.08C415.75,119.16,415.9,120.09,415.07,120.76Z"/><path class="cls-9" d="M394.79,138.75c-1.44,2.22-2.84,4.47-4.24,6.71-3.45,5.61-11.41,7.89-17.64,5.24h0c-6.21-2.63-8-9-4.4-14.67,1.45-2.27,2.86-4.56,4.27-6.85,3.47-5.74,11.44-8,17.63-5.23h0C396.59,126.75,398.35,133.23,394.79,138.75Z"/><path class="cls-10" d="M379.24,144.89h0a2.48,2.48,0,0,1-2.94.89h0a1.62,1.62,0,0,1-.75-2.46h0a2.47,2.47,0,0,1,2.93-.9h0A1.64,1.64,0,0,1,379.24,144.89Z"/><path class="cls-10" d="M387.76,131.36h0a2.44,2.44,0,0,1-2.91.88h0a1.65,1.65,0,0,1-.76-2.49h0a2.41,2.41,0,0,1,2.93-.87h0A1.63,1.63,0,0,1,387.76,131.36Z"/><path class="cls-11" d="M385.29,136.19a2.6,2.6,0,0,1,.09,1.24,3.3,3.3,0,0,1-.46,1.23,4.35,4.35,0,0,1-4.65,1.81l1.81-2.9,1.87-3A2.88,2.88,0,0,1,385.29,136.19Z"/><path class="cls-10" d="M384,133.49a.48.48,0,0,0-.6.18l-2.11,3.39c-.71,1.14-1.41,2.28-2.12,3.41a.44.44,0,0,0-.05.4.49.49,0,0,0,.26.3,5.34,5.34,0,0,0,6.06-1.55,3.46,3.46,0,0,0,.32-.46,3.8,3.8,0,0,0-1.76-5.67Zm1.41,3.94a3.3,3.3,0,0,1-.46,1.23,4.35,4.35,0,0,1-4.65,1.81l1.81-2.9,1.87-3a2.88,2.88,0,0,1,1.34,1.64A2.6,2.6,0,0,1,385.38,137.43Z"/><path class="cls-10" d="M414.85,118.37c-9.07-4.43-18.28-8.83-27.38-13.08a3.16,3.16,0,0,0-3.5.62c-5.84,6.43-10.48,14-15,21.28-6,9.69-12.12,19.72-21.12,27.18a1.51,1.51,0,0,0-.64,1.37,1.63,1.63,0,0,0,1.09,1.21l14.52,6.24L376,168.84a3.28,3.28,0,0,0,3.49-.65c1.18-1.27,2.31-2.6,3.4-3.95a173.27,173.27,0,0,0,11.46-16.78c5.92-9.44,12.05-19.2,20.95-26.45a1.52,1.52,0,0,0,.63-1.35A1.69,1.69,0,0,0,414.85,118.37Zm.43,1.36a.89.89,0,0,1-.41.78h0c-9,7.32-15.13,17.13-21.08,26.62-4.45,7.09-9.05,14.42-14.79,20.63a2.65,2.65,0,0,1-2.77.5l-13.14-5.65-14.52-6.25a1.06,1.06,0,0,1-.71-.71.77.77,0,0,1,.19-.57,1.52,1.52,0,0,1,.22-.22c9.08-7.53,15.28-17.6,21.27-27.33,4.47-7.28,9.1-14.8,14.9-21.19a2.54,2.54,0,0,1,2.76-.47c9.1,4.25,18.31,8.65,27.37,13.07A1.12,1.12,0,0,1,415.28,119.73Z"/><path class="cls-10" d="M372.51,129l-.41.66c-1.25,2-2.55,4.14-3.86,6.19a10.57,10.57,0,0,0-1.46,8.88,10.19,10.19,0,0,0,6,6.26,15.09,15.09,0,0,0,17.15-4.12,12.2,12.2,0,0,0,.88-1.25l.4-.64c1.25-2,2.54-4.06,3.84-6.07h0a10.07,10.07,0,0,0-4.52-15.26C384.14,120.76,376.05,123.16,372.51,129Zm23.42,1.36a9.83,9.83,0,0,1-1.41,8.2c-1.3,2-2.59,4.08-3.84,6.08l-.41.65c-3.34,5.43-11.07,7.73-17.24,5.11a9.55,9.55,0,0,1-5.64-5.86,10,10,0,0,1,1.39-8.35c1.31-2,2.61-4.16,3.87-6.2l.4-.66A13.15,13.15,0,0,1,374,128a14,14,0,0,1,16.32-3.8A9.9,9.9,0,0,1,395.93,130.37Z"/><path class="cls-10" d="M357.15,153.69l-1.67-.72c.26-.25.51-.51.76-.77a.66.66,0,0,0,0-.91.65.65,0,0,0-.91,0l-1.09,1.12-.58-.25a.64.64,0,0,0-.84.34.66.66,0,0,0,.34.84l.23.09a1.86,1.86,0,0,0-.22,1.2,1.54,1.54,0,0,0,1,1.14,3.45,3.45,0,0,0,3.27-.62l1.67.71-.75.74a.64.64,0,0,0,.89.92l1.13-1.12.56.24a.65.65,0,0,0,.75-.19l.09-.15a.64.64,0,0,0-.34-.84l-.24-.1a1.9,1.9,0,0,0,.18-1.22,1.6,1.6,0,0,0-1-1.16A3.37,3.37,0,0,0,357.15,153.69Zm-2.53.94c-.19-.08-.21-.18-.21-.21a.63.63,0,0,1,.14-.45l1.37.58A1.93,1.93,0,0,1,354.62,154.63Zm5.46-.21a.76.76,0,0,1-.11.46l-1.37-.58a1.8,1.8,0,0,1,1.26-.12C360,154.26,360.07,154.35,360.08,154.42Z"/><path class="cls-10" d="M404.41,119.15l-1.68-.79c.25-.26.51-.51.76-.76a.63.63,0,0,0,0-.9.65.65,0,0,0-.91,0l-1.1,1.11-.54-.26a.64.64,0,1,0-.54,1.16l.27.12a1.9,1.9,0,0,0-.2,1.24,1.63,1.63,0,0,0,.95,1.2,3.23,3.23,0,0,0,3.18-.58l1.68.79-.76.78a.65.65,0,0,0,0,.91.63.63,0,0,0,.9,0l1.07-1.08.55.26a.64.64,0,0,0,.77-.17.57.57,0,0,0,.08-.13.64.64,0,0,0-.3-.85l-.26-.12a1.9,1.9,0,0,0,.23-1.21,1.6,1.6,0,0,0-.94-1.19A3.32,3.32,0,0,0,404.41,119.15Zm-2.43.95a.44.44,0,0,1-.24-.28.74.74,0,0,1,.11-.46l1.38.65A1.74,1.74,0,0,1,402,120.1Zm5.36-.07a.72.72,0,0,1-.13.45l-1.38-.66a1.78,1.78,0,0,1,1.28,0C407.31,119.88,407.33,120,407.34,120Z"/><g id="cuerpo-3" data-name="cuerpo"><path class="cls-12" d="M281.17,319.57V382.4a6,6,0,0,1-6,6H260.86a6,6,0,0,1-6-6V319.57Z"/><path class="cls-12" d="M68.57,319.57V382.4a6,6,0,0,1-6,6H48.26a6,6,0,0,1-6-6V319.57Z"/><path class="cls-12" d="M720.54,319.57V382.4a6,6,0,0,1-6,6H700.23a6,6,0,0,1-6-6V319.57Z"/><path class="cls-12" d="M507.94,319.57V382.4a6,6,0,0,1-6,6H487.63a6,6,0,0,1-6-6V319.57Z"/><path class="cls-12" d="M339.38,291.72v4.09H328.23a2,2,0,0,1,0-4.09Z"/><path class="cls-12" d="M342.38,291.72v4.09h13.2v-4.09Zm0,0v4.09h13.2v-4.09Zm0,0v4.09h13.2v-4.09Zm16.2,0v4.09h13.2v-4.09Zm0,0v4.09h13.2v-4.09Zm-16.2,0v4.09h13.2v-4.09Zm0,0v4.09h13.2v-4.09Zm16.2,0v4.09h13.2v-4.09Zm16.2,0v4.09H388v-4.09Zm16.2,0v4.09h13.2v-4.09Zm0,0v4.09h13.2v-4.09Zm-16.2,0v4.09H388v-4.09Zm-16.2,0v4.09h13.2v-4.09Zm-16.2,0v4.09h13.2v-4.09Zm0,0v4.09h13.2v-4.09Zm16.2,0v4.09h13.2v-4.09Zm16.2,0v4.09H388v-4.09Zm-6-49.6a12.67,12.67,0,0,0,25.16,0ZM391,291.72v4.09h13.2v-4.09Zm16.2,0v4.09h13.19v-4.09Zm27.35,0H423.37v4.09h11.16a2,2,0,0,0,0-4.09Zm0,0H423.37v4.09h11.16a2,2,0,0,0,0-4.09Zm-27.35,0v4.09h13.19v-4.09Zm-16.2,0v4.09h13.2v-4.09Zm-16.2,0v4.09H388v-4.09Zm-16.2,0v4.09h13.2v-4.09Zm-16.2,0v4.09h13.2v-4.09Zm26.42-49.6a12.67,12.67,0,0,0,25.16,0Zm-26.42,49.6v4.09h13.2v-4.09Zm16.2,0v4.09h13.2v-4.09Zm16.2,0v4.09H388v-4.09Zm-6-49.6a12.67,12.67,0,0,0,25.16,0ZM391,291.72v4.09h13.2v-4.09Zm16.2,0v4.09h13.19v-4.09Zm27.35,0H423.37v4.09h11.16a2,2,0,0,0,0-4.09Zm0,0H423.37v4.09h11.16a2,2,0,0,0,0-4.09Zm-27.35,0v4.09h13.19v-4.09Zm-16.2,0v4.09h13.2v-4.09Zm-16.2,0v4.09H388v-4.09Zm-16.2,0v4.09h13.2v-4.09Zm-16.2,0v4.09h13.2v-4.09Zm26.42-49.6a12.67,12.67,0,0,0,25.16,0Zm-26.42,49.6v4.09h13.2v-4.09Zm16.2,0v4.09h13.2v-4.09Zm16.2,0v4.09H388v-4.09Zm-6-49.6a12.67,12.67,0,0,0,25.16,0ZM391,291.72v4.09h13.2v-4.09Zm16.2,0v4.09h13.19v-4.09Zm27.35,0H423.37v4.09h11.16a2,2,0,0,0,0-4.09Zm0,0H423.37v4.09h11.16a2,2,0,0,0,0-4.09Zm-27.35,0v4.09h13.19v-4.09Zm-16.2,0v4.09h13.2v-4.09Zm-16.2,0v4.09H388v-4.09Zm-16.2,0v4.09h13.2v-4.09Zm-16.2,0v4.09h13.2v-4.09Zm26.42-49.6a12.67,12.67,0,0,0,25.16,0Zm-26.42,49.6v4.09h13.2v-4.09Zm16.2,0v4.09h13.2v-4.09Zm16.2,0v4.09H388v-4.09Zm-6-49.6a12.67,12.67,0,0,0,25.16,0ZM391,291.72v4.09h13.2v-4.09Zm16.2,0v4.09h13.19v-4.09Zm27.35,0H423.37v4.09h11.16a2,2,0,0,0,0-4.09Zm0,0H423.37v4.09h11.16a2,2,0,0,0,0-4.09Zm-27.35,0v4.09h13.19v-4.09Zm-16.2,0v4.09h13.2v-4.09Zm-16.2,0v4.09H388v-4.09Zm-16.2,0v4.09h13.2v-4.09Zm-16.2,0v4.09h13.2v-4.09Zm26.42-49.6a12.67,12.67,0,0,0,25.16,0Zm-26.42,49.6v4.09h13.2v-4.09Zm16.2,0v4.09h13.2v-4.09Zm16.2,0v4.09H388v-4.09Zm-6-49.6a12.67,12.67,0,0,0,25.16,0ZM391,291.72v4.09h13.2v-4.09Zm16.2,0v4.09h13.19v-4.09Zm27.35,0H423.37v4.09h11.16a2,2,0,0,0,0-4.09Zm0,0H423.37v4.09h11.16a2,2,0,0,0,0-4.09Zm-27.35,0v4.09h13.19v-4.09Zm-16.2,0v4.09h13.2v-4.09Zm-16.2,0v4.09H388v-4.09Zm-16.2,0v4.09h13.2v-4.09Zm-16.2,0v4.09h13.2v-4.09Zm26.42-49.6a12.67,12.67,0,0,0,25.16,0Zm-26.42,49.6v4.09h13.2v-4.09Zm16.2,0v4.09h13.2v-4.09Zm16.2,0v4.09H388v-4.09Zm-6-49.6a12.67,12.67,0,0,0,25.16,0ZM391,291.72v4.09h13.2v-4.09Zm16.2,0v4.09h13.19v-4.09Zm27.35,0H423.37v4.09h11.16a2,2,0,0,0,0-4.09Zm0,0H423.37v4.09h11.16a2,2,0,0,0,0-4.09Zm-27.35,0v4.09h13.19v-4.09Zm-16.2,0v4.09h13.2v-4.09Zm-16.2,0v4.09H388v-4.09Zm-16.2,0v4.09h13.2v-4.09Zm-16.2,0v4.09h13.2v-4.09Zm26.42-49.6a12.67,12.67,0,0,0,25.16,0Zm-26.42,49.6v4.09h13.2v-4.09Zm16.2,0v4.09h13.2v-4.09Zm16.2,0v4.09H388v-4.09Zm-6-49.6a12.67,12.67,0,0,0,25.16,0ZM391,291.72v4.09h13.2v-4.09Zm16.2,0v4.09h13.19v-4.09Zm27.35,0H423.37v4.09h11.16a2,2,0,0,0,0-4.09Zm0,0H423.37v4.09h11.16a2,2,0,0,0,0-4.09Zm-27.35,0v4.09h13.19v-4.09Zm-16.2,0v4.09h13.2v-4.09Zm-16.2,0v4.09H388v-4.09Zm-16.2,0v4.09h13.2v-4.09Zm-16.2,0v4.09h13.2v-4.09Zm26.42-49.6a12.67,12.67,0,0,0,25.16,0Zm-26.42,49.6v4.09h13.2v-4.09Zm16.2,0v4.09h13.2v-4.09Zm16.2,0v4.09H388v-4.09Zm-6-49.6a12.67,12.67,0,0,0,25.16,0ZM391,291.72v4.09h13.2v-4.09Zm16.2,0v4.09h13.19v-4.09Zm27.35,0H423.37v4.09h11.16a2,2,0,0,0,0-4.09Zm0,0H423.37v4.09h11.16a2,2,0,0,0,0-4.09Zm-27.35,0v4.09h13.19v-4.09Zm-16.2,0v4.09h13.2v-4.09Zm-16.2,0v4.09H388v-4.09Zm-16.2,0v4.09h13.2v-4.09Zm-16.2,0v4.09h13.2v-4.09Zm26.42-49.6a12.67,12.67,0,0,0,25.16,0Zm-26.42,49.6v4.09h13.2v-4.09Zm16.2,0v4.09h13.2v-4.09Zm16.2,0v4.09H388v-4.09Zm-6-49.6a12.67,12.67,0,0,0,25.16,0ZM391,291.72v4.09h13.2v-4.09Zm16.2,0v4.09h13.19v-4.09Zm27.35,0H423.37v4.09h11.16a2,2,0,0,0,0-4.09Zm0,0H423.37v4.09h11.16a2,2,0,0,0,0-4.09Zm-27.35,0v4.09h13.19v-4.09Zm-16.2,0v4.09h13.2v-4.09Zm-16.2,0v4.09H388v-4.09Zm-16.2,0v4.09h13.2v-4.09Zm-16.2,0v4.09h13.2v-4.09Zm26.42-49.6a12.67,12.67,0,0,0,25.16,0Zm-26.42,49.6v4.09h13.2v-4.09Zm16.2,0v4.09h13.2v-4.09Zm16.2,0v4.09H388v-4.09Zm-6-49.6a12.67,12.67,0,0,0,25.16,0ZM391,291.72v4.09h13.2v-4.09Zm16.2,0v4.09h13.19v-4.09Zm27.35,0H423.37v4.09h11.16a2,2,0,0,0,0-4.09Zm0,0H423.37v4.09h11.16a2,2,0,0,0,0-4.09Zm-27.35,4.09h13.19v-4.09H407.18Zm-16.2,0h13.2v-4.09H391Zm-16.2,0H388v-4.09h-13.2Zm-16.2,0h13.2v-4.09h-13.2Zm-16.2,0h13.2v-4.09h-13.2Zm26.42-53.69a12.67,12.67,0,0,0,25.16,0Zm-71.46-35.94V317.57H465.42V206.18Zm69.87,32.94h28.34a1.5,1.5,0,0,1,1.5,1.5,15.67,15.67,0,0,1-31.34,0A1.5,1.5,0,0,1,367.21,239.12Zm67.32,59.69H328.23a5,5,0,0,1,0-10.09h106.3a5,5,0,0,1,0,10.09Zm0-7.09H423.37v4.09h11.16a2,2,0,0,0,0-4.09Zm-27.35,4.09h13.19v-4.09H407.18Zm-16.2,0h13.2v-4.09H391Zm-9.6-42.52A12.68,12.68,0,0,0,394,242.12H368.8A12.68,12.68,0,0,0,381.38,253.29Zm-6.6,42.52H388v-4.09h-13.2Zm-16.2,0h13.2v-4.09h-13.2Zm-16.2,0h13.2v-4.09h-13.2Zm26.42-53.69a12.67,12.67,0,0,0,25.16,0Zm-26.42,49.6v4.09h13.2v-4.09Zm16.2,0v4.09h13.2v-4.09Zm16.2,0v4.09H388v-4.09Zm16.2,0v4.09h13.2v-4.09Zm16.2,0v4.09h13.19v-4.09Zm27.35,0H423.37v4.09h11.16a2,2,0,0,0,0-4.09Zm0,0H423.37v4.09h11.16a2,2,0,0,0,0-4.09Zm-27.35,0v4.09h13.19v-4.09Zm-16.2,0v4.09h13.2v-4.09Zm-22.18-49.6a12.67,12.67,0,0,0,25.16,0Zm6,49.6v4.09H388v-4.09Zm-16.2,0v4.09h13.2v-4.09Zm-16.2,0v4.09h13.2v-4.09Zm26.42-49.6a12.67,12.67,0,0,0,25.16,0Zm-26.42,49.6v4.09h13.2v-4.09Zm16.2,0v4.09h13.2v-4.09Zm16.2,0v4.09H388v-4.09Zm16.2,0v4.09h13.2v-4.09Zm16.2,0v4.09h13.19v-4.09Zm27.35,0H423.37v4.09h11.16a2,2,0,0,0,0-4.09Zm0,0H423.37v4.09h11.16a2,2,0,0,0,0-4.09Zm-27.35,0v4.09h13.19v-4.09Zm-16.2,0v4.09h13.2v-4.09Zm-22.18-49.6a12.67,12.67,0,0,0,25.16,0Zm6,49.6v4.09H388v-4.09Zm-16.2,0v4.09h13.2v-4.09Zm-16.2,0v4.09h13.2v-4.09Zm26.42-49.6a12.67,12.67,0,0,0,25.16,0Zm-26.42,49.6v4.09h13.2v-4.09Zm16.2,0v4.09h13.2v-4.09Zm16.2,0v4.09H388v-4.09Zm16.2,0v4.09h13.2v-4.09Zm16.2,0v4.09h13.19v-4.09Zm27.35,0H423.37v4.09h11.16a2,2,0,0,0,0-4.09Zm0,0H423.37v4.09h11.16a2,2,0,0,0,0-4.09Zm-27.35,0v4.09h13.19v-4.09Zm-16.2,0v4.09h13.2v-4.09Zm-22.18-49.6a12.67,12.67,0,0,0,25.16,0Zm6,49.6v4.09H388v-4.09Zm-16.2,0v4.09h13.2v-4.09Zm-16.2,0v4.09h13.2v-4.09Zm26.42-49.6a12.67,12.67,0,0,0,25.16,0Zm-26.42,49.6v4.09h13.2v-4.09Zm16.2,0v4.09h13.2v-4.09Zm16.2,0v4.09H388v-4.09Zm16.2,0v4.09h13.2v-4.09Zm16.2,0v4.09h13.19v-4.09Zm27.35,0H423.37v4.09h11.16a2,2,0,0,0,0-4.09Zm0,0H423.37v4.09h11.16a2,2,0,0,0,0-4.09Zm-27.35,0v4.09h13.19v-4.09Zm-16.2,0v4.09h13.2v-4.09Zm-22.18-49.6a12.67,12.67,0,0,0,25.16,0Zm6,49.6v4.09H388v-4.09Zm-16.2,0v4.09h13.2v-4.09Zm-16.2,0v4.09h13.2v-4.09Zm26.42-49.6a12.67,12.67,0,0,0,25.16,0Zm-26.42,49.6v4.09h13.2v-4.09Zm16.2,0v4.09h13.2v-4.09Zm16.2,0v4.09H388v-4.09Zm16.2,0v4.09h13.2v-4.09Zm16.2,0v4.09h13.19v-4.09Zm27.35,0H423.37v4.09h11.16a2,2,0,0,0,0-4.09Zm0,0H423.37v4.09h11.16a2,2,0,0,0,0-4.09Zm-27.35,0v4.09h13.19v-4.09Zm-16.2,0v4.09h13.2v-4.09Zm-22.18-49.6a12.67,12.67,0,0,0,25.16,0Zm6,49.6v4.09H388v-4.09Zm-16.2,0v4.09h13.2v-4.09Zm-16.2,0v4.09h13.2v-4.09Zm26.42-49.6a12.67,12.67,0,0,0,25.16,0Zm-26.42,49.6v4.09h13.2v-4.09Zm16.2,0v4.09h13.2v-4.09Zm16.2,0v4.09H388v-4.09Zm16.2,0v4.09h13.2v-4.09Zm16.2,0v4.09h13.19v-4.09Zm27.35,0H423.37v4.09h11.16a2,2,0,0,0,0-4.09Zm0,0H423.37v4.09h11.16a2,2,0,0,0,0-4.09Zm-27.35,0v4.09h13.19v-4.09Zm-16.2,0v4.09h13.2v-4.09Zm-22.18-49.6a12.67,12.67,0,0,0,25.16,0Zm6,49.6v4.09H388v-4.09Zm-16.2,0v4.09h13.2v-4.09Zm-16.2,0v4.09h13.2v-4.09Zm26.42-49.6a12.67,12.67,0,0,0,25.16,0Zm-26.42,49.6v4.09h13.2v-4.09Zm16.2,0v4.09h13.2v-4.09Zm16.2,0v4.09H388v-4.09Zm16.2,0v4.09h13.2v-4.09Zm16.2,0v4.09h13.19v-4.09Zm27.35,0H423.37v4.09h11.16a2,2,0,0,0,0-4.09Zm0,0H423.37v4.09h11.16a2,2,0,0,0,0-4.09Zm-27.35,0v4.09h13.19v-4.09Zm-16.2,0v4.09h13.2v-4.09Zm-22.18-49.6a12.67,12.67,0,0,0,25.16,0Zm6,49.6v4.09H388v-4.09Zm-16.2,0v4.09h13.2v-4.09Zm-16.2,0v4.09h13.2v-4.09Zm26.42-49.6a12.67,12.67,0,0,0,25.16,0Zm-26.42,49.6v4.09h13.2v-4.09Zm16.2,0v4.09h13.2v-4.09Zm16.2,0v4.09H388v-4.09Zm16.2,0v4.09h13.2v-4.09Zm16.2,0v4.09h13.19v-4.09Zm27.35,0H423.37v4.09h11.16a2,2,0,0,0,0-4.09Zm0,0H423.37v4.09h11.16a2,2,0,0,0,0-4.09Zm-27.35,0v4.09h13.19v-4.09Zm-16.2,0v4.09h13.2v-4.09Zm-22.18-49.6a12.67,12.67,0,0,0,25.16,0Zm6,49.6v4.09H388v-4.09Zm-16.2,0v4.09h13.2v-4.09Zm-16.2,0v4.09h13.2v-4.09Zm26.42-49.6a12.67,12.67,0,0,0,25.16,0Zm-26.42,49.6v4.09h13.2v-4.09Zm16.2,0v4.09h13.2v-4.09Zm16.2,0v4.09H388v-4.09Zm16.2,0v4.09h13.2v-4.09Zm16.2,0v4.09h13.19v-4.09Zm27.35,0H423.37v4.09h11.16a2,2,0,0,0,0-4.09Zm0,0H423.37v4.09h11.16a2,2,0,0,0,0-4.09Zm-27.35,0v4.09h13.19v-4.09Zm-16.2,0v4.09h13.2v-4.09Zm-22.18-49.6a12.67,12.67,0,0,0,25.16,0Zm6,49.6v4.09H388v-4.09Zm-16.2,0v4.09h13.2v-4.09Zm-16.2,0v4.09h13.2v-4.09Zm0,0v4.09h13.2v-4.09Zm16.2,0v4.09h13.2v-4.09Zm16.2,0v4.09H388v-4.09Zm16.2,0v4.09h13.2v-4.09Zm16.2,0v4.09h13.19v-4.09Zm27.35,0H423.37v4.09h11.16a2,2,0,0,0,0-4.09Zm0,0H423.37v4.09h11.16a2,2,0,0,0,0-4.09Zm-27.35,0v4.09h13.19v-4.09Zm-16.2,0v4.09h13.2v-4.09Zm-16.2,0v4.09H388v-4.09Zm-16.2,0v4.09h13.2v-4.09Zm-16.2,0v4.09h13.2v-4.09Zm0,0v4.09h13.2v-4.09Zm16.2,0v4.09h13.2v-4.09Zm16.2,0v4.09H388v-4.09Zm0,0v4.09H388v-4.09Zm-16.2,0v4.09h13.2v-4.09Zm-16.2,0v4.09h13.2v-4.09Zm0,0v4.09h13.2v-4.09Zm0,0v4.09h13.2v-4.09Z"/><path class="cls-13" d="M296.79,204.29l-.22-.11h-.23a1,1,0,0,0-.89.55l.89.45h1A1,1,0,0,0,296.79,204.29Z"/><path class="cls-12" d="M295.34,205.8V317.57H240.65V184a3.44,3.44,0,0,1,5-3.09Z"/><path class="cls-13" d="M296.79,204.29l-.22-.11h-.23a1,1,0,0,0-.89.55l.89.45h1A1,1,0,0,0,296.79,204.29Z"/><path class="cls-12" d="M522.11,184V317.57H467.42V205.8L517.12,181a3.44,3.44,0,0,1,5,3.09Z"/><rect class="cls-12" x="354.03" y="177.84" width="54.7" height="26.34"/><path class="cls-12" d="M427.31,157.83l-18,18H353.45l-18-18a4.89,4.89,0,0,1,3.45-8.34h85a4.89,4.89,0,0,1,3.45,8.34Z"/><path class="cls-12" d="M17.54,304.4a9.52,9.52,0,0,0,9.51,9.5h211.6v3.67H27.05a13.18,13.18,0,1,1,0-26.35h211.6v3.67H27.05A9.52,9.52,0,0,0,17.54,304.4Z"/><path class="cls-13" d="M746.44,293.66a15.11,15.11,0,0,0-10.73-4.44H524.11V184a5.45,5.45,0,0,0-7.89-4.88l-50,25H410.73V177.24l18-18a6.89,6.89,0,0,0-4.87-11.76h-85A6.89,6.89,0,0,0,334,159.25l18,18v26.94H296.57l.22.11a1,1,0,0,1,.55.89h-1l-.89-.45a1,1,0,0,1,.89-.55h.23l-50-25a5.45,5.45,0,0,0-7.88,4.88V289.22H27.05a15.18,15.18,0,1,0,0,30.35H40.22V382.4a8,8,0,0,0,8,8H62.53a8,8,0,0,0,8-8V319.57H252.82V382.4a8,8,0,0,0,8,8h14.27a8,8,0,0,0,8-8V319.57H479.59V382.4a8,8,0,0,0,8,8H501.9a8,8,0,0,0,8-8V319.57H692.19V382.4a8,8,0,0,0,8,8H714.5a8,8,0,0,0,8-8V319.57h13.17a15.18,15.18,0,0,0,10.73-25.91ZM68.57,382.4a6,6,0,0,1-6,6H48.26a6,6,0,0,1-6-6V319.57H68.57Zm170.08-70.5h-3.51a8.41,8.41,0,0,0,3.51-3.51Zm0-11.5a8.48,8.48,0,0,0-3.51-3.51h3.51Zm0-5.51H27.05a9.51,9.51,0,1,0,0,19h211.6v3.67H27.05a13.18,13.18,0,1,1,0-26.35h211.6Zm-13.52,15.52a8.25,8.25,0,0,0,2,1.49H133.09a8.25,8.25,0,0,0,2-1.49,8.5,8.5,0,0,0-2-13.52h94.06a8.25,8.25,0,0,0-2,1.49,8.51,8.51,0,0,0,0,12Zm-102,0a8.25,8.25,0,0,0,2,1.49H31a8.25,8.25,0,0,0,2-1.49,8.5,8.5,0,0,0-2-13.52H125.1a8.25,8.25,0,0,0-2,1.49,8.51,8.51,0,0,0,0,12Zm158.09,72a6,6,0,0,1-6,6H260.86a6,6,0,0,1-6-6V319.57h26.35Zm14.17-64.83H240.65V184a3.44,3.44,0,0,1,5-3.09l49.7,24.85Zm40.11-159.74a4.89,4.89,0,0,1,3.45-8.34h85a4.89,4.89,0,0,1,3.45,8.34l-18,18H353.45Zm73.28,20v26.34H354V177.84Zm56.69,139.73H297.34V206.18H465.42Zm42.52,64.83a6,6,0,0,1-6,6H487.63a6,6,0,0,1-6-6V319.57h26.35Zm14.17-64.83H467.42V205.8L517.12,181a3.44,3.44,0,0,1,5,3.09Zm2-20.68h3.51a8.41,8.41,0,0,0-3.51,3.51Zm0,11.5a8.41,8.41,0,0,0,3.51,3.51h-3.51Zm196.43,74a6,6,0,0,1-6,6H700.23a6,6,0,0,1-6-6V319.57h26.35Zm15.17-64.83H524.11V313.9h211.6a9.51,9.51,0,0,0,0-19H524.11v-3.67h211.6a13.18,13.18,0,0,1,13.17,13.18A13.19,13.19,0,0,1,735.71,317.57Zm-200.1-20.68h94.06a8.25,8.25,0,0,0-2,1.49,8.51,8.51,0,0,0,0,12,8.25,8.25,0,0,0,2,1.49H535.61a8.25,8.25,0,0,0,2-1.49,8.5,8.5,0,0,0-2-13.52Zm102,0h94.06a8.25,8.25,0,0,0-2,1.49,8.51,8.51,0,0,0,0,12,8.25,8.25,0,0,0,2,1.49H637.66a8.25,8.25,0,0,0,2-1.49,8.5,8.5,0,0,0-2-13.52Z"/><path class="cls-12" d="M748.88,304.4a13.19,13.19,0,0,1-13.17,13.17H524.11V313.9h211.6a9.51,9.51,0,0,0,0-19H524.11v-3.67h211.6a13.18,13.18,0,0,1,13.17,13.18Z"/></g><g id="cara-2" data-name="cara"><rect class="cls-13" x="338.91" y="233.79" width="14.13" height="13.91" rx="6.95"/><rect class="cls-13" x="409.75" y="233.79" width="14.13" height="13.91" rx="6.95"/><path class="cls-1" d="M394,242.12a12.67,12.67,0,0,1-25.16,0Z"/><path class="cls-13" d="M395.55,239.12H367.21a1.5,1.5,0,0,0-1.5,1.5,15.67,15.67,0,0,0,31.34,0A1.5,1.5,0,0,0,395.55,239.12Zm-14.17,14.17a12.68,12.68,0,0,1-12.58-11.17H394A12.68,12.68,0,0,1,381.38,253.29Z"/></g><g id="luces"><path class="cls-14" d="M339.38,291.72v4.09H328.23a2,2,0,0,1,0-4.09Z"/><path class="cls-13" d="M434.53,288.72H328.23a5,5,0,0,0,0,10.09h106.3a5,5,0,0,0,0-10.09Zm-11.16,3h11.16a2,2,0,0,1,0,4.09H423.37Zm-84,4.09H328.23a2,2,0,0,1,0-4.09h11.15Zm16.2,0h-13.2v-4.09h13.2Zm16.2,0h-13.2v-4.09h13.2Zm16.2,0h-13.2v-4.09H388Zm16.2,0H391v-4.09h13.2Zm3-4.09h13.19v4.09H407.18Z"/><rect class="cls-14" x="342.38" y="291.72" width="13.2" height="4.09"/><rect class="cls-14" x="358.58" y="291.72" width="13.2" height="4.09"/><rect class="cls-1" x="374.78" y="291.72" width="13.2" height="4.09"/><rect class="cls-14" x="390.98" y="291.72" width="13.2" height="4.09"/><rect class="cls-14" x="407.18" y="291.72" width="13.19" height="4.09"/><path class="cls-14" d="M436.57,293.76a2,2,0,0,1-2,2.05H423.37v-4.09h11.16A2,2,0,0,1,436.57,293.76Z"/></g><g id="pierna_der-2" data-name="pierna der"><path class="cls-5" d="M149.39,289.18V287.4c0-3-3-5.37-6.7-5.37h0a7.51,7.51,0,0,0-5,1.8H134a2.23,2.23,0,0,0-2.43,1.95v3.41h0V291h17.87v-1.79Z"/><path class="cls-5" d="M149.9,291.48H131v-5.71a2.73,2.73,0,0,1,2.94-2.45h3.57a8.07,8.07,0,0,1,5.17-1.79c4,0,7.21,2.63,7.21,5.87Zm-17.88-1h16.87V287.4c0-2.68-2.78-4.86-6.2-4.86a7,7,0,0,0-4.66,1.67l-1.83,1.64.71-1.52h-3c-1.06,0-1.93.64-1.93,1.44v4.7Z"/><path class="cls-5" d="M133.93,286.51h-.08a1.76,1.76,0,0,1-1.68-1.84c.31-7-1.1-12-4.18-14.82a14,14,0,0,0-4.69-2.62,16.53,16.53,0,0,1-6.52-4c-3-3.17-4.62-7.64-4.74-13.29a1.77,1.77,0,1,1,3.53-.08c.1,4.74,1.37,8.42,3.77,10.93A13.15,13.15,0,0,0,124.6,264a17.24,17.24,0,0,1,5.78,3.3c3.89,3.57,5.67,9.48,5.31,17.58A1.75,1.75,0,0,1,133.93,286.51Z"/></g><g id="cuerpo-4" data-name="cuerpo"><path class="cls-6" d="M32.67,232.35h68a14.28,14.28,0,0,1,14.28,14.28v28.64a14.28,14.28,0,0,1-14.28,14.28H32.67A21.45,21.45,0,0,1,11.23,268.1H9.44V253.8h1.79A21.44,21.44,0,0,1,32.67,232.35Z"/><path class="cls-5" d="M100.62,231.84H32.67a22,22,0,0,0-21.94,21.45H8.93v15.32h1.8a22,22,0,0,0,21.94,21.45h68a14.81,14.81,0,0,0,14.79-14.79V246.63A14.81,14.81,0,0,0,100.62,231.84Zm13.78,43.43a13.79,13.79,0,0,1-13.78,13.78H32.67A21,21,0,0,1,11.73,268.1v-.5H9.94V254.3h1.79v-.51a21,21,0,0,1,20.94-20.94h68a13.79,13.79,0,0,1,13.78,13.78Z"/><path class="cls-15" d="M32.67,286h68a10.72,10.72,0,0,0,10.71-10.7V246.63a10.72,10.72,0,0,0-10.71-10.71H32.67a17.85,17.85,0,0,0-14.29,7.16v35.73A17.82,17.82,0,0,0,32.67,286Z"/><path class="cls-5" d="M8.55,251.51a1.39,1.39,0,0,0-1.4,1.4V269a1.4,1.4,0,1,0,2.79,0V252.91A1.39,1.39,0,0,0,8.55,251.51ZM8.93,269a.39.39,0,1,1-.77,0V252.91a.39.39,0,1,1,.77,0Z"/><path class="cls-6" d="M8.93,252.91V269a.39.39,0,1,1-.77,0V252.91a.39.39,0,1,1,.77,0Z"/><path class="cls-6" d="M1.8,253.8a1.3,1.3,0,0,0-1.3,1.3v11.7a1.3,1.3,0,0,0,1.3,1.3H7.65V253.8Zm5.35,13.8H1.8a.79.79,0,0,1-.79-.8V255.09a.79.79,0,0,1,.79-.79H7.15Z"/><path class="cls-5" d="M1.8,253.29a1.81,1.81,0,0,0-1.8,1.8V266.8a1.81,1.81,0,0,0,1.8,1.81H8.16V253.29ZM1,266.8V255.09a.79.79,0,0,1,.79-.79H7.15v13.3H1.8A.79.79,0,0,1,1,266.8Z"/><path class="cls-6" d="M7.15,254.3v13.3H1.8a.79.79,0,0,1-.79-.8V255.09a.79.79,0,0,1,.79-.79Z"/></g><g id="brazo_der" data-name="brazo der"><path class="cls-5" d="M57.68,314.45h0a1.77,1.77,0,0,1-1.73-1.81c.19-7.65.26-15.42.22-23.08,0-4.72-.09-9.53-.19-14.27a1.77,1.77,0,1,1,3.53-.08c.11,4.76.17,9.59.2,14.33,0,7.7,0,15.5-.23,23.19A1.76,1.76,0,0,1,57.68,314.45Z"/></g><g id="pierna_izq-2" data-name="pierna izq"><path class="cls-5" d="M111.14,301.78a5.37,5.37,0,0,1-4.27,6.27l-1.76.33h0l-1.75.33-2.67-14h0l1.76-.33h0l3.36-.64a2,2,0,0,1,2.27,1.55l.56,2.95h0A5.37,5.37,0,0,1,111.14,301.78Z"/><path class="cls-5" d="M103,309.3l-2.85-15,5.62-1.06a2.45,2.45,0,0,1,2.86,1.95l.51,2.73a5.86,5.86,0,0,1,2.54,3.81h0a5.85,5.85,0,0,1-4.67,6.85Zm-1.67-14.24,2.48,13.06,3-.57a4.78,4.78,0,0,0,3.11-2,4.83,4.83,0,0,0,.76-3.64h0a4.82,4.82,0,0,0-2.27-3.25L106,297.21l2,.35-.42-2.23a1.49,1.49,0,0,0-.61-.92,1.47,1.47,0,0,0-1.08-.22Z"/><path class="cls-5" d="M107.39,297.74a1.77,1.77,0,0,1-.19-3.52,13.5,13.5,0,0,0,9.5-5.52c3-4.49,2-9.35,1.53-11.18a16.84,16.84,0,0,0-4.57-8.17,1.76,1.76,0,1,1,2.49-2.5,20.33,20.33,0,0,1,5.53,9.89c.45,2,1.85,8.19-2.06,13.94a17.09,17.09,0,0,1-12,7.05Z"/></g><path class="cls-8" d="M43.4,243.07H57.7a0,0,0,0,1,0,0v1.84a5.31,5.31,0,0,1-5.31,5.31H48.71a5.31,5.31,0,0,1-5.31-5.31v-1.84A0,0,0,0,1,43.4,243.07Z" transform="translate(297.2 196.1) rotate(90)"/><path class="cls-5" d="M54.13,254.55a7.91,7.91,0,1,1,0-15.81.76.76,0,0,1,.75.76v14.3A.75.75,0,0,1,54.13,254.55Zm-.76-14.25a6.4,6.4,0,0,0-5.64,6.35h0A6.41,6.41,0,0,0,53.37,253Z"/><path class="cls-5" d="M47,259l-2-2.08a1.4,1.4,0,0,0-2,0,1.39,1.39,0,0,0,0,2l2,2.08-2.08,2a1.4,1.4,0,0,0,2,2l2.08-2L49,265a1.41,1.41,0,0,0,2-2L49,261l2.08-2a1.4,1.4,0,1,0-2-2Z"/><path class="cls-5" d="M47,230.36l-2-2.08a1.4,1.4,0,0,0-2,0,1.39,1.39,0,0,0,0,2l2,2.09-2.08,2a1.4,1.4,0,0,0,2,2l2.08-2,2,2.09a1.41,1.41,0,0,0,2-2l-2-2.08,2.08-2a1.39,1.39,0,0,0,0-2,1.42,1.42,0,0,0-2,0Z"/><g id="brazo_izq-2" data-name="brazo izq"><path class="cls-5" d="M77.37,277h-.2a1.76,1.76,0,0,1-1.56-1.95c1.09-9.72.49-26.71-.74-31.83-1.44-6-3.31-9.73-5.27-10.49-3.31-1.3-7.52,1.5-8.73,2.39a1.76,1.76,0,0,1-2.09-2.84c2-1.49,7.26-4.74,12.11-2.84,2,.8,5,3,7.42,12.95,1.31,5.49,2,22.84.81,33.05A1.76,1.76,0,0,1,77.37,277Z"/></g><rect class="cls-6" x="57.7" y="232.91" width="8.94" height="3.02" transform="translate(124.34 468.83) rotate(-180)"/><g id="brazo_der-2" data-name="brazo der"><path class="cls-5" d="M209.88,314.45h0a1.76,1.76,0,0,1-1.72-1.81c.18-7.65.26-15.42.22-23.08,0-4.72-.09-9.53-.2-14.27a1.77,1.77,0,1,1,3.53-.08c.11,4.76.18,9.59.2,14.33,0,7.7,0,15.5-.22,23.19A1.76,1.76,0,0,1,209.88,314.45Z"/></g><path class="cls-16" d="M324.93,102.22a17.66,17.66,0,0,0,6.2,9.08c1.86,1.47,5.34,4.13,10.09,3.76a13.27,13.27,0,0,0,7.7-3.35,10.29,10.29,0,0,1-6.34,2,16.6,16.6,0,0,1-10.09-3.76,17.66,17.66,0,0,1-6.2-9.08,12.8,12.8,0,0,1-.45-3.33A9.48,9.48,0,0,1,328,91.34a11.59,11.59,0,0,0-3.49,7.55A10.64,10.64,0,0,0,324.93,102.22Z"/><ellipse class="cls-17" cx="339.14" cy="100.86" rx="9" ry="11.73" transform="translate(39.8 289.49) rotate(-48.78)"/><path class="cls-3" d="M325.84,97.53a12.8,12.8,0,0,0,.45,3.33,17.66,17.66,0,0,0,6.2,9.08,16.6,16.6,0,0,0,10.09,3.76,10.29,10.29,0,0,0,6.34-2,8.72,8.72,0,0,0,2.73-3.51h0a10,10,0,0,0,.79-4,13.24,13.24,0,0,0-.45-3.33C350.08,93.76,342.79,88,335.7,88a11.08,11.08,0,0,0-4,.69h0A8.87,8.87,0,0,0,328,91.34,9.48,9.48,0,0,0,325.84,97.53Zm11.49-6.91a14.6,14.6,0,0,1,11.79,9.3c2.29,6.4-1.62,11.74-8.18,11.17a14.6,14.6,0,0,1-11.78-9.3C326.87,95.39,330.78,90.05,337.33,90.62Z"/><path class="cls-18" d="M351.68,99.19a18.3,18.3,0,0,0-7.22-8.65,16.47,16.47,0,0,0-9-2.77c-.37,0-1,.06-1.66.16a11,11,0,0,0-1.58.37,9.28,9.28,0,0,0-4.39,2.87l0,0a12,12,0,0,0-3.57,7.73,10.69,10.69,0,0,0,.47,3.41h0a17.79,17.79,0,0,0,6.29,9.22c1.62,1.28,4.88,3.85,9.36,3.85l.91,0a13.64,13.64,0,0,0,7.86-3.42v0h0a9.41,9.41,0,0,0,3.59-7.38A13.31,13.31,0,0,0,351.68,99.19ZM341.2,114.8c-4.74.37-8.23-2.39-9.91-3.71a17.31,17.31,0,0,1-6.1-8.94,10.22,10.22,0,0,1-.45-3.25A10.52,10.52,0,0,1,326,94.4a10.67,10.67,0,0,0-.45,3.13,13.19,13.19,0,0,0,.47,3.4,17.83,17.83,0,0,0,6.28,9.22A16.87,16.87,0,0,0,342.58,114a11.92,11.92,0,0,0,3-.38A12.62,12.62,0,0,1,341.2,114.8Zm11-10a9,9,0,0,1-3.42,6.79l0,0a10,10,0,0,1-6.18,1.94,16.31,16.31,0,0,1-9.93-3.71,17.31,17.31,0,0,1-6.1-8.94,12.54,12.54,0,0,1-.45-3.26,9.24,9.24,0,0,1,2.07-6l0,0a8.94,8.94,0,0,1,5.38-3c.73-.13,1.47-.18,2.21-.26a15.82,15.82,0,0,1,8.08,2.49,17.78,17.78,0,0,1,7.51,8.87A12.36,12.36,0,0,1,352.21,104.75Z"/><path class="cls-18" d="M342,91.75a11.37,11.37,0,0,0-7.46-1.22A7.46,7.46,0,0,0,328.27,98a10.23,10.23,0,0,0,.8,4.2,14.75,14.75,0,0,0,7.37,7.84,11.42,11.42,0,0,0,7.35,1.15A7.48,7.48,0,0,0,348,109a7.69,7.69,0,0,0,2-5.44,10.14,10.14,0,0,0-.62-3.53A14.67,14.67,0,0,0,342,91.75Zm1.41,19c-.5.08-1,.11-1.29.14a12.74,12.74,0,0,1-7.2-2.32,13.88,13.88,0,0,1-5.74-7.59,8.59,8.59,0,0,1,0-5.42A6.8,6.8,0,0,1,334.47,91a10.46,10.46,0,0,1,6.76.9,14.3,14.3,0,0,1,7.68,8.09,9.52,9.52,0,0,1,.65,3.49A7.06,7.06,0,0,1,343.38,110.79Z"/><path class="cls-18" d="M346,99.25a1.2,1.2,0,0,0-1.18,1.61,2.25,2.25,0,0,0,2,1.6,1.18,1.18,0,0,0,1.17-1.6A2.23,2.23,0,0,0,346,99.25Z"/><path class="cls-18" d="M333.19,99.25a1.19,1.19,0,0,0-1.17,1.61,2.24,2.24,0,0,0,2,1.6,1.19,1.19,0,0,0,1.18-1.6A2.25,2.25,0,0,0,333.19,99.25Z"/><path class="cls-19" d="M342.58,102.92a2,2,0,0,1-1.67.75,4.08,4.08,0,0,1-3.51-2.41h5.54A2.12,2.12,0,0,1,342.58,102.92Z"/><path class="cls-18" d="M343.64,100.75a.39.39,0,0,0-.38-.29h-6.43a.39.39,0,0,0-.38.5,4.93,4.93,0,0,0,4.46,3.51,2.81,2.81,0,0,0,2.3-1.06A3,3,0,0,0,343.64,100.75Zm-2.73,2.92a4.08,4.08,0,0,1-3.51-2.41h5.54a2.12,2.12,0,0,1-.36,1.66A2,2,0,0,1,340.91,103.67Z"/><path class="cls-16" d="M438.83,100.27a17.65,17.65,0,0,1-8.81,6.58c-2.23.78-6.39,2.18-10.77.28a13.32,13.32,0,0,1-6.19-5.68,10.29,10.29,0,0,0,5.35,4,16.67,16.67,0,0,0,10.77-.28A17.65,17.65,0,0,0,438,98.54a12.61,12.61,0,0,0,1.51-3,9.48,9.48,0,0,0,0-6.54,11.65,11.65,0,0,1,.85,8.27A10.61,10.61,0,0,1,438.83,100.27Z"/><ellipse class="cls-20" cx="425.84" cy="94.37" rx="11.73" ry="9" transform="translate(-4.01 168.35) rotate(-22.26)"/><path class="cls-3" d="M439.5,89a8.91,8.91,0,0,0-2.7-3.72h0a11.23,11.23,0,0,0-3.52-1.93c-6.71-2.31-15.48.76-19.58,6.86a12.61,12.61,0,0,0-1.51,3,10.09,10.09,0,0,0-.56,4h0a8.69,8.69,0,0,0,1.44,4.2,10.29,10.29,0,0,0,5.35,4,16.67,16.67,0,0,0,10.77-.28A17.65,17.65,0,0,0,438,98.54a12.61,12.61,0,0,0,1.51-3A9.48,9.48,0,0,0,439.5,89ZM435,98.5a14.62,14.62,0,0,1-14.17,5c-6.39-1.59-8.35-7.91-4.11-13.22a14.61,14.61,0,0,1,14.17-5C437.26,86.87,439.22,93.19,435,98.5Z"/><path class="cls-18" d="M411.85,93.43a9.44,9.44,0,0,0,1,8.15h0a13.57,13.57,0,0,0,6.32,5.79,7.44,7.44,0,0,0,.85.33c4.24,1.46,8.16.08,10.11-.6a17.83,17.83,0,0,0,8.94-6.68h0a10.62,10.62,0,0,0,1.55-3.07,11.92,11.92,0,0,0-.86-8.47h0a9.27,9.27,0,0,0-3.22-4.14,10.84,10.84,0,0,0-1.37-.86c-.57-.3-1.18-.54-1.52-.69a16.49,16.49,0,0,0-9.44-.32,18.32,18.32,0,0,0-9.64,5.84A13.06,13.06,0,0,0,411.85,93.43Zm3.73,10.88a11.63,11.63,0,0,0,2.74,1.34,16.75,16.75,0,0,0,10.94-.28,17.8,17.8,0,0,0,8.95-6.68,13.12,13.12,0,0,0,1.54-3.06,10.41,10.41,0,0,0,.59-3.1,10.24,10.24,0,0,1-.25,4.66,10.06,10.06,0,0,1-1.48,2.93,17.32,17.32,0,0,1-8.68,6.48c-2,.71-6.21,2.18-10.57.28A12.42,12.42,0,0,1,415.58,104.31Zm-.84-15.14a17.83,17.83,0,0,1,10-5.94,15.86,15.86,0,0,1,8.45.27c.67.32,1.36.6,2,1a9,9,0,0,1,4.11,4.62h0a9.29,9.29,0,0,1,0,6.37,12.48,12.48,0,0,1-1.48,2.94,17.4,17.4,0,0,1-8.68,6.47,16.23,16.23,0,0,1-10.59.28,10.08,10.08,0,0,1-5.22-3.84l0,0a8.92,8.92,0,0,1-1-7.52A12.38,12.38,0,0,1,414.74,89.17Z"/><path class="cls-18" d="M416.43,90.21a10.18,10.18,0,0,0-1.74,3.14,7.69,7.69,0,0,0,.17,5.81,7.47,7.47,0,0,0,3.22,3.47,11.35,11.35,0,0,0,7.33,1.3,14.78,14.78,0,0,0,9.52-5,10.4,10.4,0,0,0,2.12-3.71,7.48,7.48,0,0,0-3.48-9.09,11.3,11.3,0,0,0-7.45-1.27A14.63,14.63,0,0,0,416.43,90.21Zm-1.31,3.26a9.56,9.56,0,0,1,1.76-3.08,14.28,14.28,0,0,1,9.88-5.16,10.47,10.47,0,0,1,6.7,1.35A6.79,6.79,0,0,1,437,92.65a8.55,8.55,0,0,1-1.76,5.12,13.83,13.83,0,0,1-7.89,5.31,12.69,12.69,0,0,1-7.56-.14c-.26-.12-.73-.32-1.18-.56A7.06,7.06,0,0,1,415.12,93.47Z"/><path class="cls-18" d="M419.84,90.61a1.2,1.2,0,0,1,.59,1.9,2.25,2.25,0,0,1-2.45.86,1.19,1.19,0,0,1-.59-1.9A2.25,2.25,0,0,1,419.84,90.61Z"/><path class="cls-18" d="M432,94.78a1.19,1.19,0,0,1,.59,1.9,2.22,2.22,0,0,1-2.44.86,1.19,1.19,0,0,1-.59-1.9A2.26,2.26,0,0,1,432,94.78Z"/><path class="cls-19" d="M421.91,95.21a2.07,2.07,0,0,0,1.34,1.25,4.11,4.11,0,0,0,4.11-1.15l-5.24-1.8A2.16,2.16,0,0,0,421.91,95.21Z"/><path class="cls-18" d="M421.16,95.46A2.79,2.79,0,0,0,423,97.21a4.93,4.93,0,0,0,5.36-1.87.39.39,0,0,0,0-.35.44.44,0,0,0-.25-.25l-6.08-2.08a.39.39,0,0,0-.46.15A3,3,0,0,0,421.16,95.46Zm.75-.25a2.16,2.16,0,0,1,.21-1.7l5.24,1.8a4.11,4.11,0,0,1-4.11,1.15A2.07,2.07,0,0,1,421.91,95.21Z"/><path class="cls-16" d="M376.6,4.59A17.63,17.63,0,0,1,380,15c0,2.37,0,6.75-3.17,10.3a13.29,13.29,0,0,1-7.35,4.07A10.27,10.27,0,0,0,375,25.58a16.62,16.62,0,0,0,3.16-10.3A17.69,17.69,0,0,0,374.7,4.84a12.49,12.49,0,0,0-2.37-2.39,9.46,9.46,0,0,0-6.2-2.08,11.6,11.6,0,0,1,8.11,1.83A10.17,10.17,0,0,1,376.6,4.59Z"/><ellipse class="cls-21" cx="366.87" cy="15.03" rx="9" ry="11.73" transform="translate(-0.2 23.76) rotate(-3.71)"/><path class="cls-3" d="M366.13.37a8.92,8.92,0,0,0-4.39,1.38h0a11.15,11.15,0,0,0-3,2.73c-4.32,5.62-4.2,14.91.27,20.74a13.42,13.42,0,0,0,2.37,2.39,10.15,10.15,0,0,0,3.65,1.81h0a8.79,8.79,0,0,0,4.44,0A10.27,10.27,0,0,0,375,25.58a16.62,16.62,0,0,0,3.16-10.3A17.69,17.69,0,0,0,374.7,4.84a12.49,12.49,0,0,0-2.37-2.39A9.46,9.46,0,0,0,366.13.37Zm7.57,7.31a14.6,14.6,0,0,1,.19,15c-3.53,5.55-10.15,5.4-13.84-.31a14.62,14.62,0,0,1-.19-15C363.39,1.82,370,2,373.7,7.68Z"/><path class="cls-18" d="M361.53,28a9.42,9.42,0,0,0,8,1.65h0v0a13.62,13.62,0,0,0,7.5-4.15c.21-.23.41-.47.59-.71,2.72-3.55,2.67-7.71,2.64-9.77a17.9,17.9,0,0,0-3.48-10.61h0A10.76,10.76,0,0,0,374.39,2,11.94,11.94,0,0,0,366.09.1v0a9.27,9.27,0,0,0-4.94,1.74,11.23,11.23,0,0,0-1.26,1c-.46.45-.88.95-1.13,1.22A16.4,16.4,0,0,0,355.45,13a18.27,18.27,0,0,0,2.47,11A13.15,13.15,0,0,0,361.53,28ZM373,27.92a12.65,12.65,0,0,0,2.14-2.18,16.8,16.8,0,0,0,3.22-10.46,17.91,17.91,0,0,0-3.49-10.61,13.26,13.26,0,0,0-2.42-2.43A10.74,10.74,0,0,0,369.75.69a10.59,10.59,0,0,1,4.34,1.72,10.14,10.14,0,0,1,2.3,2.34A17.28,17.28,0,0,1,379.77,15c0,2.13.09,6.58-3.09,10.11A12.78,12.78,0,0,1,373,27.92Zm-14.63-4A17.81,17.81,0,0,1,356,12.53a15.86,15.86,0,0,1,2.94-7.92c.52-.53,1-1.1,1.55-1.59A9,9,0,0,1,366.13.59v0a9.24,9.24,0,0,1,6,2A12.55,12.55,0,0,1,374.49,5a17.36,17.36,0,0,1,3.37,10.29,16.32,16.32,0,0,1-3.1,10.13,10.07,10.07,0,0,1-5.31,3.72l0,.05A8.93,8.93,0,0,1,362,27.77,12.48,12.48,0,0,1,358.41,23.89Z"/><path class="cls-18" d="M359.94,22.63a10.14,10.14,0,0,0,2.42,2.64A7.68,7.68,0,0,0,367.92,27,7.44,7.44,0,0,0,372.24,25a11.42,11.42,0,0,0,3.56-6.53,14.72,14.72,0,0,0-1.73-10.62,10.21,10.21,0,0,0-2.84-3.19,7.48,7.48,0,0,0-9.73.4,11.39,11.39,0,0,0-3.58,6.66A14.73,14.73,0,0,0,359.94,22.63Zm2.68,2.27a9.49,9.49,0,0,1-2.37-2.64,14.33,14.33,0,0,1-1.75-11,10.47,10.47,0,0,1,3.41-5.91,6.78,6.78,0,0,1,6.88-1.42,8.53,8.53,0,0,1,4.3,3.3,13.84,13.84,0,0,1,2.52,9.16,12.77,12.77,0,0,1-2.54,7.13c-.2.2-.53.59-.9.94A7.06,7.06,0,0,1,362.62,24.9Z"/><path class="cls-18" d="M361.4,19.52a1.19,1.19,0,0,1,2,.05,2.24,2.24,0,0,1,0,2.59,1.2,1.2,0,0,1-2,0A2.27,2.27,0,0,1,361.4,19.52Z"/><path class="cls-18" d="M369.22,9.33a1.19,1.19,0,0,1,2,.05,2.24,2.24,0,0,1,0,2.59,1.2,1.2,0,0,1-2,0A2.26,2.26,0,0,1,369.22,9.33Z"/><path class="cls-19" d="M366.42,19a2,2,0,0,0,1.61-.88,4.08,4.08,0,0,0,.22-4.25l-3.37,4.39A2.13,2.13,0,0,0,366.42,19Z"/><path class="cls-18" d="M366.42,19.81a2.81,2.81,0,0,0,2.24-1.18,4.92,4.92,0,0,0-.07-5.67.38.38,0,0,0-.31-.16A.4.4,0,0,0,368,13l-3.91,5.09a.4.4,0,0,0,0,.49A3,3,0,0,0,366.42,19.81Zm0-.79a2.13,2.13,0,0,1-1.54-.74l3.37-4.39a4.08,4.08,0,0,1-.22,4.25A2,2,0,0,1,366.42,19Z"/><path class="cls-9" d="M447.71,19.9c-15.65,12.76-22.4,32.68-35.84,47.22a3,3,0,0,1-3.13.57L381.08,55.8c-1.05-.46-1.2-1.36-.37-2,15.82-13.12,22.57-33.54,36.13-48.48A2.83,2.83,0,0,1,420,4.72Q433.5,11,447.35,17.8C448.39,18.3,448.53,19.23,447.71,19.9Z"/><path class="cls-9" d="M427.43,37.89c-1.44,2.22-2.84,4.47-4.25,6.71-3.45,5.61-11.41,7.89-17.63,5.24h0c-6.21-2.63-8-9-4.4-14.67,1.44-2.27,2.85-4.56,4.27-6.85,3.47-5.74,11.43-8,17.63-5.23h0C429.23,25.89,431,32.37,427.43,37.89Z"/><path class="cls-10" d="M411.87,44h0a2.46,2.46,0,0,1-2.93.89h0a1.62,1.62,0,0,1-.75-2.46h0a2.46,2.46,0,0,1,2.92-.9h0A1.63,1.63,0,0,1,411.87,44Z"/><path class="cls-10" d="M420.4,30.5h0a2.45,2.45,0,0,1-2.92.88h0a1.67,1.67,0,0,1-.76-2.49h0a2.43,2.43,0,0,1,2.93-.87h0A1.64,1.64,0,0,1,420.4,30.5Z"/><path class="cls-11" d="M417.93,35.33a2.88,2.88,0,0,1,.09,1.24,3.24,3.24,0,0,1-.46,1.23,4.36,4.36,0,0,1-4.65,1.81l1.8-2.9,1.88-3A2.86,2.86,0,0,1,417.93,35.33Z"/><path class="cls-10" d="M416.61,32.63a.48.48,0,0,0-.6.19c-.71,1.12-1.41,2.25-2.11,3.39s-1.41,2.27-2.13,3.4a.51.51,0,0,0,0,.4.47.47,0,0,0,.27.3,5.35,5.35,0,0,0,6.06-1.55,4.73,4.73,0,0,0,.32-.46,3.82,3.82,0,0,0-1.76-5.67ZM418,36.57a3.24,3.24,0,0,1-.46,1.23,4.36,4.36,0,0,1-4.65,1.81l1.8-2.9,1.88-3A2.78,2.78,0,0,1,418,36.57Z"/><path class="cls-10" d="M447.49,17.51c-9.07-4.43-18.28-8.83-27.38-13.08a3.17,3.17,0,0,0-3.51.62c-5.83,6.43-10.48,14-15,21.28-6,9.69-12.13,19.72-21.13,27.18a1.5,1.5,0,0,0-.63,1.37A1.63,1.63,0,0,0,381,56.09l14.52,6.24L408.61,68a3.29,3.29,0,0,0,3.5-.64c1.18-1.28,2.31-2.61,3.4-4A175.09,175.09,0,0,0,427,46.6c5.92-9.44,12-19.2,20.94-26.45a1.51,1.51,0,0,0,.64-1.35A1.71,1.71,0,0,0,447.49,17.51Zm.43,1.36a.92.92,0,0,1-.41.78h0c-9,7.32-15.14,17.13-21.09,26.62-4.44,7.09-9,14.42-14.78,20.63a2.66,2.66,0,0,1-2.77.5l-13.15-5.65L381.21,55.5a1,1,0,0,1-.71-.71.73.73,0,0,1,.19-.57,1.14,1.14,0,0,1,.22-.22c9.08-7.53,15.27-17.6,21.26-27.33,4.48-7.28,9.11-14.8,14.91-21.19A2.54,2.54,0,0,1,419.84,5c9.09,4.25,18.3,8.65,27.37,13.07A1.17,1.17,0,0,1,447.92,18.87Z"/><path class="cls-10" d="M405.14,28.15l-.4.66c-1.26,2-2.55,4.14-3.86,6.19a10.57,10.57,0,0,0-1.46,8.88,10.2,10.2,0,0,0,6,6.26A15.1,15.1,0,0,0,422.58,46a12.11,12.11,0,0,0,.87-1.25l.41-.64c1.25-2,2.54-4.06,3.83-6.07h0a10.49,10.49,0,0,0,1.49-8.73,10.56,10.56,0,0,0-6-6.53C416.78,19.9,408.68,22.3,405.14,28.15Zm23.43,1.36a9.9,9.9,0,0,1-1.41,8.2c-1.3,2-2.59,4.08-3.84,6.08l-.41.65c-3.34,5.43-11.08,7.73-17.24,5.11A9.53,9.53,0,0,1,400,43.69a10,10,0,0,1,1.39-8.35c1.31-2.05,2.61-4.16,3.86-6.2l.41-.65a11.78,11.78,0,0,1,.91-1.31,14,14,0,0,1,16.32-3.79A9.88,9.88,0,0,1,428.57,29.51Z"/><path class="cls-10" d="M389.79,52.83l-1.67-.71c.25-.26.51-.52.75-.78a.64.64,0,1,0-.92-.88c-.36.38-.73.75-1.1,1.12l-.57-.25a.64.64,0,0,0-.5,1.18l.22.09a1.85,1.85,0,0,0-.21,1.2,1.53,1.53,0,0,0,1,1.14,3.47,3.47,0,0,0,3.28-.62l1.67.71-.75.74a.64.64,0,1,0,.89.92L393,55.57l.57.24a.65.65,0,0,0,.75-.19.71.71,0,0,0,.08-.15.64.64,0,0,0-.33-.84l-.25-.1a1.91,1.91,0,0,0,.19-1.22,1.59,1.59,0,0,0-1-1.16A3.35,3.35,0,0,0,389.79,52.83Zm-2.53.94c-.19-.08-.21-.18-.22-.21a.73.73,0,0,1,.15-.45l1.36.58A1.9,1.9,0,0,1,387.26,53.77Zm5.46-.21a.7.7,0,0,1-.12.46l-1.36-.58a1.78,1.78,0,0,1,1.25-.12A.36.36,0,0,1,392.72,53.56Z"/><path class="cls-10" d="M437.05,18.29l-1.69-.79.77-.76a.63.63,0,0,0,0-.9.63.63,0,0,0-.9,0c-.37.35-.73.72-1.1,1.1l-.54-.26a.64.64,0,0,0-.55,1.16l.27.12a2,2,0,0,0-.2,1.24,1.62,1.62,0,0,0,1,1.2,3.23,3.23,0,0,0,3.18-.58l1.68.79-.76.78a.64.64,0,1,0,.92.89c.35-.37.71-.73,1.06-1.09l.56.26a.64.64,0,0,0,.77-.17.57.57,0,0,0,.08-.13.64.64,0,0,0-.31-.85l-.25-.12a2,2,0,0,0,.23-1.21,1.6,1.6,0,0,0-.94-1.19A3.32,3.32,0,0,0,437.05,18.29Zm-2.43.95a.39.39,0,0,1-.24-.28.8.8,0,0,1,.1-.46l1.38.65A1.72,1.72,0,0,1,434.62,19.24Zm5.36-.07a.87.87,0,0,1-.13.45L438.46,19a1.81,1.81,0,0,1,1.29,0C440,19,440,19.13,440,19.17Z"/><path class="cls-9" d="M292.82,15.71c13.89,14.66,18,35.28,29.49,51.43a3,3,0,0,0,3,1l29-8.25c1.1-.32,1.36-1.19.63-2-14-15-18.08-36.16-29.62-52.72a2.84,2.84,0,0,0-3-1Q308,8.75,293.45,13.67C292.35,14,292.09,15,292.82,15.71Z"/><path class="cls-9" d="M310.63,36.15c1.14,2.39,2.24,4.8,3.35,7.21,2.7,6,10.3,9.28,16.81,7.46h0c6.5-1.82,9.07-7.93,6.25-14-1.14-2.43-2.25-4.89-3.36-7.34-2.7-6.14-10.31-9.44-16.81-7.45h0C310.38,24,307.81,30.22,310.63,36.15Z"/><path class="cls-10" d="M325.26,44.24h0a2.47,2.47,0,0,0,2.8,1.26h0a1.61,1.61,0,0,0,1.06-2.34h0a2.45,2.45,0,0,0-2.78-1.27h0A1.64,1.64,0,0,0,325.26,44.24Z"/><path class="cls-10" d="M318.54,29.73h0A2.44,2.44,0,0,0,321.32,31h0a1.66,1.66,0,0,0,1.08-2.37h0a2.45,2.45,0,0,0-2.8-1.24h0A1.65,1.65,0,0,0,318.54,29.73Z"/><path class="cls-11" d="M320.38,34.83a2.73,2.73,0,0,0-.25,1.22,3.11,3.11,0,0,0,.3,1.28,4.34,4.34,0,0,0,4.38,2.39c-.48-1-.95-2.07-1.42-3.1s-1-2.16-1.48-3.23A2.81,2.81,0,0,0,320.38,34.83Z"/><path class="cls-10" d="M319.51,34.43a3.93,3.93,0,0,0,.05,3.3,3.29,3.29,0,0,0,.26.49,5.31,5.31,0,0,0,5.81,2.31.46.46,0,0,0,.3-.26.47.47,0,0,0,0-.4c-.56-1.21-1.11-2.43-1.67-3.65s-1.1-2.42-1.66-3.63a.47.47,0,0,0-.57-.26A3.87,3.87,0,0,0,319.51,34.43Zm.87.4a2.81,2.81,0,0,1,1.53-1.44c.5,1.07,1,2.15,1.48,3.23s.94,2.07,1.42,3.1a4.34,4.34,0,0,1-4.38-2.39,3.11,3.11,0,0,1-.3-1.28A2.73,2.73,0,0,1,320.38,34.83Z"/><path class="cls-10" d="M292.13,14.52a1.49,1.49,0,0,0,.46,1.41c7.89,8.34,12.72,18.81,17.38,28.93A173,173,0,0,0,319.18,63c.91,1.49,1.86,2.94,2.87,4.36a3.26,3.26,0,0,0,3.38,1.09l13.75-3.91,15.2-4.34a1.63,1.63,0,0,0,1.24-1.06,1.51,1.51,0,0,0-.46-1.44c-8-8.55-12.8-19.28-17.47-29.66-3.51-7.81-7.15-15.9-12.11-23a3.19,3.19,0,0,0-3.4-1.07c-9.57,3.05-19.27,6.23-28.84,9.46A1.69,1.69,0,0,0,292.13,14.52Zm1.42-.54c9.56-3.23,19.26-6.41,28.82-9.46a2.55,2.55,0,0,1,2.68.82c4.93,7.08,8.56,15.13,12.06,22.93,4.69,10.42,9.54,21.2,17.58,29.83a1.33,1.33,0,0,1,.19.24.74.74,0,0,1,.12.59,1,1,0,0,1-.79.62L339,63.88,325.25,67.8a2.63,2.63,0,0,1-2.68-.85c-4.9-6.9-8.52-14.76-12-22.36-4.69-10.17-9.53-20.68-17.5-29.1h0a.88.88,0,0,1-.3-.82A1.1,1.1,0,0,1,293.55,14Z"/><path class="cls-10" d="M316.77,21.74a10.52,10.52,0,0,0-6.78,5.7,10.51,10.51,0,0,0,.35,8.85h0c1,2.16,2,4.37,3,6.51l.32.69a10.83,10.83,0,0,0,.71,1.35,15.05,15.05,0,0,0,16.48,6.28,10.22,10.22,0,0,0,6.76-5.43,10.63,10.63,0,0,0-.31-9c-1-2.2-2.05-4.45-3-6.63l-.31-.7C331.22,23.1,323.5,19.68,316.77,21.74Zm.19.61a14,14,0,0,1,15.7,5.86,11.74,11.74,0,0,1,.73,1.41l.32.7c1,2.18,2,4.44,3,6.64a10,10,0,0,1,.31,8.46,9.58,9.58,0,0,1-6.35,5.09c-6.45,1.8-13.82-1.46-16.44-7.28l-.32-.7c-1-2.14-2-4.35-3-6.51a9.86,9.86,0,0,1-.35-8.32A9.93,9.93,0,0,1,317,22.35Z"/><path class="cls-10" d="M343,54.71a1.61,1.61,0,0,0-1.12,1,1.93,1.93,0,0,0,0,1.23l-.26.07a.65.65,0,0,0-.44.79.77.77,0,0,0,.07.16.64.64,0,0,0,.72.28l.59-.16,1,1.25a.64.64,0,0,0,.9.1.63.63,0,0,0,.1-.89l-.65-.84,1.75-.49a3.48,3.48,0,0,0,3.17,1,1.52,1.52,0,0,0,1.1-1,1.81,1.81,0,0,0-.06-1.21l.24-.07a.63.63,0,0,0,.44-.78.65.65,0,0,0-.79-.45l-.6.17c-.32-.41-.63-.83-.94-1.25a.66.66,0,0,0-.9-.14.65.65,0,0,0-.13.9c.21.29.43.58.65.86l-1.75.5A3.36,3.36,0,0,0,343,54.71Zm4.21,2.1,1.43-.4a.75.75,0,0,1,.08.47s0,.12-.24.17A1.84,1.84,0,0,1,347.16,56.81Zm-3.87-.87a1.8,1.8,0,0,1,1.23.28l-1.42.4a.7.7,0,0,1-.06-.47A.32.32,0,0,1,343.29,55.94Z"/><path class="cls-10" d="M300.44,14.55a1.61,1.61,0,0,0-1.08,1.06,1.87,1.87,0,0,0,.07,1.23l-.27.09a.64.64,0,0,0-.41.8l.06.14a.66.66,0,0,0,.75.27l.58-.19.92,1.21a.63.63,0,0,0,.89.14.65.65,0,0,0,.14-.89l-.66-.88L303.2,17a3.19,3.19,0,0,0,3.07,1,1.6,1.6,0,0,0,1.1-1.07,1.92,1.92,0,0,0,0-1.25l.28-.09a.64.64,0,0,0,.41-.81.63.63,0,0,0-.8-.41l-.57.18c-.32-.41-.63-.83-1-1.23a.65.65,0,0,0-.9-.1.64.64,0,0,0-.1.89l.66.86-1.77.57A3.29,3.29,0,0,0,300.44,14.55Zm4.22,1.94,1.45-.47a.82.82,0,0,1,.05.47.37.37,0,0,1-.27.24A1.69,1.69,0,0,1,304.66,16.49Zm-3.82-.73a1.86,1.86,0,0,1,1.27.21l-1.46.47a.75.75,0,0,1-.07-.46S300.63,15.83,300.84,15.76Z"/><g id="cuerpo-5" data-name="cuerpo"><path class="cls-1" d="M661.62,261.21H676a7.23,7.23,0,0,1-14.35,0Z"/><path class="cls-1" d="M709.46,240.71H628.13a7.28,7.28,0,0,0-7.27,7.27v32.83a7.28,7.28,0,0,0,7.27,7.27h81.33a7.29,7.29,0,0,0,7.28-7.27V248A7.29,7.29,0,0,0,709.46,240.71Zm-40.67,28.58a9,9,0,0,1-8.94-8.94.86.86,0,0,1,.86-.85h16.17a.86.86,0,0,1,.86.85A9,9,0,0,1,668.79,269.29Z"/><path class="cls-1" d="M652.06,236.58v3H637v-3a4,4,0,0,1,4-4h7.12A4,4,0,0,1,652.06,236.58Z"/><path class="cls-2" d="M709.46,239.57H701.7v-3a5.09,5.09,0,0,0-5.09-5.09h-7.12a5.1,5.1,0,0,0-5.1,5.09v3H653.2v-3a5.1,5.1,0,0,0-5.1-5.09H641a5.1,5.1,0,0,0-5.1,5.09v3h-7.75a8.42,8.42,0,0,0-8.41,8.41v32.83a8.42,8.42,0,0,0,8.41,8.41h81.33a8.42,8.42,0,0,0,8.42-8.41V248A8.42,8.42,0,0,0,709.46,239.57Zm-23.93-3a4,4,0,0,1,4-4h7.12a4,4,0,0,1,3.95,4v3h-15Zm-48.5,0a4,4,0,0,1,4-4h7.12a4,4,0,0,1,4,4v3H637Zm79.71,44.23a7.29,7.29,0,0,1-7.28,7.27H628.13a7.28,7.28,0,0,1-7.27-7.27V248a7.28,7.28,0,0,1,7.27-7.27h81.33a7.29,7.29,0,0,1,7.28,7.27Z"/><path class="cls-1" d="M700.56,236.58v3h-15v-3a4,4,0,0,1,4-4h7.12A4,4,0,0,1,700.56,236.58Z"/></g><g id="cara-3" data-name="cara"><path class="cls-3" d="M676,261.21a7.23,7.23,0,0,1-14.35,0Z"/><path class="cls-2" d="M676.88,259.5H660.71a.86.86,0,0,0-.86.85,8.95,8.95,0,0,0,17.89,0A.86.86,0,0,0,676.88,259.5Zm-8.09,8.08a7.23,7.23,0,0,1-7.17-6.37H676A7.24,7.24,0,0,1,668.79,267.58Z"/><path class="cls-2" d="M684.94,261.51a1.14,1.14,0,0,1-1.14-1.14,5.22,5.22,0,0,1,5.21-5.21h0a5.22,5.22,0,0,1,5.18,5.21,1.14,1.14,0,0,1-1.14,1.14h0a1.14,1.14,0,0,1-1.14-1.14,2.94,2.94,0,0,0-2.91-2.93h0a2.93,2.93,0,0,0-2.06.86,2.9,2.9,0,0,0-.86,2.07,1.14,1.14,0,0,1-1.14,1.14Z"/><path class="cls-2" d="M652.63,261.53h0a1.14,1.14,0,0,1-1.14-1.14,2.93,2.93,0,0,0-2.9-2.93,2.87,2.87,0,0,0-2.07.85,2.93,2.93,0,0,0-.87,2.08,1.14,1.14,0,0,1-1.14,1.14h0a1.14,1.14,0,0,1-1.14-1.14,5.21,5.21,0,1,1,10.41,0A1.14,1.14,0,0,1,652.63,261.53Z"/></g></g></svg>