<svg xmlns="http://www.w3.org/2000/svg" viewBox="0 0 290.2 204.5">
  <defs>
    <style>
      .cls-1 {
        fill: #1a535c;
      }
    </style>
  </defs>
  <g id="Capa_2" data-name="Capa 2">
    <g id="Capa_1-2" data-name="Capa 1">
      <g>
        <path class="cls-1" d="M290.2,139.62c-.7,3.18-1.24,6.41-2.1,9.55-7.85,28.68-26.4,46.53-55.14,53.61a73.2,73.2,0,0,1-17.13,1.63q-75.78.18-151.58.05c-24.43,0-43.23-10.37-55.94-31.31-13.41-22.09-10.25-52.72,7-71.94a63.07,63.07,0,0,1,39.58-21c2.89-.39,5.83-.38,9.13-.57.28-25.28,9.65-46.43,29.37-62.48A75.51,75.51,0,0,1,142,0,78.06,78.06,0,0,1,217.9,59.4c3.8.44,7.65.72,11.44,1.36a72.29,72.29,0,0,1,59.5,57c.51,2.38.91,4.78,1.36,7.17Zm-206-39c-2.76-.6-5.07-1-7.34-1.6-8-1.93-15.94-2.81-24.07-1a45.52,45.52,0,0,0-35.35,49.81C20,169.14,39.08,187.14,60.62,187.2q79.62.21,159.25-.07a48.7,48.7,0,0,0,15-2.6C271.47,172.32,285,129,261.47,98.4,249.7,83.06,233.67,76,214.25,77.09c-3.54.19-7.08.52-10.72.8-.23-1.6-.44-2.9-.6-4.2-.89-7.23-2.35-14.31-5.49-20.95C182.3,20.74,145.8,8.16,114.05,24,91.69,35.15,78,61.83,82,86.28,82.73,90.91,83.41,95.55,84.19,100.62Z"/>
        <path class="cls-1" d="M179.23,160.55c-17.71,0-32.3-15.05-32.35-33.29a33,33,0,0,1,32.9-33c17.44,0,32,14.41,32.11,33.37A32.88,32.88,0,0,1,179.23,160.55Zm17.16-34.33a55.06,55.06,0,0,0-.9-5.68A16.59,16.59,0,0,0,181.43,108,15.82,15.82,0,0,0,165,116.62a22.75,22.75,0,0,0,.14,21.72,16,16,0,0,0,24.43,5C194.61,139.25,196.25,133.51,196.39,126.22Z"/>
        <path class="cls-1" d="M131.71,138c4.09,2.43,8.06,4.77,12.17,7.2-2.81,6.44-7.85,10.08-13.94,12.6-17.5,7.25-36.24-.81-43.16-18.58-6.78-17.43,1.58-36.58,18.8-43,12.65-4.76,27.53-1.08,35.27,8.76.8,1,1.45,2.16,2.4,3.58l-11.58,8.1c-2.53-4.53-6-7.53-11.14-8.44-9-1.59-16.39,2.61-19.34,11.26a23,23,0,0,0,1.37,18.63A16.44,16.44,0,0,0,131.71,138Z"/>
        <path class="cls-1" d="M212.05,171.7c-.22-4.45,1.31-7.78,4.92-10a73.15,73.15,0,0,0,6.25-3.85c.92-.72,1.26-2.18,1.87-3.31-1.21-.49-2.54-1.57-3.6-1.35-1.83.39-3.5,1.57-5.41,2.51l-3.88-4.42c2.21-4.31,13.84-5.82,17.91-2.76s3.85,8.83-.57,12.05c-2.23,1.64-4.67,3-6.84,5.1h10.66v6.08Z"/>
      </g>
    </g>
  </g>
</svg>
