<svg id="_2" data-name="2" xmlns="http://www.w3.org/2000/svg" viewBox="0 0 232.46 232.47"><defs><style>.cls-1{fill:#6ccff6;}.cls-2{fill:#00bf8d;}.cls-3{fill:#fff;}.cls-4{fill:#1a535c;}.cls-5{fill:#2c8f99;}</style></defs><g id="CUERPO"><path class="cls-1" d="M131.74,105.83a17.12,17.12,0,0,1-33.64,6Z"/><path class="cls-1" d="M228,96.48c-.58-3.26-1.28-6.45-2.12-9.59v0c-.13-.5-.26-1-.4-1.47-.35-1.27-.73-2.52-1.13-3.77-.17-.53-.34-1-.52-1.58,0,0,0-.1-.05-.16l-.29-.84A113.41,113.41,0,0,0,28,44.94,114.82,114.82,0,0,0,16.85,61.47a113.32,113.32,0,0,0,9.91,124.61,114.13,114.13,0,0,0,61.88,40.26A113.47,113.47,0,0,0,180,210.15a114.16,114.16,0,0,0,37.8-43.32A113,113,0,0,0,228,96.48Zm-109.61,32a21.19,21.19,0,0,1-24.54-17.16l-.15-.85a2,2,0,0,1,1.64-2.36l37.71-6.66a2,2,0,0,1,2.35,1.64l.15.86A21.2,21.2,0,0,1,118.41,128.51Zm46-30.54A2.68,2.68,0,0,1,162.1,101h0a2.7,2.7,0,0,1-3-2.28,7,7,0,0,0-8-5.83,6.66,6.66,0,0,0-2.53,1,7.1,7.1,0,0,0-1.95,2,6.85,6.85,0,0,0-1,5.34,2.71,2.71,0,0,1-2.07,3.22l-.11,0a2.71,2.71,0,0,1-3.1-2.09,12.35,12.35,0,0,1,9.85-14.76,11.83,11.83,0,0,1,2.14-.19,12.42,12.42,0,0,1,11.63,8.36A12,12,0,0,1,164.38,98Z"/><path class="cls-2" d="M65.62,217.8a114.35,114.35,0,0,1-38.86-31.72c-9.89-15.18-15.43-32.48-8.23-45.21C18.25,137.57,23,135.3,17,132c-20.88-6.4-14.44-41.66-.11-70.57A114.82,114.82,0,0,1,28,44.94c4.39,19.11,35.91-9.55,41.16,19.91,25,13.54-27.71,18.43-25.54,25.34C42.15,99.32,35,96.57,35,96.57,39.87,69.92.75,109.47,17.3,120.24a22.86,22.86,0,0,1,9.88,12.93c2.74,10,6.11,8.61,15.92,7.2A12.9,12.9,0,0,1,55,145.53c.5.63,1.43.89,3.28.39,6.18-1.66,11-15,16.7-4.48C78.05,167.82,51.25,194.09,65.62,217.8Z"/><path class="cls-2" d="M217.8,166.83c-2.14-1.52-3.68-7.51-3.69-19.29,11.72-59-46.27,14.15-51.58-44.35a12,12,0,0,1-.45-2.15h0A2.68,2.68,0,0,0,164.38,98a12,12,0,0,0-.52-2.18c6.33-6.46,27.4-5.17,33.43-21.49,3.61-4-2.95-8.58-14.81-13.34C167.71,53.44,164.14,72.55,156,60c-10.85,1-15.81,5.09-22.27-10.08-4.79-6,1.58-4,3.44-8s2-1.45,14.11-2.64c16.25-.9-15.32-8.84,5.58-9.61,11.74-2.84,5.91-8.09-3.74-7.47-3.78-.07,1-9,7.56-10.43A113.71,113.71,0,0,1,223.5,79.05l.29.84c0,.06,0,.11.05.16.18.53.35,1,.52,1.58.4,1.26.77,2.52,1.13,3.77.14.49.27,1,.4,1.47v0c.84,3.14,1.54,6.33,2.12,9.59A113,113,0,0,1,217.8,166.83Z"/><path class="cls-3" d="M180,210.15a113.47,113.47,0,0,1-91.36,16.19c1.07-4.54,20.54-9.54,44.61-13.8C158.17,208.14,178.64,205.71,180,210.15Z"/><path class="cls-3" d="M143.7,6.09c-1.76,4-21.09,8.22-44.74,12.4-25.27,4.47-45.29,7.94-46,3.69a.81.81,0,0,1,0-.16A113.42,113.42,0,0,1,143.7,6.09Z"/><path class="cls-4" d="M230.68,96A116.4,116.4,0,0,0,136.84,1.85l-.72-.13-.78-.13A116.18,116.18,0,0,0,48.83,210.84l.06,0a116.53,116.53,0,0,0,44.65,19.34h0l0,0c3,.6,6.12,1.09,9.23,1.45H103a116.42,116.42,0,0,0,126-87.24v0s0,0,0,0A115.47,115.47,0,0,0,230.68,96ZM217.8,166.83A114.16,114.16,0,0,1,180,210.15,113.26,113.26,0,0,1,65.62,217.8a114.35,114.35,0,0,1-38.86-31.72A113.32,113.32,0,0,1,16.85,61.47,114.29,114.29,0,0,1,52.91,22a113.59,113.59,0,0,1,170.59,57l.29.84c0,.06,0,.11.05.16.18.53.35,1,.52,1.58.4,1.25.78,2.5,1.13,3.77.14.49.27,1,.4,1.47v0c.84,3.14,1.54,6.33,2.12,9.59A113,113,0,0,1,217.8,166.83Z"/></g><g id="CARA"><path class="cls-5" d="M117.69,124.52A17.14,17.14,0,0,1,98.1,111.78l33.64-6A17.14,17.14,0,0,1,117.69,124.52Z"/><path class="cls-4" d="M135.57,104l-.15-.86a2,2,0,0,0-2.35-1.64l-37.71,6.66a2,2,0,0,0-1.64,2.36l.15.85a21.17,21.17,0,0,0,41.7-7.37Zm-37.47,7.8,33.64-6a17.12,17.12,0,0,1-33.64,6Z"/><path class="cls-4" d="M67.92,117.91a2.71,2.71,0,0,1-3.11-2.08,12.38,12.38,0,0,1,9.86-14.77h0A12.37,12.37,0,0,1,89,111.41a2.7,2.7,0,1,1-5.34.79,6.92,6.92,0,0,0-2.82-4.6,6.78,6.78,0,0,0-5.19-1.22h0a6.75,6.75,0,0,0-4.48,3,6.87,6.87,0,0,0-1,5.33A2.7,2.7,0,0,1,68,117.89Z"/><path class="cls-4" d="M162.1,101h0a2.7,2.7,0,0,1-3-2.28,7,7,0,0,0-8-5.83,6.66,6.66,0,0,0-2.53,1,7.1,7.1,0,0,0-1.95,2,6.85,6.85,0,0,0-1,5.34,2.71,2.71,0,0,1-2.07,3.22l-.11,0a2.71,2.71,0,0,1-3.1-2.09,12.35,12.35,0,0,1,9.85-14.76,11.83,11.83,0,0,1,2.14-.19,12.42,12.42,0,0,1,11.63,8.36,12,12,0,0,1,.52,2.18A2.68,2.68,0,0,1,162.1,101Z"/></g></svg>