<svg xmlns="http://www.w3.org/2000/svg" viewBox="0 0 662.73 363.77"><defs><style>.cls-1,.cls-10{fill:none;}.cls-2{fill:#fcf5bb;}.cls-3{fill:#3b3a3a;}.cls-4{fill:#e7e890;}.cls-5{fill:#1f1f1f;}.cls-6{fill:#181c1b;}.cls-7{fill:#a5a4a4;}.cls-8{fill:#767b79;}.cls-9{fill:#c4c28b;}.cls-10{stroke:#767b79;stroke-linecap:round;stroke-linejoin:round;stroke-width:0;}.cls-11{fill:#fbf29f;}.cls-12{fill:#e5e5a1;}.cls-13{fill:#69c6de;}.cls-14{fill:#f9f7d3;}.cls-15{fill:#ea5235;}.cls-16{fill:#010101;}.cls-17{fill:#fff;}.cls-18{fill:#353535;}</style></defs><g id="Capa_2" data-name="Capa 2"><g id="Capa_1-2" data-name="Capa 1"><path class="cls-1" d="M262.6,334.22h0Z"/><path class="cls-2" d="M358.37,279h0c-.42-2.63-.9-5.22-1.44-7.73q-.92-4.18-2-8.13,1.11,3.94,2,8.13C357.47,273.78,358,276.37,358.37,279Z"/><path class="cls-2" d="M173.81,4.88h166c9.49,0,17.18,17.23,17.18,38.49V263.14h10.1v-14h0V0H115.22a9.32,9.32,0,0,0-8.16,4.88h66.75Z"/><polygon class="cls-2" points="237.91 263.14 240.13 263.14 242.69 263.14 265.53 263.14 265.53 263.14 237.92 263.14 237.91 263.14"/><path class="cls-2" d="M314.43,216.6a27.06,27.06,0,0,0-15.56,5.21,27.06,27.06,0,0,1,15.56-5.21Z"/><path class="cls-3" d="M360.29,313.26a84.28,84.28,0,0,1-5.36,21H358A163,163,0,0,0,360.29,313.26Z"/><path class="cls-3" d="M344.13,237.6a64.73,64.73,0,0,0-4.75-6.8c-1.1-1.38-2.24-2.68-3.41-3.88a45.65,45.65,0,0,0-3.59-3.3A29.91,29.91,0,0,0,318.63,217a24.47,24.47,0,0,0-4.2-.36,27.06,27.06,0,0,0-15.56,5.21c-5.84,4-11.12,10.3-15.6,18.25q-1.11,2-2.14,4.07a28.81,28.81,0,0,1,16.41-5.42h23.84v.06c16.92.49,31.28,17,37,40.23-.42-2.63-.9-5.22-1.44-7.73q-.92-4.18-2-8.13a109,109,0,0,0-7.64-19.92Q345.77,240.27,344.13,237.6Z"/><path class="cls-4" d="M593.84,275.61l-6-36.66a8.74,8.74,0,0,0-6.26-7v23.22c4.68,7.45,8.24,17,10.14,27.8H602.5A8.78,8.78,0,0,1,593.84,275.61Z"/><path class="cls-5" d="M280.18,301.24c0-34.53,18.11-62.53,40.44-62.53H297.54a28.81,28.81,0,0,0-16.41,5.42,109.64,109.64,0,0,0-7.18,19h0q-1.11,3.94-2,8.13a162.87,162.87,0,0,0-3.55,34.26,165.49,165.49,0,0,0,2.47,28.69h-7.63c7.14,17.72,19.82,29.55,34.31,29.55h23.08C298.29,363.77,280.18,335.77,280.18,301.24Z"/><path class="cls-5" d="M320.62,238.71c.25,0,.5.06.76.06v-.06Z"/><path class="cls-6" d="M360.47,305.53c0-3-.08-6-.23-9a163.52,163.52,0,0,0-1.8-17.18c0-.12-.05-.24-.07-.36h0c-5.71-23.19-20.07-39.74-37-40.23-.26,0-.51-.06-.76-.06-22.33,0-40.44,28-40.44,62.53s18.11,62.53,40.44,62.53c14.49,0,27.17-11.83,34.31-29.55a84.28,84.28,0,0,0,5.36-21C360.41,310.71,360.47,308.14,360.47,305.53ZM320.62,274.4c9.59,0,17.36,12,17.36,26.84s-7.77,26.85-17.36,26.85-17.36-12-17.36-26.85S311,274.4,320.62,274.4Z"/><path class="cls-7" d="M303.26,301.24c0,14.83,7.77,26.85,17.36,26.85s17.36-12,17.36-26.85-7.77-26.84-17.36-26.84S303.26,286.42,303.26,301.24Z"/><path class="cls-5" d="M74.87,334.22H51.79c7.14,17.72,19.81,29.55,34.31,29.55h23.07C94.68,363.77,82,351.94,74.87,334.22Z"/><path class="cls-6" d="M74.87,334.22c7.13,17.72,19.81,29.55,34.3,29.55s27.18-11.83,34.31-29.55Z"/><path class="cls-8" d="M458.47,238.71h21.19v.06c11.58.38,21.8,10.26,28.23,25.36,6.55-15.39,17-25.42,28.9-25.42H558v.06c9.1.3,17.35,6.46,23.59,16.41V232a8.73,8.73,0,0,0-2.41-.37h-132a8.79,8.79,0,0,0-8.79,8.78,8.78,8.78,0,0,1-8.78,8.78H367.06v14H354.91q1.11,3.94,2,8.13c.54,2.51,1,5.1,1.44,7.73,0,.12.05.24.07.36a163.52,163.52,0,0,1,1.8,17.18c.15,2.95.23,6,.23,9,0,2.61-.06,5.18-.18,7.73a163,163,0,0,1-2.28,21h37.25c11,0,20.89-9.38,27.64-24.21-.24-2.88-.4-5.79-.4-8.77C422.5,266.71,438.6,238.71,458.47,238.71Z"/><path class="cls-9" d="M662.36,157.5l-42-140.38A24,24,0,0,0,597.38,0H367.06V249.15h62.57a8.78,8.78,0,0,0,8.78-8.78,8.79,8.79,0,0,1,8.79-8.78h132a9,9,0,0,1,8.67,7.36l6,36.66A8.78,8.78,0,0,0,602.5,283H654a8.79,8.79,0,0,0,8.78-8.79V160A8.52,8.52,0,0,0,662.36,157.5Z"/><path class="cls-5" d="M521.35,301.24c0-34.53,16.1-62.53,36-62.53H536.79c-11.86,0-22.35,10-28.9,25.42a100.93,100.93,0,0,1,0,74.22c6.55,15.39,17,25.42,28.9,25.42h20.52C537.45,363.77,521.35,335.77,521.35,301.24Z"/><path class="cls-5" d="M557.31,238.71c.23,0,.45.06.67.06v-.06Z"/><path class="cls-6" d="M558,238.77c-.22,0-.44-.06-.67-.06-19.86,0-36,28-36,62.53s16.1,62.53,36,62.53,36-28,36-62.53A106.27,106.27,0,0,0,591.71,283c-1.9-10.82-5.46-20.35-10.14-27.8C575.33,245.23,567.08,239.07,558,238.77Zm-.67,89.32c-8.53,0-15.44-12-15.44-26.85s6.91-26.84,15.44-26.84,15.44,12,15.44,26.84S565.84,328.09,557.31,328.09Z"/><ellipse class="cls-7" cx="557.31" cy="301.24" rx="15.44" ry="26.84"/><line class="cls-10" x1="262.86" y1="334.22" x2="263.23" y2="334.22"/><line class="cls-10" x1="270.86" y1="334.22" x2="263.23" y2="334.22"/><path class="cls-8" d="M263.23,334.22h7.63a165.49,165.49,0,0,1-2.47-28.69,162.87,162.87,0,0,1,3.55-34.26q.9-4.18,2-8.13H8.62A8.62,8.62,0,0,0,0,271.76V307.7a26.51,26.51,0,0,0,26.51,26.52H263.23ZM37.94,313.31H16.42A10.24,10.24,0,0,1,6.17,303.07v-8.78A10.25,10.25,0,0,1,16.42,284H37.94a10.25,10.25,0,0,1,10.25,10.25v8.78A10.24,10.24,0,0,1,37.94,313.31Zm201.53-10.24a10.23,10.23,0,0,1-10.24,10.24H193.12a10.24,10.24,0,0,1-10.25-10.24v-8.78A10.25,10.25,0,0,1,193.12,284h36.11a10.24,10.24,0,0,1,10.24,10.25Z"/><rect class="cls-11" x="6.17" y="284.04" width="42.01" height="29.27" rx="10.25"/><rect class="cls-11" x="182.87" y="284.04" width="56.6" height="29.27" rx="10.25"/><path class="cls-12" d="M357,115.14V43.37c0-21.26-7.69-38.49-17.18-38.49H264.05l.89,23.91h.91c2.57,0,4.66,2.64,4.66,5.89v78.47c0,3.26-2.09,5.9-4.66,5.9H241.43l-4.92,22.44v70.58h21.1v47h-21.1v4.07H274a109.64,109.64,0,0,1,7.18-19q1-2.1,2.14-4.07c4.48-7.95,9.76-14.21,15.6-18.25a27.06,27.06,0,0,1,15.56-5.21h0a24.47,24.47,0,0,1,4.2.36,29.91,29.91,0,0,1,13.75,6.66,45.65,45.65,0,0,1,3.59,3.3c1.17,1.2,2.31,2.5,3.41,3.88a64.73,64.73,0,0,1,4.75,6.8q1.64,2.67,3.14,5.62a109,109,0,0,1,7.64,19.92h2v-148Zm-45.69-7.07a11,11,0,0,1-11,11H294a11,11,0,0,1-11-11V39.76a11,11,0,0,1,11-11h6.29a11,11,0,0,1,11,11Zm25.06,11h-10.1a7.59,7.59,0,0,1-7.58-7.58V36.36a7.58,7.58,0,0,1,7.58-7.57,17.68,17.68,0,0,1,17.68,17.67v65A7.58,7.58,0,0,1,336.33,119.05Z"/><path class="cls-13" d="M343.91,111.47v-65a17.68,17.68,0,0,0-17.68-17.67,7.58,7.58,0,0,0-7.58,7.57v75.11a7.59,7.59,0,0,0,7.58,7.58h10.1A7.58,7.58,0,0,0,343.91,111.47Z"/><rect class="cls-13" x="283.03" y="28.79" width="28.24" height="90.26" rx="10.98"/><path class="cls-14" d="M36.24,167.53a19.21,19.21,0,0,1,19.21-19.21H168.57a19.21,19.21,0,0,1,19.21,19.21v95.61h48.73v-4.07H207.45a2.3,2.3,0,0,1-2.3-2.31V241.12a29,29,0,0,1,29-29.05h2.31V141.49l4.92-22.44H.86L0,141.49v72.72a2.14,2.14,0,0,1,2.13-2.14A26.89,26.89,0,0,1,29,239v18a2.13,2.13,0,0,1-2.14,2.13H2.13A2.13,2.13,0,0,1,0,256.94v1.2c0,2.76,1.87,5,4.17,5H36.24Z"/><path class="cls-14" d="M108.78,28.79H264.94l-.89-23.91H31.15C24.1,4.88,18.31,11,18,18.82l-.37,10Z"/><path class="cls-13" d="M97.64,119.05H265.85c2.57,0,4.66-2.64,4.66-5.9V34.68c0-3.25-2.09-5.89-4.66-5.89H17.65L.86,119.05H97.64Zm50.27-78.81a9,9,0,0,1,9.45-1.93,8.22,8.22,0,0,1,5.46,7.19l.36,4.76-3-3.75c-2.78-3.52-6.09-4.66-11-3.8l-4.6.8Zm7.24,37.36a11,11,0,1,1-11.25,11A11.12,11.12,0,0,1,155.15,77.6ZM62,62.33a13,13,0,0,1,17.32,0l4.37,4L78,64.81a26.21,26.21,0,0,0-14.56,0L57.62,66.4Zm8.66,37.24a11,11,0,1,1,11.25-11A11.12,11.12,0,0,1,70.68,99.57Zm13.82,2.36a7.23,7.23,0,0,1,3.88-3,1.66,1.66,0,0,1,2,.39,1.5,1.5,0,0,1,0,1.76c-.28-.38-.49-1-.85-1.08a2.54,2.54,0,0,0-1.64.18,3.39,3.39,0,0,0-1.48,4.67,3.11,3.11,0,0,0,3.12,1.22,10,10,0,0,0,5.18-2.59c2-1.77,3.88-3.61,5.89-5.34a10.17,10.17,0,0,1,6.63-2.84A7.26,7.26,0,0,1,112.06,97l.64.53a22.37,22.37,0,0,1,3.88-2,7.77,7.77,0,0,1,7,1.45c2.05,1.62,3.94,3.44,5.92,5.15,1,.83,1.94,1.64,2.95,2.42a8.16,8.16,0,0,0,4.06,1.52,2.79,2.79,0,0,0,2.88-1.35,3.41,3.41,0,0,0-.5-3.79,4,4,0,0,0-1.28-.89c-1.25-.54-1.91-.14-2.09,1.28a1.74,1.74,0,0,1-.18-1.92,1.28,1.28,0,0,1,1.51-.58,6.56,6.56,0,0,1,4.9,4,4.49,4.49,0,0,1-1.15,5.1,15.2,15.2,0,0,1-11,4.5,33.74,33.74,0,0,1-11.12-1.38,11.39,11.39,0,0,1-5.32-3.36,1.47,1.47,0,0,0-.2-.18,33.33,33.33,0,0,1-3.65,2.62,20.7,20.7,0,0,1-8.77,2.15,38.58,38.58,0,0,1-6.45,0,14,14,0,0,1-9.48-4.88A4.61,4.61,0,0,1,84.5,101.93Z"/><path class="cls-15" d="M2.13,259.07H26.88A2.13,2.13,0,0,0,29,256.94V239A26.89,26.89,0,0,0,2.13,212.07,2.14,2.14,0,0,0,0,214.21v42.73A2.13,2.13,0,0,0,2.13,259.07Z"/><path class="cls-15" d="M242.59,259.07h15v-47H234.2a29,29,0,0,0-29,29.05v15.64a2.3,2.3,0,0,0,2.3,2.31h35.14Z"/><path class="cls-3" d="M168.57,148.32H55.45a19.21,19.21,0,0,0-19.21,19.21v95.61H187.78V167.53A19.21,19.21,0,0,0,168.57,148.32Z"/><path class="cls-5" d="M443,301.24c0-34.53,16.1-62.53,36-62.53H458.47c-19.87,0-36,28-36,62.53,0,3,.16,5.89.4,8.77,2.45,30.37,17.42,53.76,35.57,53.76H479C459.13,363.77,443,335.77,443,301.24Z"/><path class="cls-5" d="M479,238.71c.23,0,.45.06.67.06v-.06Z"/><path class="cls-6" d="M507.89,264.13c-6.43-15.1-16.65-25-28.23-25.36-.22,0-.44-.06-.67-.06-19.86,0-36,28-36,62.53s16.1,62.53,36,62.53c11.86,0,22.35-10,28.9-25.42a100.93,100.93,0,0,0,0-74.22Zm-28.9,64c-8.53,0-15.44-12-15.44-26.85S470.46,274.4,479,274.4s15.44,12,15.44,26.84S487.52,328.09,479,328.09Z"/><ellipse class="cls-7" cx="478.99" cy="301.24" rx="15.44" ry="26.84"/><path class="cls-16" d="M70.68,77.6a11,11,0,1,0,11.25,11A11.12,11.12,0,0,0,70.68,77.6Zm-.34,7.72c-1.79,0-3.24-1.13-3.24-2.53s1.45-2.54,3.24-2.54,3.24,1.14,3.24,2.54S72.13,85.32,70.34,85.32Z"/><path class="cls-17" d="M70.34,80.25c-1.79,0-3.24,1.14-3.24,2.54s1.45,2.53,3.24,2.53,3.24-1.13,3.24-2.53S72.13,80.25,70.34,80.25Z"/><path class="cls-16" d="M155.15,99.57a11,11,0,1,0-11.25-11A11.12,11.12,0,0,0,155.15,99.57Zm0-19.32c1.79,0,3.24,1.14,3.24,2.54s-1.45,2.53-3.24,2.53-3.25-1.13-3.25-2.53S153.36,80.25,155.15,80.25Z"/><path class="cls-17" d="M155.15,85.32c1.79,0,3.24-1.13,3.24-2.53s-1.45-2.54-3.24-2.54-3.25,1.14-3.25,2.54S153.36,85.32,155.15,85.32Z"/><path class="cls-18" d="M160.22,46.51l3,3.75-.36-4.76a8.22,8.22,0,0,0-5.46-7.19,9,9,0,0,0-9.45,1.93l-3.33,3.27,4.6-.8C154.13,41.85,157.44,43,160.22,46.51Z"/><path class="cls-18" d="M78,64.81l5.75,1.57-4.37-4a13,13,0,0,0-17.32,0l-4.4,4.07,5.78-1.59A26.21,26.21,0,0,1,78,64.81Z"/><path class="cls-18" d="M100.63,112.39a20.7,20.7,0,0,0,8.77-2.15,33.33,33.33,0,0,0,3.65-2.62,1.47,1.47,0,0,1,.2.18,11.39,11.39,0,0,0,5.32,3.36,33.74,33.74,0,0,0,11.12,1.38,15.2,15.2,0,0,0,11-4.5,4.49,4.49,0,0,0,1.15-5.1,6.56,6.56,0,0,0-4.9-4,1.28,1.28,0,0,0-1.51.58,1.74,1.74,0,0,0,.18,1.92c.18-1.42.84-1.82,2.09-1.28a4,4,0,0,1,1.28.89,3.41,3.41,0,0,1,.5,3.79,2.79,2.79,0,0,1-2.88,1.35,8.16,8.16,0,0,1-4.06-1.52c-1-.78-2-1.59-2.95-2.42-2-1.71-3.87-3.53-5.92-5.15a7.77,7.77,0,0,0-7-1.45,22.37,22.37,0,0,0-3.88,2l-.64-.53a7.26,7.26,0,0,0-4.82-1.67,10.17,10.17,0,0,0-6.63,2.84c-2,1.73-3.92,3.57-5.89,5.34a10,10,0,0,1-5.18,2.59,3.11,3.11,0,0,1-3.12-1.22,3.39,3.39,0,0,1,1.48-4.67,2.54,2.54,0,0,1,1.64-.18c.36.1.57.7.85,1.08a1.5,1.5,0,0,0,0-1.76,1.66,1.66,0,0,0-2-.39,7.23,7.23,0,0,0-3.88,3,4.61,4.61,0,0,0,.2,5.57,14,14,0,0,0,9.48,4.88A38.58,38.58,0,0,0,100.63,112.39Z"/></g></g></svg>